<svg xmlns="http://www.w3.org/2000/svg" width="420mm" height="297mm" viewBox="0 0 420 297">
<rect width="420.0" height="297.0" fill="#fff"/>
<rect x="8.000" y="8.000" width="404.000" height="281.000" fill="none" stroke="#000" stroke-width="0.4"/>
<rect x="12.000" y="12.000" width="396.000" height="273.000" fill="none" stroke="#000" stroke-width="1.0"/>
<line x1="210.000" y1="12.000" x2="210.000" y2="18.000" stroke="#000" stroke-width="0.5"/>
<line x1="210.000" y1="285.000" x2="210.000" y2="279.000" stroke="#000" stroke-width="0.5"/>
<line x1="12.000" y1="148.500" x2="18.000" y2="148.500" stroke="#000" stroke-width="0.5"/>
<line x1="408.000" y1="148.500" x2="402.000" y2="148.500" stroke="#000" stroke-width="0.5"/>
<rect x="228.000" y="233.000" width="180.000" height="52.000" fill="none" stroke="#000" stroke-width="1.0"/>
<line x1="228.000" y1="243.000" x2="408.000" y2="243.000" stroke="#000" stroke-width="0.4"/>
<line x1="228.000" y1="252.000" x2="408.000" y2="252.000" stroke="#000" stroke-width="0.4"/>
<line x1="228.000" y1="260.000" x2="408.000" y2="260.000" stroke="#000" stroke-width="0.4"/>
<line x1="228.000" y1="268.000" x2="408.000" y2="268.000" stroke="#000" stroke-width="0.4"/>
<line x1="228.000" y1="277.000" x2="408.000" y2="277.000" stroke="#000" stroke-width="0.4"/>
<line x1="312.000" y1="233.000" x2="312.000" y2="285.000" stroke="#000" stroke-width="0.5"/>
<line x1="344.000" y1="233.000" x2="344.000" y2="285.000" stroke="#000" stroke-width="0.5"/>
<text x="230.00" y="239.80" font-family="'Segoe UI','Microsoft YaHei',sans-serif" font-size="4.6" text-anchor="start" font-weight="bold" fill="#000">相机支架(L 型)</text>
<text x="230.00" y="255.40" font-family="'Segoe UI','Microsoft YaHei',sans-serif" font-size="2.3" text-anchor="start" font-weight="normal" fill="#555">材料标记</text>
<text x="230.00" y="265.60" font-family="'Segoe UI','Microsoft YaHei',sans-serif" font-size="3.6" text-anchor="start" font-weight="normal" fill="#000">6061-T6 GB/T 3880</text>
<text x="230.00" y="280.20" font-family="'Segoe UI','Microsoft YaHei',sans-serif" font-size="2.8" text-anchor="start" font-weight="normal" fill="#555">阶段标记:试制　重量:16 g</text>
<text x="320.00" y="239.80" font-family="'Segoe UI','Microsoft YaHei',sans-serif" font-size="2.8" text-anchor="middle" font-weight="normal" fill="#555">设计</text>
<line x1="328.000" y1="240.400" x2="352.000" y2="240.400" stroke="#999" stroke-width="0.15"/>
<text x="352.00" y="239.80" font-family="'Segoe UI','Microsoft YaHei',sans-serif" font-size="2.5" text-anchor="middle" font-weight="normal" fill="#555">2026-09</text>
<line x1="312.000" y1="243.000" x2="344.000" y2="243.000" stroke="#000" stroke-width="0.3"/>
<text x="320.00" y="249.80" font-family="'Segoe UI','Microsoft YaHei',sans-serif" font-size="2.8" text-anchor="middle" font-weight="normal" fill="#555">制图</text>
<line x1="328.000" y1="250.400" x2="352.000" y2="250.400" stroke="#999" stroke-width="0.15"/>
<text x="352.00" y="249.80" font-family="'Segoe UI','Microsoft YaHei',sans-serif" font-size="2.5" text-anchor="middle" font-weight="normal" fill="#555"></text>
<line x1="312.000" y1="253.000" x2="344.000" y2="253.000" stroke="#000" stroke-width="0.3"/>
<text x="320.00" y="259.30" font-family="'Segoe UI','Microsoft YaHei',sans-serif" font-size="2.8" text-anchor="middle" font-weight="normal" fill="#555">审核</text>
<line x1="328.000" y1="259.900" x2="352.000" y2="259.900" stroke="#999" stroke-width="0.15"/>
<text x="352.00" y="259.30" font-family="'Segoe UI','Microsoft YaHei',sans-serif" font-size="2.5" text-anchor="middle" font-weight="normal" fill="#555"></text>
<line x1="312.000" y1="262.500" x2="344.000" y2="262.500" stroke="#000" stroke-width="0.3"/>
<text x="320.00" y="268.80" font-family="'Segoe UI','Microsoft YaHei',sans-serif" font-size="2.8" text-anchor="middle" font-weight="normal" fill="#555">批准</text>
<line x1="328.000" y1="269.400" x2="352.000" y2="269.400" stroke="#999" stroke-width="0.15"/>
<text x="352.00" y="268.80" font-family="'Segoe UI','Microsoft YaHei',sans-serif" font-size="2.5" text-anchor="middle" font-weight="normal" fill="#555"></text>
<line x1="312.000" y1="272.000" x2="344.000" y2="272.000" stroke="#000" stroke-width="0.3"/>
<text x="376.00" y="247.00" font-family="'Segoe UI','Microsoft YaHei',sans-serif" font-size="4.6" text-anchor="middle" font-weight="bold" fill="#000">PANO-3U-MEC-111</text>
<line x1="344.000" y1="251.000" x2="408.000" y2="251.000" stroke="#000" stroke-width="0.4"/>
<line x1="344.000" y1="277.000" x2="408.000" y2="277.000" stroke="#000" stroke-width="0.4"/>
<text x="354.00" y="280.20" font-family="'Segoe UI','Microsoft YaHei',sans-serif" font-size="2.3" text-anchor="middle" font-weight="normal" fill="#555">比例</text>
<text x="354.00" y="284.80" font-family="'Segoe UI','Microsoft YaHei',sans-serif" font-size="3.2" text-anchor="middle" font-weight="normal" fill="#000">2.5:1</text>
<line x1="364.000" y1="277.000" x2="364.000" y2="285.000" stroke="#000" stroke-width="0.4"/>
<text x="376.00" y="280.20" font-family="'Segoe UI','Microsoft YaHei',sans-serif" font-size="2.3" text-anchor="middle" font-weight="normal" fill="#555">数量</text>
<text x="376.00" y="284.80" font-family="'Segoe UI','Microsoft YaHei',sans-serif" font-size="3.2" text-anchor="middle" font-weight="normal" fill="#000">2</text>
<line x1="388.000" y1="277.000" x2="388.000" y2="285.000" stroke="#000" stroke-width="0.4"/>
<text x="398.00" y="280.20" font-family="'Segoe UI','Microsoft YaHei',sans-serif" font-size="2.3" text-anchor="middle" font-weight="normal" fill="#555">版本</text>
<text x="398.00" y="284.80" font-family="'Segoe UI','Microsoft YaHei',sans-serif" font-size="3.2" text-anchor="middle" font-weight="normal" fill="#000">A</text>
<text x="16.00" y="21.00" font-family="'Segoe UI','Microsoft YaHei',sans-serif" font-size="6" text-anchor="start" font-weight="bold" fill="#000">PANO-3U-MEC-111</text>
<text x="16.00" y="28.00" font-family="'Segoe UI','Microsoft YaHei',sans-serif" font-size="4.4" text-anchor="start" font-weight="normal" fill="#333">相机支架(L 型)　|　生产图纸</text>
<polyline points="374.200,42.000 372.000,45.800" fill="none" stroke="#000" stroke-width="0.35" stroke-linejoin="round"/>
<polyline points="372.950,43.650 374.600,45.800" fill="none" stroke="#000" stroke-width="0.35" stroke-linejoin="round"/>
<text x="375.00" y="44.60" font-family="'Segoe UI','Microsoft YaHei',sans-serif" font-size="3.0" text-anchor="start" font-weight="normal" fill="#000">Ra 3.2</text>
<text x="372.00" y="36.50" font-family="'Segoe UI','Microsoft YaHei',sans-serif" font-size="3.4" text-anchor="start" font-weight="normal" fill="#000">其余</text>
<polyline points="44.000,52.000 163.000,52.000 163.000,171.000 44.000,171.000 44.000,52.000" fill="none" stroke="#000" stroke-width="0.8" stroke-linejoin="round"/>
<circle cx="103.500" cy="111.500" r="38.500" fill="none" stroke="#000" stroke-width="0.7"/>
<circle cx="103.500" cy="111.500" r="29.750" fill="none" stroke="#000" stroke-width="0.45" stroke-dasharray="2,0.8"/>
<circle cx="54.500" cy="62.500" r="3.850" fill="none" stroke="#000" stroke-width="0.55"/>
<line x1="52.900" y1="62.500" x2="54.500" y2="62.500" stroke="#000066" stroke-width="0.18" stroke-dasharray="7,1.4,1.4,1.4"/>
<line x1="54.500" y1="62.500" x2="56.100" y2="62.500" stroke="#000066" stroke-width="0.18" stroke-dasharray="7,1.4,1.4,1.4"/>
<line x1="54.500" y1="60.900" x2="54.500" y2="62.500" stroke="#000066" stroke-width="0.18" stroke-dasharray="7,1.4,1.4,1.4"/>
<line x1="54.500" y1="62.500" x2="54.500" y2="64.100" stroke="#000066" stroke-width="0.18" stroke-dasharray="7,1.4,1.4,1.4"/>
<circle cx="54.50" cy="62.50" r="0.45" fill="#000066"/>
<circle cx="152.500" cy="62.500" r="3.850" fill="none" stroke="#000" stroke-width="0.55"/>
<line x1="150.900" y1="62.500" x2="152.500" y2="62.500" stroke="#000066" stroke-width="0.18" stroke-dasharray="7,1.4,1.4,1.4"/>
<line x1="152.500" y1="62.500" x2="154.100" y2="62.500" stroke="#000066" stroke-width="0.18" stroke-dasharray="7,1.4,1.4,1.4"/>
<line x1="152.500" y1="60.900" x2="152.500" y2="62.500" stroke="#000066" stroke-width="0.18" stroke-dasharray="7,1.4,1.4,1.4"/>
<line x1="152.500" y1="62.500" x2="152.500" y2="64.100" stroke="#000066" stroke-width="0.18" stroke-dasharray="7,1.4,1.4,1.4"/>
<circle cx="152.50" cy="62.50" r="0.45" fill="#000066"/>
<circle cx="54.500" cy="160.500" r="3.850" fill="none" stroke="#000" stroke-width="0.55"/>
<line x1="52.900" y1="160.500" x2="54.500" y2="160.500" stroke="#000066" stroke-width="0.18" stroke-dasharray="7,1.4,1.4,1.4"/>
<line x1="54.500" y1="160.500" x2="56.100" y2="160.500" stroke="#000066" stroke-width="0.18" stroke-dasharray="7,1.4,1.4,1.4"/>
<line x1="54.500" y1="158.900" x2="54.500" y2="160.500" stroke="#000066" stroke-width="0.18" stroke-dasharray="7,1.4,1.4,1.4"/>
<line x1="54.500" y1="160.500" x2="54.500" y2="162.100" stroke="#000066" stroke-width="0.18" stroke-dasharray="7,1.4,1.4,1.4"/>
<circle cx="54.50" cy="160.50" r="0.45" fill="#000066"/>
<circle cx="152.500" cy="160.500" r="3.850" fill="none" stroke="#000" stroke-width="0.55"/>
<line x1="150.900" y1="160.500" x2="152.500" y2="160.500" stroke="#000066" stroke-width="0.18" stroke-dasharray="7,1.4,1.4,1.4"/>
<line x1="152.500" y1="160.500" x2="154.100" y2="160.500" stroke="#000066" stroke-width="0.18" stroke-dasharray="7,1.4,1.4,1.4"/>
<line x1="152.500" y1="158.900" x2="152.500" y2="160.500" stroke="#000066" stroke-width="0.18" stroke-dasharray="7,1.4,1.4,1.4"/>
<line x1="152.500" y1="160.500" x2="152.500" y2="162.100" stroke="#000066" stroke-width="0.18" stroke-dasharray="7,1.4,1.4,1.4"/>
<circle cx="152.50" cy="160.50" r="0.45" fill="#000066"/>
<line x1="100.500" y1="111.500" x2="103.500" y2="111.500" stroke="#000066" stroke-width="0.18" stroke-dasharray="7,1.4,1.4,1.4"/>
<line x1="103.500" y1="111.500" x2="106.500" y2="111.500" stroke="#000066" stroke-width="0.18" stroke-dasharray="7,1.4,1.4,1.4"/>
<line x1="103.500" y1="108.500" x2="103.500" y2="111.500" stroke="#000066" stroke-width="0.18" stroke-dasharray="7,1.4,1.4,1.4"/>
<line x1="103.500" y1="111.500" x2="103.500" y2="114.500" stroke="#000066" stroke-width="0.18" stroke-dasharray="7,1.4,1.4,1.4"/>
<circle cx="103.50" cy="111.50" r="0.45" fill="#000066"/>
<line x1="44.000" y1="38.800" x2="44.000" y2="50.000" stroke="#000" stroke-width="0.22"/>
<line x1="163.000" y1="38.800" x2="163.000" y2="50.000" stroke="#000" stroke-width="0.22"/>
<line x1="44.000" y1="48.000" x2="163.000" y2="48.000" stroke="#000" stroke-width="0.22"/>
<path d="M 44.00 48.00 L 47.20 47.40 L 47.20 48.60 Z" fill="#000"/>
<path d="M 163.00 48.00 L 159.80 48.60 L 159.80 47.40 Z" fill="#000"/>
<text x="103.50" y="46.68" font-family="'Segoe UI','Microsoft YaHei',sans-serif" font-size="3.0" text-anchor="middle" font-weight="normal" fill="#000">34±0.1</text>
<line x1="43.200" y1="171.000" x2="30.000" y2="171.000" stroke="#000" stroke-width="0.22"/>
<line x1="43.200" y1="52.000" x2="30.000" y2="52.000" stroke="#000" stroke-width="0.22"/>
<line x1="32.000" y1="171.000" x2="32.000" y2="52.000" stroke="#000" stroke-width="0.22"/>
<path d="M 32.00 171.00 L 31.40 167.80 L 32.60 167.80 Z" fill="#000"/>
<path d="M 32.00 52.00 L 32.60 55.20 L 31.40 55.20 Z" fill="#000"/>
<text x="30.68" y="111.50" font-family="'Segoe UI','Microsoft YaHei',sans-serif" font-size="3.0" text-anchor="middle" font-weight="normal" fill="#000" transform="rotate(-90 30.68 111.50)">34±0.1</text>
<line x1="54.500" y1="52.800" x2="54.500" y2="62.000" stroke="#000" stroke-width="0.22"/>
<line x1="152.500" y1="52.800" x2="152.500" y2="62.000" stroke="#000" stroke-width="0.22"/>
<line x1="54.500" y1="60.000" x2="152.500" y2="60.000" stroke="#000" stroke-width="0.22"/>
<path d="M 54.50 60.00 L 57.70 59.40 L 57.70 60.60 Z" fill="#000"/>
<path d="M 152.50 60.00 L 149.30 60.60 L 149.30 59.40 Z" fill="#000"/>
<text x="103.50" y="58.68" font-family="'Segoe UI','Microsoft YaHei',sans-serif" font-size="3.0" text-anchor="middle" font-weight="normal" fill="#000">28±0.05</text>
<line x1="43.200" y1="62.500" x2="22.000" y2="62.500" stroke="#000" stroke-width="0.22"/>
<line x1="43.200" y1="160.500" x2="22.000" y2="160.500" stroke="#000" stroke-width="0.22"/>
<line x1="24.000" y1="62.500" x2="24.000" y2="160.500" stroke="#000" stroke-width="0.22"/>
<path d="M 24.00 62.50 L 24.60 65.70 L 23.40 65.70 Z" fill="#000"/>
<path d="M 24.00 160.50 L 23.40 157.30 L 24.60 157.30 Z" fill="#000"/>
<text x="22.68" y="111.50" font-family="'Segoe UI','Microsoft YaHei',sans-serif" font-size="3.0" text-anchor="middle" font-weight="normal" fill="#000" transform="rotate(-90 22.68 111.50)">28±0.05</text>
<line x1="103.500" y1="73.000" x2="103.500" y2="150.000" stroke="#000" stroke-width="0.22"/>
<path d="M 103.50 73.00 L 102.90 69.80 L 104.10 69.80 Z" fill="#000"/>
<path d="M 103.50 150.00 L 104.10 153.20 L 102.90 153.20 Z" fill="#000"/>
<text x="104.50" y="71.80" font-family="'Segoe UI','Microsoft YaHei',sans-serif" font-size="3.0" text-anchor="start" font-weight="normal" fill="#000">Ø22 H7(+0.021/0)</text>
<line x1="152.500" y1="160.500" x2="157.500" y2="48.000" stroke="#000" stroke-width="0.22"/>
<line x1="157.500" y1="48.000" x2="160.000" y2="48.000" stroke="#000" stroke-width="0.22"/>
<path d="M 152.50 160.50 L 152.96 163.72 L 151.76 163.67 Z" fill="#000"/>
<text x="160.90" y="49.20" font-family="'Segoe UI','Microsoft YaHei',sans-serif" font-size="3.0" text-anchor="start" font-weight="normal" fill="#000">4×Ø2.2 通孔</text>
<text x="160.90" y="53.20" font-family="'Segoe UI','Microsoft YaHei',sans-serif" font-size="3.0" text-anchor="start" font-weight="normal" fill="#000">→F14 M2×8(拧入侧板 M2 攻丝)</text>
<text x="103.50" y="46.00" font-family="'Segoe UI','Microsoft YaHei',sans-serif" font-size="3.8" text-anchor="start" font-weight="bold" fill="#000">正视图 (3.5:1)</text>
<polyline points="236.000,86.000 355.000,86.000 355.000,79.000 281.500,79.000 281.500,72.000 267.500,72.000 267.500,33.500 260.500,33.500 260.500,79.000 236.000,79.000 236.000,86.000" fill="none" stroke="#000" stroke-width="0.8" stroke-linejoin="round"/>
<clipPath id="g1"><polygon points="236.000,86.000 355.000,86.000 355.000,79.000 281.500,79.000 281.500,72.000 267.500,72.000 267.500,33.500 260.500,33.500 260.500,79.000 236.000,79.000"/></clipPath>
<g clip-path="url(#g1)" stroke="#000" stroke-width="0.18">
<line x1="197.90" y1="59.77" x2="295.52" y2="-37.85"/>
<line x1="198.96" y1="60.83" x2="296.58" y2="-36.79"/>
<line x1="200.02" y1="61.89" x2="297.64" y2="-35.73"/>
<line x1="201.08" y1="62.96" x2="298.71" y2="-34.67"/>
<line x1="202.14" y1="64.02" x2="299.77" y2="-33.61"/>
<line x1="203.20" y1="65.08" x2="300.83" y2="-32.55"/>
<line x1="204.26" y1="66.14" x2="301.89" y2="-31.49"/>
<line x1="205.32" y1="67.20" x2="302.95" y2="-30.43"/>
<line x1="206.38" y1="68.26" x2="304.01" y2="-29.37"/>
<line x1="207.44" y1="69.32" x2="305.07" y2="-28.31"/>
<line x1="208.50" y1="70.38" x2="306.13" y2="-27.25"/>
<line x1="209.56" y1="71.44" x2="307.19" y2="-26.19"/>
<line x1="210.62" y1="72.50" x2="308.25" y2="-25.13"/>
<line x1="211.68" y1="73.56" x2="309.31" y2="-24.07"/>
<line x1="212.75" y1="74.62" x2="310.37" y2="-23.00"/>
<line x1="213.81" y1="75.68" x2="311.43" y2="-21.94"/>
<line x1="214.87" y1="76.74" x2="312.49" y2="-20.88"/>
<line x1="215.93" y1="77.80" x2="313.55" y2="-19.82"/>
<line x1="216.99" y1="78.87" x2="314.62" y2="-18.76"/>
<line x1="218.05" y1="79.93" x2="315.68" y2="-17.70"/>
<line x1="219.11" y1="80.99" x2="316.74" y2="-16.64"/>
<line x1="220.17" y1="82.05" x2="317.80" y2="-15.58"/>
<line x1="221.23" y1="83.11" x2="318.86" y2="-14.52"/>
<line x1="222.29" y1="84.17" x2="319.92" y2="-13.46"/>
<line x1="223.35" y1="85.23" x2="320.98" y2="-12.40"/>
<line x1="224.41" y1="86.29" x2="322.04" y2="-11.34"/>
<line x1="225.47" y1="87.35" x2="323.10" y2="-10.28"/>
<line x1="226.53" y1="88.41" x2="324.16" y2="-9.22"/>
<line x1="227.59" y1="89.47" x2="325.22" y2="-8.16"/>
<line x1="228.65" y1="90.53" x2="326.28" y2="-7.10"/>
<line x1="229.72" y1="91.59" x2="327.34" y2="-6.03"/>
<line x1="230.78" y1="92.65" x2="328.40" y2="-4.97"/>
<line x1="231.84" y1="93.71" x2="329.46" y2="-3.91"/>
<line x1="232.90" y1="94.78" x2="330.53" y2="-2.85"/>
<line x1="233.96" y1="95.84" x2="331.59" y2="-1.79"/>
<line x1="235.02" y1="96.90" x2="332.65" y2="-0.73"/>
<line x1="236.08" y1="97.96" x2="333.71" y2="0.33"/>
<line x1="237.14" y1="99.02" x2="334.77" y2="1.39"/>
<line x1="238.20" y1="100.08" x2="335.83" y2="2.45"/>
<line x1="239.26" y1="101.14" x2="336.89" y2="3.51"/>
<line x1="240.32" y1="102.20" x2="337.95" y2="4.57"/>
<line x1="241.38" y1="103.26" x2="339.01" y2="5.63"/>
<line x1="242.44" y1="104.32" x2="340.07" y2="6.69"/>
<line x1="243.50" y1="105.38" x2="341.13" y2="7.75"/>
<line x1="244.56" y1="106.44" x2="342.19" y2="8.81"/>
<line x1="245.63" y1="107.50" x2="343.25" y2="9.88"/>
<line x1="246.69" y1="108.56" x2="344.31" y2="10.94"/>
<line x1="247.75" y1="109.62" x2="345.37" y2="12.00"/>
<line x1="248.81" y1="110.69" x2="346.44" y2="13.06"/>
<line x1="249.87" y1="111.75" x2="347.50" y2="14.12"/>
<line x1="250.93" y1="112.81" x2="348.56" y2="15.18"/>
<line x1="251.99" y1="113.87" x2="349.62" y2="16.24"/>
<line x1="253.05" y1="114.93" x2="350.68" y2="17.30"/>
<line x1="254.11" y1="115.99" x2="351.74" y2="18.36"/>
<line x1="255.17" y1="117.05" x2="352.80" y2="19.42"/>
<line x1="256.23" y1="118.11" x2="353.86" y2="20.48"/>
<line x1="257.29" y1="119.17" x2="354.92" y2="21.54"/>
<line x1="258.35" y1="120.23" x2="355.98" y2="22.60"/>
<line x1="259.41" y1="121.29" x2="357.04" y2="23.66"/>
<line x1="260.47" y1="122.35" x2="358.10" y2="24.72"/>
<line x1="261.54" y1="123.41" x2="359.16" y2="25.79"/>
<line x1="262.60" y1="124.47" x2="360.22" y2="26.85"/>
<line x1="263.66" y1="125.53" x2="361.28" y2="27.91"/>
<line x1="264.72" y1="126.60" x2="362.35" y2="28.97"/>
<line x1="265.78" y1="127.66" x2="363.41" y2="30.03"/>
<line x1="266.84" y1="128.72" x2="364.47" y2="31.09"/>
<line x1="267.90" y1="129.78" x2="365.53" y2="32.15"/>
<line x1="268.96" y1="130.84" x2="366.59" y2="33.21"/>
<line x1="270.02" y1="131.90" x2="367.65" y2="34.27"/>
<line x1="271.08" y1="132.96" x2="368.71" y2="35.33"/>
<line x1="272.14" y1="134.02" x2="369.77" y2="36.39"/>
<line x1="273.20" y1="135.08" x2="370.83" y2="37.45"/>
<line x1="274.26" y1="136.14" x2="371.89" y2="38.51"/>
<line x1="275.32" y1="137.20" x2="372.95" y2="39.57"/>
<line x1="276.38" y1="138.26" x2="374.01" y2="40.63"/>
<line x1="277.45" y1="139.32" x2="375.07" y2="41.70"/>
<line x1="278.51" y1="140.38" x2="376.13" y2="42.76"/>
<line x1="279.57" y1="141.44" x2="377.19" y2="43.82"/>
<line x1="280.63" y1="142.50" x2="378.25" y2="44.88"/>
<line x1="281.69" y1="143.57" x2="379.32" y2="45.94"/>
<line x1="282.75" y1="144.63" x2="380.38" y2="47.00"/>
<line x1="283.81" y1="145.69" x2="381.44" y2="48.06"/>
<line x1="284.87" y1="146.75" x2="382.50" y2="49.12"/>
<line x1="285.93" y1="147.81" x2="383.56" y2="50.18"/>
<line x1="286.99" y1="148.87" x2="384.62" y2="51.24"/>
<line x1="288.05" y1="149.93" x2="385.68" y2="52.30"/>
<line x1="289.11" y1="150.99" x2="386.74" y2="53.36"/>
<line x1="290.17" y1="152.05" x2="387.80" y2="54.42"/>
<line x1="291.23" y1="153.11" x2="388.86" y2="55.48"/>
<line x1="292.29" y1="154.17" x2="389.92" y2="56.54"/>
<line x1="293.36" y1="155.23" x2="390.98" y2="57.61"/>
<line x1="294.42" y1="156.29" x2="392.04" y2="58.67"/>
<line x1="295.48" y1="157.35" x2="393.10" y2="59.73"/>
</g>
<circle cx="264.000" cy="33.500" r="3.000" fill="none" stroke="#000" stroke-width="0.5" stroke-dasharray="2,0.8"/>
<line x1="266.700" y1="33.500" x2="257.500" y2="33.500" stroke="#000" stroke-width="0.22"/>
<line x1="266.700" y1="72.000" x2="257.500" y2="72.000" stroke="#000" stroke-width="0.22"/>
<line x1="259.500" y1="33.500" x2="259.500" y2="72.000" stroke="#000" stroke-width="0.22"/>
<path d="M 259.50 33.50 L 260.10 36.70 L 258.90 36.70 Z" fill="#000"/>
<path d="M 259.50 72.00 L 258.90 68.80 L 260.10 68.80 Z" fill="#000"/>
<text x="258.18" y="52.75" font-family="'Segoe UI','Microsoft YaHei',sans-serif" font-size="3.0" text-anchor="middle" font-weight="normal" fill="#000" transform="rotate(-90 258.18 52.75)">11</text>
<line x1="355.800" y1="79.000" x2="365.000" y2="79.000" stroke="#000" stroke-width="0.22"/>
<line x1="355.800" y1="86.000" x2="365.000" y2="86.000" stroke="#000" stroke-width="0.22"/>
<line x1="363.000" y1="79.000" x2="363.000" y2="86.000" stroke="#000" stroke-width="0.22"/>
<path d="M 363.00 79.00 L 363.60 82.20 L 362.40 82.20 Z" fill="#000"/>
<path d="M 363.00 86.00 L 362.40 82.80 L 363.60 82.80 Z" fill="#000"/>
<text x="361.68" y="82.50" font-family="'Segoe UI','Microsoft YaHei',sans-serif" font-size="3.0" text-anchor="middle" font-weight="normal" fill="#000" transform="rotate(-90 361.68 82.50)">t=2.0</text>
<line x1="236.000" y1="86.800" x2="236.000" y2="98.000" stroke="#000" stroke-width="0.22"/>
<line x1="355.000" y1="86.800" x2="355.000" y2="98.000" stroke="#000" stroke-width="0.22"/>
<line x1="236.000" y1="96.000" x2="355.000" y2="96.000" stroke="#000" stroke-width="0.22"/>
<path d="M 236.00 96.00 L 239.20 95.40 L 239.20 96.60 Z" fill="#000"/>
<path d="M 355.00 96.00 L 351.80 96.60 L 351.80 95.40 Z" fill="#000"/>
<text x="295.50" y="94.68" font-family="'Segoe UI','Microsoft YaHei',sans-serif" font-size="3.0" text-anchor="middle" font-weight="normal" fill="#000">34</text>
<line x1="264.000" y1="33.500" x2="147.500" y2="118.000" stroke="#000" stroke-width="0.22"/>
<line x1="147.500" y1="118.000" x2="150.000" y2="118.000" stroke="#000" stroke-width="0.22"/>
<path d="M 264.00 33.50 L 266.24 31.14 L 266.94 32.11 Z" fill="#000"/>
<text x="150.90" y="119.10" font-family="'Segoe UI','Microsoft YaHei',sans-serif" font-size="3.0" text-anchor="start" font-weight="normal" fill="#000">支柱 Ø6×12(定位镜座)</text>
<text x="256.00" y="98.00" font-family="'Segoe UI','Microsoft YaHei',sans-serif" font-size="3.8" text-anchor="start" font-weight="bold" fill="#000">L–L 剖视 (3.5:1)</text>
<rect x="160.000" y="144.000" width="35.000" height="6.000" fill="none" stroke="#000" stroke-width="0.5"/>
<text x="167.00" y="147.90" font-family="'Segoe UI','Microsoft YaHei',sans-serif" font-size="3.2" text-anchor="middle" font-weight="normal" fill="#000">⊥</text>
<line x1="174.000" y1="144.000" x2="174.000" y2="150.000" stroke="#000" stroke-width="0.5"/>
<text x="180.00" y="147.90" font-family="'Segoe UI','Microsoft YaHei',sans-serif" font-size="3.2" text-anchor="middle" font-weight="normal" fill="#000">0.03</text>
<line x1="186.000" y1="144.000" x2="186.000" y2="150.000" stroke="#000" stroke-width="0.5"/>
<text x="190.50" y="147.90" font-family="'Segoe UI','Microsoft YaHei',sans-serif" font-size="3.2" text-anchor="middle" font-weight="normal" fill="#000">A</text>
<line x1="128.000" y1="111.500" x2="160.000" y2="147.000" stroke="#000" stroke-width="0.22"/>
<path d="M 128.00 111.50 L 124.80 112.10 L 124.80 110.90 Z" fill="#000"/>
<path d="M 44.00 111.50 L 42.60 109.10 L 45.40 109.10 Z" fill="#000"/>
<line x1="44.000" y1="109.100" x2="38.000" y2="101.500" stroke="#000" stroke-width="0.22"/>
<rect x="34.800" y="96.300" width="6.400" height="5.200" fill="none" stroke="#000" stroke-width="0.5"/>
<text x="38.00" y="100.50" font-family="'Segoe UI','Microsoft YaHei',sans-serif" font-size="3.6" text-anchor="middle" font-weight="bold" fill="#000">A</text>
<text x="20.00" y="240.00" font-family="'Segoe UI','Microsoft YaHei',sans-serif" font-size="4.6" text-anchor="start" font-weight="bold" fill="#000">技术要求</text>
<text x="20.00" y="247.00" font-family="'Segoe UI','Microsoft YaHei',sans-serif" font-size="3.4" text-anchor="start" font-weight="normal" fill="#000">1. 材料:6061-T6(GB/T 3880),铝板材,淬火人工时效状态;</text>
<text x="20.00" y="252.00" font-family="'Segoe UI','Microsoft YaHei',sans-serif" font-size="3.4" text-anchor="start" font-weight="normal" fill="#000">2. 热处理:无;</text>
<text x="20.00" y="257.00" font-family="'Segoe UI','Microsoft YaHei',sans-serif" font-size="3.4" text-anchor="start" font-weight="normal" fill="#000">3. 表面处理:表面导电氧化;沉孔与支柱定位面 Ra≤1.6</text>
<text x="20.00" y="262.00" font-family="'Segoe UI','Microsoft YaHei',sans-serif" font-size="3.4" text-anchor="start" font-weight="normal" fill="#000">4. 未注线性尺寸公差按 GB/T 1804-m;未注形位公差按 GB/T 1184-K;</text>
<text x="20.00" y="267.00" font-family="'Segoe UI','Microsoft YaHei',sans-serif" font-size="3.4" text-anchor="start" font-weight="normal" fill="#000">5. 未注圆角 R0.3;孔口倒角 C0.3;锐边倒钝 R0.2~0.4,去毛刺;</text>
<text x="20.00" y="272.00" font-family="'Segoe UI','Microsoft YaHei',sans-serif" font-size="3.4" text-anchor="start" font-weight="normal" fill="#000">6. 孔位公差 ±0.05;螺纹孔口倒角,攻丝后清屑;</text>
<text x="20.00" y="277.00" font-family="'Segoe UI','Microsoft YaHei',sans-serif" font-size="3.4" text-anchor="start" font-weight="normal" fill="#000">7. Ø22H7 沉孔对法兰面 A 垂直度 0.03(框格);</text>
<text x="20.00" y="282.00" font-family="'Segoe UI','Microsoft YaHei',sans-serif" font-size="3.4" text-anchor="start" font-weight="normal" fill="#000">8. 与 MEC-103A 窗位配作(同轴 ≤Ø0.05);</text>
<text x="20.00" y="287.00" font-family="'Segoe UI','Microsoft YaHei',sans-serif" font-size="3.4" text-anchor="start" font-weight="normal" fill="#000">9. 单件质量 ≤16 g。</text>
<rect x="228.000" y="193.000" width="180.000" height="6.500" fill="none" stroke="#000" stroke-width="0.4"/>
<line x1="236.000" y1="193.000" x2="236.000" y2="199.500" stroke="#000" stroke-width="0.3"/>
<line x1="258.000" y1="193.000" x2="258.000" y2="199.500" stroke="#000" stroke-width="0.3"/>
<line x1="348.000" y1="193.000" x2="348.000" y2="199.500" stroke="#000" stroke-width="0.3"/>
<text x="232.00" y="197.60" font-family="'Segoe UI','Microsoft YaHei',sans-serif" font-size="2.9" text-anchor="middle" font-weight="normal" fill="#000">A</text>
<text x="247.00" y="197.60" font-family="'Segoe UI','Microsoft YaHei',sans-serif" font-size="2.7" text-anchor="middle" font-weight="normal" fill="#000">2026-09</text>
<text x="261.00" y="197.60" font-family="'Segoe UI','Microsoft YaHei',sans-serif" font-size="2.7" text-anchor="start" font-weight="normal" fill="#000">v4 新增</text>
<text x="356.00" y="197.60" font-family="'Segoe UI','Microsoft YaHei',sans-serif" font-size="2.7" text-anchor="middle" font-weight="normal" fill="#000">设计</text>
</svg>