<svg xmlns="http://www.w3.org/2000/svg" width="420mm" height="297mm" viewBox="0 0 420 297">
<rect width="420.0" height="297.0" fill="#fff"/>
<rect x="8.000" y="8.000" width="404.000" height="281.000" fill="none" stroke="#000" stroke-width="0.4"/>
<rect x="12.000" y="12.000" width="396.000" height="273.000" fill="none" stroke="#000" stroke-width="1.0"/>
<line x1="210.000" y1="12.000" x2="210.000" y2="18.000" stroke="#000" stroke-width="0.5"/>
<line x1="210.000" y1="285.000" x2="210.000" y2="279.000" stroke="#000" stroke-width="0.5"/>
<line x1="12.000" y1="148.500" x2="18.000" y2="148.500" stroke="#000" stroke-width="0.5"/>
<line x1="408.000" y1="148.500" x2="402.000" y2="148.500" stroke="#000" stroke-width="0.5"/>
<rect x="228.000" y="233.000" width="180.000" height="52.000" fill="none" stroke="#000" stroke-width="1.0"/>
<line x1="228.000" y1="243.000" x2="408.000" y2="243.000" stroke="#000" stroke-width="0.4"/>
<line x1="228.000" y1="252.000" x2="408.000" y2="252.000" stroke="#000" stroke-width="0.4"/>
<line x1="228.000" y1="260.000" x2="408.000" y2="260.000" stroke="#000" stroke-width="0.4"/>
<line x1="228.000" y1="268.000" x2="408.000" y2="268.000" stroke="#000" stroke-width="0.4"/>
<line x1="228.000" y1="277.000" x2="408.000" y2="277.000" stroke="#000" stroke-width="0.4"/>
<line x1="312.000" y1="233.000" x2="312.000" y2="285.000" stroke="#000" stroke-width="0.5"/>
<line x1="344.000" y1="233.000" x2="344.000" y2="285.000" stroke="#000" stroke-width="0.5"/>
<text x="230.00" y="239.80" font-family="'Segoe UI','Microsoft YaHei',sans-serif" font-size="4.6" text-anchor="start" font-weight="bold" fill="#000">分离开关支架</text>
<text x="230.00" y="255.40" font-family="'Segoe UI','Microsoft YaHei',sans-serif" font-size="2.3" text-anchor="start" font-weight="normal" fill="#555">材料标记</text>
<text x="230.00" y="265.60" font-family="'Segoe UI','Microsoft YaHei',sans-serif" font-size="3.6" text-anchor="start" font-weight="normal" fill="#000">6061-T6 GB/T 3880</text>
<text x="230.00" y="280.20" font-family="'Segoe UI','Microsoft YaHei',sans-serif" font-size="2.8" text-anchor="start" font-weight="normal" fill="#555">阶段标记:试制　重量:12 g</text>
<text x="320.00" y="239.80" font-family="'Segoe UI','Microsoft YaHei',sans-serif" font-size="2.8" text-anchor="middle" font-weight="normal" fill="#555">设计</text>
<line x1="328.000" y1="240.400" x2="352.000" y2="240.400" stroke="#999" stroke-width="0.15"/>
<text x="352.00" y="239.80" font-family="'Segoe UI','Microsoft YaHei',sans-serif" font-size="2.5" text-anchor="middle" font-weight="normal" fill="#555">2026-09</text>
<line x1="312.000" y1="243.000" x2="344.000" y2="243.000" stroke="#000" stroke-width="0.3"/>
<text x="320.00" y="249.80" font-family="'Segoe UI','Microsoft YaHei',sans-serif" font-size="2.8" text-anchor="middle" font-weight="normal" fill="#555">制图</text>
<line x1="328.000" y1="250.400" x2="352.000" y2="250.400" stroke="#999" stroke-width="0.15"/>
<text x="352.00" y="249.80" font-family="'Segoe UI','Microsoft YaHei',sans-serif" font-size="2.5" text-anchor="middle" font-weight="normal" fill="#555"></text>
<line x1="312.000" y1="253.000" x2="344.000" y2="253.000" stroke="#000" stroke-width="0.3"/>
<text x="320.00" y="259.30" font-family="'Segoe UI','Microsoft YaHei',sans-serif" font-size="2.8" text-anchor="middle" font-weight="normal" fill="#555">审核</text>
<line x1="328.000" y1="259.900" x2="352.000" y2="259.900" stroke="#999" stroke-width="0.15"/>
<text x="352.00" y="259.30" font-family="'Segoe UI','Microsoft YaHei',sans-serif" font-size="2.5" text-anchor="middle" font-weight="normal" fill="#555"></text>
<line x1="312.000" y1="262.500" x2="344.000" y2="262.500" stroke="#000" stroke-width="0.3"/>
<text x="320.00" y="268.80" font-family="'Segoe UI','Microsoft YaHei',sans-serif" font-size="2.8" text-anchor="middle" font-weight="normal" fill="#555">批准</text>
<line x1="328.000" y1="269.400" x2="352.000" y2="269.400" stroke="#999" stroke-width="0.15"/>
<text x="352.00" y="268.80" font-family="'Segoe UI','Microsoft YaHei',sans-serif" font-size="2.5" text-anchor="middle" font-weight="normal" fill="#555"></text>
<line x1="312.000" y1="272.000" x2="344.000" y2="272.000" stroke="#000" stroke-width="0.3"/>
<text x="376.00" y="247.00" font-family="'Segoe UI','Microsoft YaHei',sans-serif" font-size="4.6" text-anchor="middle" font-weight="bold" fill="#000">PANO-3U-MEC-108</text>
<line x1="344.000" y1="251.000" x2="408.000" y2="251.000" stroke="#000" stroke-width="0.4"/>
<line x1="344.000" y1="277.000" x2="408.000" y2="277.000" stroke="#000" stroke-width="0.4"/>
<text x="354.00" y="280.20" font-family="'Segoe UI','Microsoft YaHei',sans-serif" font-size="2.3" text-anchor="middle" font-weight="normal" fill="#555">比例</text>
<text x="354.00" y="284.80" font-family="'Segoe UI','Microsoft YaHei',sans-serif" font-size="3.2" text-anchor="middle" font-weight="normal" fill="#000">1.5:1</text>
<line x1="364.000" y1="277.000" x2="364.000" y2="285.000" stroke="#000" stroke-width="0.4"/>
<text x="376.00" y="280.20" font-family="'Segoe UI','Microsoft YaHei',sans-serif" font-size="2.3" text-anchor="middle" font-weight="normal" fill="#555">数量</text>
<text x="376.00" y="284.80" font-family="'Segoe UI','Microsoft YaHei',sans-serif" font-size="3.2" text-anchor="middle" font-weight="normal" fill="#000">1</text>
<line x1="388.000" y1="277.000" x2="388.000" y2="285.000" stroke="#000" stroke-width="0.4"/>
<text x="398.00" y="280.20" font-family="'Segoe UI','Microsoft YaHei',sans-serif" font-size="2.3" text-anchor="middle" font-weight="normal" fill="#555">版本</text>
<text x="398.00" y="284.80" font-family="'Segoe UI','Microsoft YaHei',sans-serif" font-size="3.2" text-anchor="middle" font-weight="normal" fill="#000">A</text>
<text x="16.00" y="21.00" font-family="'Segoe UI','Microsoft YaHei',sans-serif" font-size="6" text-anchor="start" font-weight="bold" fill="#000">PANO-3U-MEC-108</text>
<text x="16.00" y="28.00" font-family="'Segoe UI','Microsoft YaHei',sans-serif" font-size="4.4" text-anchor="start" font-weight="normal" fill="#333">分离开关支架　|　生产图纸</text>
<polyline points="374.200,42.000 372.000,45.800" fill="none" stroke="#000" stroke-width="0.35" stroke-linejoin="round"/>
<polyline points="372.950,43.650 374.600,45.800" fill="none" stroke="#000" stroke-width="0.35" stroke-linejoin="round"/>
<text x="375.00" y="44.60" font-family="'Segoe UI','Microsoft YaHei',sans-serif" font-size="3.0" text-anchor="start" font-weight="normal" fill="#000">Ra 3.2</text>
<text x="372.00" y="36.50" font-family="'Segoe UI','Microsoft YaHei',sans-serif" font-size="3.4" text-anchor="start" font-weight="normal" fill="#000">其余</text>
<polyline points="44.000,56.000 209.000,56.000 209.000,188.000 44.000,188.000 44.000,56.000" fill="none" stroke="#000" stroke-width="0.8" stroke-linejoin="round"/>
<circle cx="60.500" cy="71.400" r="4.400" fill="none" stroke="#000" stroke-width="0.7"/>
<line x1="58.900" y1="71.400" x2="60.500" y2="71.400" stroke="#000066" stroke-width="0.18" stroke-dasharray="7,1.4,1.4,1.4"/>
<line x1="60.500" y1="71.400" x2="62.100" y2="71.400" stroke="#000066" stroke-width="0.18" stroke-dasharray="7,1.4,1.4,1.4"/>
<line x1="60.500" y1="69.800" x2="60.500" y2="71.400" stroke="#000066" stroke-width="0.18" stroke-dasharray="7,1.4,1.4,1.4"/>
<line x1="60.500" y1="71.400" x2="60.500" y2="73.000" stroke="#000066" stroke-width="0.18" stroke-dasharray="7,1.4,1.4,1.4"/>
<circle cx="60.50" cy="71.40" r="0.45" fill="#000066"/>
<circle cx="60.500" cy="115.400" r="4.400" fill="none" stroke="#000" stroke-width="0.7"/>
<line x1="58.900" y1="115.400" x2="60.500" y2="115.400" stroke="#000066" stroke-width="0.18" stroke-dasharray="7,1.4,1.4,1.4"/>
<line x1="60.500" y1="115.400" x2="62.100" y2="115.400" stroke="#000066" stroke-width="0.18" stroke-dasharray="7,1.4,1.4,1.4"/>
<line x1="60.500" y1="113.800" x2="60.500" y2="115.400" stroke="#000066" stroke-width="0.18" stroke-dasharray="7,1.4,1.4,1.4"/>
<line x1="60.500" y1="115.400" x2="60.500" y2="117.000" stroke="#000066" stroke-width="0.18" stroke-dasharray="7,1.4,1.4,1.4"/>
<circle cx="60.50" cy="115.40" r="0.45" fill="#000066"/>
<circle cx="60.500" cy="159.400" r="4.400" fill="none" stroke="#000" stroke-width="0.7"/>
<line x1="58.900" y1="159.400" x2="60.500" y2="159.400" stroke="#000066" stroke-width="0.18" stroke-dasharray="7,1.4,1.4,1.4"/>
<line x1="60.500" y1="159.400" x2="62.100" y2="159.400" stroke="#000066" stroke-width="0.18" stroke-dasharray="7,1.4,1.4,1.4"/>
<line x1="60.500" y1="157.800" x2="60.500" y2="159.400" stroke="#000066" stroke-width="0.18" stroke-dasharray="7,1.4,1.4,1.4"/>
<line x1="60.500" y1="159.400" x2="60.500" y2="161.000" stroke="#000066" stroke-width="0.18" stroke-dasharray="7,1.4,1.4,1.4"/>
<circle cx="60.50" cy="159.40" r="0.45" fill="#000066"/>
<circle cx="67.100" cy="91.200" r="2.420" fill="none" stroke="#000" stroke-width="0.55"/>
<line x1="65.700" y1="91.200" x2="67.100" y2="91.200" stroke="#000066" stroke-width="0.18" stroke-dasharray="7,1.4,1.4,1.4"/>
<line x1="67.100" y1="91.200" x2="68.500" y2="91.200" stroke="#000066" stroke-width="0.18" stroke-dasharray="7,1.4,1.4,1.4"/>
<line x1="67.100" y1="89.800" x2="67.100" y2="91.200" stroke="#000066" stroke-width="0.18" stroke-dasharray="7,1.4,1.4,1.4"/>
<line x1="67.100" y1="91.200" x2="67.100" y2="92.600" stroke="#000066" stroke-width="0.18" stroke-dasharray="7,1.4,1.4,1.4"/>
<circle cx="67.10" cy="91.20" r="0.45" fill="#000066"/>
<circle cx="67.100" cy="152.800" r="2.420" fill="none" stroke="#000" stroke-width="0.55"/>
<line x1="65.700" y1="152.800" x2="67.100" y2="152.800" stroke="#000066" stroke-width="0.18" stroke-dasharray="7,1.4,1.4,1.4"/>
<line x1="67.100" y1="152.800" x2="68.500" y2="152.800" stroke="#000066" stroke-width="0.18" stroke-dasharray="7,1.4,1.4,1.4"/>
<line x1="67.100" y1="151.400" x2="67.100" y2="152.800" stroke="#000066" stroke-width="0.18" stroke-dasharray="7,1.4,1.4,1.4"/>
<line x1="67.100" y1="152.800" x2="67.100" y2="154.200" stroke="#000066" stroke-width="0.18" stroke-dasharray="7,1.4,1.4,1.4"/>
<circle cx="67.10" cy="152.80" r="0.45" fill="#000066"/>
<polyline points="35.200,89.000 217.800,89.000" fill="none" stroke="#000066" stroke-width="0.18" stroke-dasharray="7,1.4,1.4,1.4" stroke-linejoin="round"/>
<polyline points="35.200,133.000 217.800,133.000" fill="none" stroke="#000066" stroke-width="0.18" stroke-dasharray="7,1.4,1.4,1.4" stroke-linejoin="round"/>
<polyline points="35.200,177.000 217.800,177.000" fill="none" stroke="#000066" stroke-width="0.18" stroke-dasharray="7,1.4,1.4,1.4" stroke-linejoin="round"/>
<line x1="44.000" y1="56.800" x2="44.000" y2="72.000" stroke="#000" stroke-width="0.22"/>
<line x1="209.000" y1="56.800" x2="209.000" y2="72.000" stroke="#000" stroke-width="0.22"/>
<line x1="44.000" y1="70.000" x2="209.000" y2="70.000" stroke="#000" stroke-width="0.22"/>
<path d="M 44.00 70.00 L 47.20 69.40 L 47.20 70.60 Z" fill="#000"/>
<path d="M 209.00 70.00 L 205.80 70.60 L 205.80 69.40 Z" fill="#000"/>
<text x="126.50" y="68.68" font-family="'Segoe UI','Microsoft YaHei',sans-serif" font-size="3.0" text-anchor="middle" font-weight="normal" fill="#000">75±0.3</text>
<line x1="43.200" y1="188.000" x2="30.000" y2="188.000" stroke="#000" stroke-width="0.22"/>
<line x1="43.200" y1="56.000" x2="30.000" y2="56.000" stroke="#000" stroke-width="0.22"/>
<line x1="32.000" y1="188.000" x2="32.000" y2="56.000" stroke="#000" stroke-width="0.22"/>
<path d="M 32.00 188.00 L 31.40 184.80 L 32.60 184.80 Z" fill="#000"/>
<path d="M 32.00 56.00 L 32.60 59.20 L 31.40 59.20 Z" fill="#000"/>
<text x="30.68" y="122.00" font-family="'Segoe UI','Microsoft YaHei',sans-serif" font-size="3.0" text-anchor="middle" font-weight="normal" fill="#000" transform="rotate(-90 30.68 122.00)">60±0.3</text>
<line x1="44.000" y1="72.200" x2="44.000" y2="81.400" stroke="#000" stroke-width="0.22"/>
<line x1="60.500" y1="72.200" x2="60.500" y2="81.400" stroke="#000" stroke-width="0.22"/>
<line x1="44.000" y1="79.400" x2="60.500" y2="79.400" stroke="#000" stroke-width="0.22"/>
<path d="M 44.00 79.40 L 47.20 78.80 L 47.20 80.00 Z" fill="#000"/>
<path d="M 60.50 79.40 L 57.30 80.00 L 57.30 78.80 Z" fill="#000"/>
<text x="52.25" y="78.08" font-family="'Segoe UI','Microsoft YaHei',sans-serif" font-size="3.0" text-anchor="middle" font-weight="normal" fill="#000">7.5±0.1</text>
<line x1="61.300" y1="71.400" x2="72.500" y2="71.400" stroke="#000" stroke-width="0.22"/>
<line x1="61.300" y1="159.400" x2="72.500" y2="159.400" stroke="#000" stroke-width="0.22"/>
<line x1="70.500" y1="71.400" x2="70.500" y2="159.400" stroke="#000" stroke-width="0.22"/>
<path d="M 70.50 71.40 L 71.10 74.60 L 69.90 74.60 Z" fill="#000"/>
<path d="M 70.50 159.40 L 69.90 156.20 L 71.10 156.20 Z" fill="#000"/>
<text x="69.18" y="115.40" font-family="'Segoe UI','Microsoft YaHei',sans-serif" font-size="3.0" text-anchor="middle" font-weight="normal" fill="#000" transform="rotate(-90 69.18 115.40)">40±0.05</text>
<line x1="43.200" y1="89.000" x2="22.000" y2="89.000" stroke="#000" stroke-width="0.22"/>
<line x1="43.200" y1="133.000" x2="22.000" y2="133.000" stroke="#000" stroke-width="0.22"/>
<line x1="24.000" y1="89.000" x2="24.000" y2="133.000" stroke="#000" stroke-width="0.22"/>
<path d="M 24.00 89.00 L 24.60 92.20 L 23.40 92.20 Z" fill="#000"/>
<path d="M 24.00 133.00 L 23.40 129.80 L 24.60 129.80 Z" fill="#000"/>
<text x="22.68" y="111.00" font-family="'Segoe UI','Microsoft YaHei',sans-serif" font-size="3.0" text-anchor="middle" font-weight="normal" fill="#000" transform="rotate(-90 22.68 111.00)">20±0.1</text>
<line x1="60.500" y1="71.400" x2="33.500" y2="64.000" stroke="#000" stroke-width="0.22"/>
<line x1="33.500" y1="64.000" x2="36.000" y2="64.000" stroke="#000" stroke-width="0.22"/>
<path d="M 60.50 71.40 L 63.74 71.67 L 63.43 72.82 Z" fill="#000"/>
<text x="36.90" y="65.20" font-family="'Segoe UI','Microsoft YaHei',sans-serif" font-size="3.0" text-anchor="start" font-weight="normal" fill="#000">3×Ø4 +0.05/0 通孔</text>
<text x="36.90" y="69.20" font-family="'Segoe UI','Microsoft YaHei',sans-serif" font-size="3.0" text-anchor="start" font-weight="normal" fill="#000">(微动开关滚轮杆,间距 20)</text>
<text x="36.90" y="73.20" font-family="'Segoe UI','Microsoft YaHei',sans-serif" font-size="3.0" text-anchor="start" font-weight="normal" fill="#000">对准 −Z 端板 S1/S2/S3</text>
<line x1="67.100" y1="152.800" x2="91.500" y2="140.000" stroke="#000" stroke-width="0.22"/>
<line x1="91.500" y1="140.000" x2="94.000" y2="140.000" stroke="#000" stroke-width="0.22"/>
<path d="M 67.10 152.80 L 64.54 154.82 L 63.99 153.76 Z" fill="#000"/>
<text x="94.90" y="141.20" font-family="'Segoe UI','Microsoft YaHei',sans-serif" font-size="3.0" text-anchor="start" font-weight="normal" fill="#000">2×Ø2.2 通孔 (10.5,16/44)</text>
<text x="94.90" y="145.20" font-family="'Segoe UI','Microsoft YaHei',sans-serif" font-size="3.0" text-anchor="start" font-weight="normal" fill="#000">→F10 M2×5</text>
<text x="125.40" y="200.00" font-family="'Segoe UI','Microsoft YaHei',sans-serif" font-size="3.8" text-anchor="start" font-weight="bold" fill="#000">展开图 (2.2:1)</text>
<polyline points="248.000,60.000 248.000,61.800 252.500,61.800 252.500,80.700 311.000,80.700 311.000,61.800 315.500,61.800 315.500,60.000 248.000,60.000" fill="none" stroke="#000" stroke-width="0.8" stroke-linejoin="round"/>
<rect x="251.000" y="66.000" width="7.500" height="4.500" fill="none" stroke="#000" stroke-width="0.5"/>
<line x1="254.750" y1="70.500" x2="254.750" y2="75.000" stroke="#000" stroke-width="0.4"/>
<circle cx="254.750" cy="75.600" r="1.800" fill="none" stroke="#000" stroke-width="0.5"/>
<line x1="248.000" y1="83.300" x2="248.000" y2="96.500" stroke="#000" stroke-width="0.22"/>
<line x1="315.500" y1="83.300" x2="315.500" y2="96.500" stroke="#000" stroke-width="0.22"/>
<line x1="248.000" y1="94.500" x2="315.500" y2="94.500" stroke="#000" stroke-width="0.22"/>
<path d="M 248.00 94.50 L 251.20 93.90 L 251.20 95.10 Z" fill="#000"/>
<path d="M 315.50 94.50 L 312.30 95.10 L 312.30 93.90 Z" fill="#000"/>
<text x="281.75" y="93.18" font-family="'Segoe UI','Microsoft YaHei',sans-serif" font-size="3.0" text-anchor="middle" font-weight="normal" fill="#000">30(成型宽)±0.3</text>
<line x1="316.300" y1="60.000" x2="325.500" y2="60.000" stroke="#000" stroke-width="0.22"/>
<line x1="316.300" y1="82.500" x2="325.500" y2="82.500" stroke="#000" stroke-width="0.22"/>
<line x1="323.500" y1="60.000" x2="323.500" y2="82.500" stroke="#000" stroke-width="0.22"/>
<path d="M 323.50 60.00 L 324.10 63.20 L 322.90 63.20 Z" fill="#000"/>
<path d="M 323.50 82.50 L 322.90 79.30 L 324.10 79.30 Z" fill="#000"/>
<text x="322.18" y="71.25" font-family="'Segoe UI','Microsoft YaHei',sans-serif" font-size="3.0" text-anchor="middle" font-weight="normal" fill="#000" transform="rotate(-90 322.18 71.25)">15±0.3</text>
<text x="284.00" y="76.50" font-family="'Segoe UI','Microsoft YaHei',sans-serif" font-size="2.8" text-anchor="start" font-weight="normal" fill="#000">微动开关×3(滚轮朝 −Z 端板)</text>
<text x="268.00" y="100.00" font-family="'Segoe UI','Microsoft YaHei',sans-serif" font-size="3.8" text-anchor="start" font-weight="bold" fill="#000">成型侧视 (2.2:1)</text>
<line x1="250.250" y1="61.800" x2="233.500" y2="132.000" stroke="#000" stroke-width="0.22"/>
<line x1="233.500" y1="132.000" x2="236.000" y2="132.000" stroke="#000" stroke-width="0.22"/>
<circle cx="250.25" cy="61.80" r="0.55" fill="#000"/>
<text x="236.90" y="133.10" font-family="'Segoe UI','Microsoft YaHei',sans-serif" font-size="3.0" text-anchor="start" font-weight="normal" fill="#000">折弯内 R1.0</text>
<text x="20.00" y="234.00" font-family="'Segoe UI','Microsoft YaHei',sans-serif" font-size="4.6" text-anchor="start" font-weight="bold" fill="#000">技术要求</text>
<text x="20.00" y="241.00" font-family="'Segoe UI','Microsoft YaHei',sans-serif" font-size="3.1" text-anchor="start" font-weight="normal" fill="#000">1. 材料:6061-T6(GB/T 3880),铝板材 t=1.2,淬火人工时效状态;</text>
<text x="20.00" y="245.20" font-family="'Segoe UI','Microsoft YaHei',sans-serif" font-size="3.1" text-anchor="start" font-weight="normal" fill="#000">2. 热处理:无;</text>
<text x="20.00" y="249.40" font-family="'Segoe UI','Microsoft YaHei',sans-serif" font-size="3.1" text-anchor="start" font-weight="normal" fill="#000">3. 表面处理:表面导电氧化;折弯内 R1.0</text>
<text x="20.00" y="253.60" font-family="'Segoe UI','Microsoft YaHei',sans-serif" font-size="3.1" text-anchor="start" font-weight="normal" fill="#000">4. 未注线性尺寸公差按 GB/T 1804-m;未注形位公差按 GB/T 1184-K;</text>
<text x="20.00" y="257.80" font-family="'Segoe UI','Microsoft YaHei',sans-serif" font-size="3.1" text-anchor="start" font-weight="normal" fill="#000">5. 未注圆角 R0.3;孔口倒角 C0.3;锐边倒钝 R0.2~0.4,去毛刺;</text>
<text x="20.00" y="262.00" font-family="'Segoe UI','Microsoft YaHei',sans-serif" font-size="3.1" text-anchor="start" font-weight="normal" fill="#000">6. 孔位公差 ±0.05;螺纹孔口倒角,攻丝后清屑;</text>
<text x="20.00" y="266.20" font-family="'Segoe UI','Microsoft YaHei',sans-serif" font-size="3.1" text-anchor="start" font-weight="normal" fill="#000">7. 微动开关 SPDT 接 NC 触点:压入=断开/弹出=闭合(v4 修正);</text>
<text x="20.00" y="270.40" font-family="'Segoe UI','Microsoft YaHei',sans-serif" font-size="3.1" text-anchor="start" font-weight="normal" fill="#000">8. 滚轮压入行程 0.5~1.0 mm(垫片调整,装 P-POD 模拟块实测);</text>
<text x="20.00" y="274.60" font-family="'Segoe UI','Microsoft YaHei',sans-serif" font-size="3.1" text-anchor="start" font-weight="normal" fill="#000">9. 单件质量 ≤12 g。</text>
<rect x="228.000" y="193.000" width="180.000" height="6.500" fill="none" stroke="#000" stroke-width="0.4"/>
<line x1="236.000" y1="193.000" x2="236.000" y2="199.500" stroke="#000" stroke-width="0.3"/>
<line x1="258.000" y1="193.000" x2="258.000" y2="199.500" stroke="#000" stroke-width="0.3"/>
<line x1="348.000" y1="193.000" x2="348.000" y2="199.500" stroke="#000" stroke-width="0.3"/>
<text x="232.00" y="197.60" font-family="'Segoe UI','Microsoft YaHei',sans-serif" font-size="2.9" text-anchor="middle" font-weight="normal" fill="#000">A</text>
<text x="247.00" y="197.60" font-family="'Segoe UI','Microsoft YaHei',sans-serif" font-size="2.7" text-anchor="middle" font-weight="normal" fill="#000">2026-09</text>
<text x="261.00" y="197.60" font-family="'Segoe UI','Microsoft YaHei',sans-serif" font-size="2.7" text-anchor="start" font-weight="normal" fill="#000">v4 评审版发布</text>
<text x="356.00" y="197.60" font-family="'Segoe UI','Microsoft YaHei',sans-serif" font-size="2.7" text-anchor="middle" font-weight="normal" fill="#000">设计</text>
</svg>