<svg xmlns="http://www.w3.org/2000/svg" width="420mm" height="297mm" viewBox="0 0 420 297">
<rect width="420.0" height="297.0" fill="#fff"/>
<rect x="8.000" y="8.000" width="404.000" height="281.000" fill="none" stroke="#000" stroke-width="0.4"/>
<rect x="12.000" y="12.000" width="396.000" height="273.000" fill="none" stroke="#000" stroke-width="1.0"/>
<line x1="210.000" y1="12.000" x2="210.000" y2="18.000" stroke="#000" stroke-width="0.5"/>
<line x1="210.000" y1="285.000" x2="210.000" y2="279.000" stroke="#000" stroke-width="0.5"/>
<line x1="12.000" y1="148.500" x2="18.000" y2="148.500" stroke="#000" stroke-width="0.5"/>
<line x1="408.000" y1="148.500" x2="402.000" y2="148.500" stroke="#000" stroke-width="0.5"/>
<rect x="228.000" y="233.000" width="180.000" height="52.000" fill="none" stroke="#000" stroke-width="1.0"/>
<line x1="228.000" y1="243.000" x2="408.000" y2="243.000" stroke="#000" stroke-width="0.4"/>
<line x1="228.000" y1="252.000" x2="408.000" y2="252.000" stroke="#000" stroke-width="0.4"/>
<line x1="228.000" y1="260.000" x2="408.000" y2="260.000" stroke="#000" stroke-width="0.4"/>
<line x1="228.000" y1="268.000" x2="408.000" y2="268.000" stroke="#000" stroke-width="0.4"/>
<line x1="228.000" y1="277.000" x2="408.000" y2="277.000" stroke="#000" stroke-width="0.4"/>
<line x1="312.000" y1="233.000" x2="312.000" y2="285.000" stroke="#000" stroke-width="0.5"/>
<line x1="344.000" y1="233.000" x2="344.000" y2="285.000" stroke="#000" stroke-width="0.5"/>
<text x="230.00" y="239.80" font-family="'Segoe UI','Microsoft YaHei',sans-serif" font-size="4.6" text-anchor="start" font-weight="bold" fill="#000">相机镜座</text>
<text x="230.00" y="255.40" font-family="'Segoe UI','Microsoft YaHei',sans-serif" font-size="2.3" text-anchor="start" font-weight="normal" fill="#555">材料标记</text>
<text x="230.00" y="265.60" font-family="'Segoe UI','Microsoft YaHei',sans-serif" font-size="3.6" text-anchor="start" font-weight="normal" fill="#000">6061-T6 GB/T 3880</text>
<text x="230.00" y="280.20" font-family="'Segoe UI','Microsoft YaHei',sans-serif" font-size="2.8" text-anchor="start" font-weight="normal" fill="#555">阶段标记:试制　重量:18 g</text>
<text x="320.00" y="239.80" font-family="'Segoe UI','Microsoft YaHei',sans-serif" font-size="2.8" text-anchor="middle" font-weight="normal" fill="#555">设计</text>
<line x1="328.000" y1="240.400" x2="352.000" y2="240.400" stroke="#999" stroke-width="0.15"/>
<text x="352.00" y="239.80" font-family="'Segoe UI','Microsoft YaHei',sans-serif" font-size="2.5" text-anchor="middle" font-weight="normal" fill="#555">2026-09</text>
<line x1="312.000" y1="243.000" x2="344.000" y2="243.000" stroke="#000" stroke-width="0.3"/>
<text x="320.00" y="249.80" font-family="'Segoe UI','Microsoft YaHei',sans-serif" font-size="2.8" text-anchor="middle" font-weight="normal" fill="#555">制图</text>
<line x1="328.000" y1="250.400" x2="352.000" y2="250.400" stroke="#999" stroke-width="0.15"/>
<text x="352.00" y="249.80" font-family="'Segoe UI','Microsoft YaHei',sans-serif" font-size="2.5" text-anchor="middle" font-weight="normal" fill="#555"></text>
<line x1="312.000" y1="253.000" x2="344.000" y2="253.000" stroke="#000" stroke-width="0.3"/>
<text x="320.00" y="259.30" font-family="'Segoe UI','Microsoft YaHei',sans-serif" font-size="2.8" text-anchor="middle" font-weight="normal" fill="#555">审核</text>
<line x1="328.000" y1="259.900" x2="352.000" y2="259.900" stroke="#999" stroke-width="0.15"/>
<text x="352.00" y="259.30" font-family="'Segoe UI','Microsoft YaHei',sans-serif" font-size="2.5" text-anchor="middle" font-weight="normal" fill="#555"></text>
<line x1="312.000" y1="262.500" x2="344.000" y2="262.500" stroke="#000" stroke-width="0.3"/>
<text x="320.00" y="268.80" font-family="'Segoe UI','Microsoft YaHei',sans-serif" font-size="2.8" text-anchor="middle" font-weight="normal" fill="#555">批准</text>
<line x1="328.000" y1="269.400" x2="352.000" y2="269.400" stroke="#999" stroke-width="0.15"/>
<text x="352.00" y="268.80" font-family="'Segoe UI','Microsoft YaHei',sans-serif" font-size="2.5" text-anchor="middle" font-weight="normal" fill="#555"></text>
<line x1="312.000" y1="272.000" x2="344.000" y2="272.000" stroke="#000" stroke-width="0.3"/>
<text x="376.00" y="247.00" font-family="'Segoe UI','Microsoft YaHei',sans-serif" font-size="4.6" text-anchor="middle" font-weight="bold" fill="#000">PANO-3U-MEC-107</text>
<line x1="344.000" y1="251.000" x2="408.000" y2="251.000" stroke="#000" stroke-width="0.4"/>
<line x1="344.000" y1="277.000" x2="408.000" y2="277.000" stroke="#000" stroke-width="0.4"/>
<text x="354.00" y="280.20" font-family="'Segoe UI','Microsoft YaHei',sans-serif" font-size="2.3" text-anchor="middle" font-weight="normal" fill="#555">比例</text>
<text x="354.00" y="284.80" font-family="'Segoe UI','Microsoft YaHei',sans-serif" font-size="3.2" text-anchor="middle" font-weight="normal" fill="#000">2:1</text>
<line x1="364.000" y1="277.000" x2="364.000" y2="285.000" stroke="#000" stroke-width="0.4"/>
<text x="376.00" y="280.20" font-family="'Segoe UI','Microsoft YaHei',sans-serif" font-size="2.3" text-anchor="middle" font-weight="normal" fill="#555">数量</text>
<text x="376.00" y="284.80" font-family="'Segoe UI','Microsoft YaHei',sans-serif" font-size="3.2" text-anchor="middle" font-weight="normal" fill="#000">2</text>
<line x1="388.000" y1="277.000" x2="388.000" y2="285.000" stroke="#000" stroke-width="0.4"/>
<text x="398.00" y="280.20" font-family="'Segoe UI','Microsoft YaHei',sans-serif" font-size="2.3" text-anchor="middle" font-weight="normal" fill="#555">版本</text>
<text x="398.00" y="284.80" font-family="'Segoe UI','Microsoft YaHei',sans-serif" font-size="3.2" text-anchor="middle" font-weight="normal" fill="#000">A</text>
<text x="16.00" y="21.00" font-family="'Segoe UI','Microsoft YaHei',sans-serif" font-size="6" text-anchor="start" font-weight="bold" fill="#000">PANO-3U-MEC-107</text>
<text x="16.00" y="28.00" font-family="'Segoe UI','Microsoft YaHei',sans-serif" font-size="4.4" text-anchor="start" font-weight="normal" fill="#333">相机镜座　|　生产图纸</text>
<polyline points="374.200,42.000 372.000,45.800" fill="none" stroke="#000" stroke-width="0.35" stroke-linejoin="round"/>
<polyline points="372.950,43.650 374.600,45.800" fill="none" stroke="#000" stroke-width="0.35" stroke-linejoin="round"/>
<text x="375.00" y="44.60" font-family="'Segoe UI','Microsoft YaHei',sans-serif" font-size="3.0" text-anchor="start" font-weight="normal" fill="#000">Ra 3.2</text>
<text x="372.00" y="36.50" font-family="'Segoe UI','Microsoft YaHei',sans-serif" font-size="3.4" text-anchor="start" font-weight="normal" fill="#000">其余</text>
<line x1="70.000" y1="192.000" x2="70.000" y2="128.000" stroke="#000" stroke-width="0.8"/>
<polyline points="70.000,128.000 82.000,128.000 82.000,136.000 110.000,136.000 110.000,138.000 122.000,138.000" fill="none" stroke="#000" stroke-width="0.8" stroke-linejoin="round"/>
<polyline points="70.000,192.000 82.000,192.000 82.000,184.000 110.000,184.000 110.000,182.000 122.000,182.000" fill="none" stroke="#000" stroke-width="0.8" stroke-linejoin="round"/>
<polyline points="122.000,147.000 110.000,147.000 110.000,145.000 86.000,145.000 86.000,147.000 70.000,147.000" fill="none" stroke="#000" stroke-width="0.8" stroke-linejoin="round"/>
<polyline points="122.000,173.000 110.000,173.000 110.000,175.000 86.000,175.000 86.000,173.000 70.000,173.000" fill="none" stroke="#000" stroke-width="0.8" stroke-linejoin="round"/>
<line x1="111.000" y1="146.000" x2="112.000" y2="147.000" stroke="#000" stroke-width="0.3"/>
<line x1="111.000" y1="174.000" x2="112.000" y2="173.000" stroke="#000" stroke-width="0.3"/>
<line x1="113.000" y1="146.000" x2="114.000" y2="147.000" stroke="#000" stroke-width="0.3"/>
<line x1="113.000" y1="174.000" x2="114.000" y2="173.000" stroke="#000" stroke-width="0.3"/>
<line x1="115.000" y1="146.000" x2="116.000" y2="147.000" stroke="#000" stroke-width="0.3"/>
<line x1="115.000" y1="174.000" x2="116.000" y2="173.000" stroke="#000" stroke-width="0.3"/>
<line x1="117.000" y1="146.000" x2="118.000" y2="147.000" stroke="#000" stroke-width="0.3"/>
<line x1="117.000" y1="174.000" x2="118.000" y2="173.000" stroke="#000" stroke-width="0.3"/>
<line x1="119.000" y1="146.000" x2="120.000" y2="147.000" stroke="#000" stroke-width="0.3"/>
<line x1="119.000" y1="174.000" x2="120.000" y2="173.000" stroke="#000" stroke-width="0.3"/>
<line x1="121.000" y1="146.000" x2="122.000" y2="147.000" stroke="#000" stroke-width="0.3"/>
<line x1="121.000" y1="174.000" x2="122.000" y2="173.000" stroke="#000" stroke-width="0.3"/>
<clipPath id="g1"><polygon points="70.000,128.000 82.000,128.000 82.000,136.000 110.000,136.000 110.000,138.000 122.000,138.000 122.000,146.000 112.000,146.000"/></clipPath>
<g clip-path="url(#g1)" stroke="#000" stroke-width="0.18">
<line x1="51.09" y1="136.66" x2="95.66" y2="92.09"/>
<line x1="52.22" y1="137.79" x2="96.79" y2="93.22"/>
<line x1="53.35" y1="138.92" x2="97.92" y2="94.35"/>
<line x1="54.48" y1="140.05" x2="99.05" y2="95.48"/>
<line x1="55.61" y1="141.18" x2="100.18" y2="96.61"/>
<line x1="56.75" y1="142.31" x2="101.31" y2="97.75"/>
<line x1="57.88" y1="143.44" x2="102.44" y2="98.88"/>
<line x1="59.01" y1="144.58" x2="103.58" y2="100.01"/>
<line x1="60.14" y1="145.71" x2="104.71" y2="101.14"/>
<line x1="61.27" y1="146.84" x2="105.84" y2="102.27"/>
<line x1="62.40" y1="147.97" x2="106.97" y2="103.40"/>
<line x1="63.53" y1="149.10" x2="108.10" y2="104.53"/>
<line x1="64.67" y1="150.23" x2="109.23" y2="105.67"/>
<line x1="65.80" y1="151.36" x2="110.36" y2="106.80"/>
<line x1="66.93" y1="152.50" x2="111.50" y2="107.93"/>
<line x1="68.06" y1="153.63" x2="112.63" y2="109.06"/>
<line x1="69.19" y1="154.76" x2="113.76" y2="110.19"/>
<line x1="70.32" y1="155.89" x2="114.89" y2="111.32"/>
<line x1="71.45" y1="157.02" x2="116.02" y2="112.45"/>
<line x1="72.59" y1="158.15" x2="117.15" y2="113.59"/>
<line x1="73.72" y1="159.28" x2="118.28" y2="114.72"/>
<line x1="74.85" y1="160.41" x2="119.41" y2="115.85"/>
<line x1="75.98" y1="161.55" x2="120.55" y2="116.98"/>
<line x1="77.11" y1="162.68" x2="121.68" y2="118.11"/>
<line x1="78.24" y1="163.81" x2="122.81" y2="119.24"/>
<line x1="79.37" y1="164.94" x2="123.94" y2="120.37"/>
<line x1="80.50" y1="166.07" x2="125.07" y2="121.50"/>
<line x1="81.64" y1="167.20" x2="126.20" y2="122.64"/>
<line x1="82.77" y1="168.33" x2="127.33" y2="123.77"/>
<line x1="83.90" y1="169.47" x2="128.47" y2="124.90"/>
<line x1="85.03" y1="170.60" x2="129.60" y2="126.03"/>
<line x1="86.16" y1="171.73" x2="130.73" y2="127.16"/>
<line x1="87.29" y1="172.86" x2="131.86" y2="128.29"/>
<line x1="88.42" y1="173.99" x2="132.99" y2="129.42"/>
<line x1="89.56" y1="175.12" x2="134.12" y2="130.56"/>
<line x1="90.69" y1="176.25" x2="135.25" y2="131.69"/>
<line x1="91.82" y1="177.39" x2="136.39" y2="132.82"/>
<line x1="92.95" y1="178.52" x2="137.52" y2="133.95"/>
<line x1="94.08" y1="179.65" x2="138.65" y2="135.08"/>
<line x1="95.21" y1="180.78" x2="139.78" y2="136.21"/>
</g>
<clipPath id="g2"><polygon points="70.000,192.000 82.000,192.000 82.000,184.000 110.000,184.000 110.000,182.000 122.000,182.000 122.000,174.000 112.000,174.000"/></clipPath>
<g clip-path="url(#g2)" stroke="#000" stroke-width="0.18">
<line x1="51.09" y1="182.66" x2="95.66" y2="138.09"/>
<line x1="52.22" y1="183.79" x2="96.79" y2="139.22"/>
<line x1="53.35" y1="184.92" x2="97.92" y2="140.35"/>
<line x1="54.48" y1="186.05" x2="99.05" y2="141.48"/>
<line x1="55.61" y1="187.18" x2="100.18" y2="142.61"/>
<line x1="56.75" y1="188.31" x2="101.31" y2="143.75"/>
<line x1="57.88" y1="189.44" x2="102.44" y2="144.88"/>
<line x1="59.01" y1="190.58" x2="103.58" y2="146.01"/>
<line x1="60.14" y1="191.71" x2="104.71" y2="147.14"/>
<line x1="61.27" y1="192.84" x2="105.84" y2="148.27"/>
<line x1="62.40" y1="193.97" x2="106.97" y2="149.40"/>
<line x1="63.53" y1="195.10" x2="108.10" y2="150.53"/>
<line x1="64.67" y1="196.23" x2="109.23" y2="151.67"/>
<line x1="65.80" y1="197.36" x2="110.36" y2="152.80"/>
<line x1="66.93" y1="198.50" x2="111.50" y2="153.93"/>
<line x1="68.06" y1="199.63" x2="112.63" y2="155.06"/>
<line x1="69.19" y1="200.76" x2="113.76" y2="156.19"/>
<line x1="70.32" y1="201.89" x2="114.89" y2="157.32"/>
<line x1="71.45" y1="203.02" x2="116.02" y2="158.45"/>
<line x1="72.59" y1="204.15" x2="117.15" y2="159.59"/>
<line x1="73.72" y1="205.28" x2="118.28" y2="160.72"/>
<line x1="74.85" y1="206.41" x2="119.41" y2="161.85"/>
<line x1="75.98" y1="207.55" x2="120.55" y2="162.98"/>
<line x1="77.11" y1="208.68" x2="121.68" y2="164.11"/>
<line x1="78.24" y1="209.81" x2="122.81" y2="165.24"/>
<line x1="79.37" y1="210.94" x2="123.94" y2="166.37"/>
<line x1="80.50" y1="212.07" x2="125.07" y2="167.50"/>
<line x1="81.64" y1="213.20" x2="126.20" y2="168.64"/>
<line x1="82.77" y1="214.33" x2="127.33" y2="169.77"/>
<line x1="83.90" y1="215.47" x2="128.47" y2="170.90"/>
<line x1="85.03" y1="216.60" x2="129.60" y2="172.03"/>
<line x1="86.16" y1="217.73" x2="130.73" y2="173.16"/>
<line x1="87.29" y1="218.86" x2="131.86" y2="174.29"/>
<line x1="88.42" y1="219.99" x2="132.99" y2="175.42"/>
<line x1="89.56" y1="221.12" x2="134.12" y2="176.56"/>
<line x1="90.69" y1="222.25" x2="135.25" y2="177.69"/>
<line x1="91.82" y1="223.39" x2="136.39" y2="178.82"/>
<line x1="92.95" y1="224.52" x2="137.52" y2="179.95"/>
<line x1="94.08" y1="225.65" x2="138.65" y2="181.08"/>
<line x1="95.21" y1="226.78" x2="139.78" y2="182.21"/>
</g>
<clipPath id="g3"><polygon points="86.000,147.000 110.000,147.000 110.000,145.000 86.000,145.000"/></clipPath>
<g clip-path="url(#g3)" stroke="#000" stroke-width="0.18">
<line x1="75.34" y1="146.03" x2="98.03" y2="123.34"/>
<line x1="76.47" y1="147.16" x2="99.16" y2="124.47"/>
<line x1="77.61" y1="148.29" x2="100.29" y2="125.61"/>
<line x1="78.74" y1="149.42" x2="101.42" y2="126.74"/>
<line x1="79.87" y1="150.55" x2="102.55" y2="127.87"/>
<line x1="81.00" y1="151.69" x2="103.69" y2="129.00"/>
<line x1="82.13" y1="152.82" x2="104.82" y2="130.13"/>
<line x1="83.26" y1="153.95" x2="105.95" y2="131.26"/>
<line x1="84.39" y1="155.08" x2="107.08" y2="132.39"/>
<line x1="85.53" y1="156.21" x2="108.21" y2="133.53"/>
<line x1="86.66" y1="157.34" x2="109.34" y2="134.66"/>
<line x1="87.79" y1="158.47" x2="110.47" y2="135.79"/>
<line x1="88.92" y1="159.61" x2="111.61" y2="136.92"/>
<line x1="90.05" y1="160.74" x2="112.74" y2="138.05"/>
<line x1="91.18" y1="161.87" x2="113.87" y2="139.18"/>
<line x1="92.31" y1="163.00" x2="115.00" y2="140.31"/>
<line x1="93.45" y1="164.13" x2="116.13" y2="141.45"/>
<line x1="94.58" y1="165.26" x2="117.26" y2="142.58"/>
<line x1="95.71" y1="166.39" x2="118.39" y2="143.71"/>
<line x1="96.84" y1="167.53" x2="119.53" y2="144.84"/>
<line x1="97.97" y1="168.66" x2="120.66" y2="145.97"/>
</g>
<clipPath id="g4"><polygon points="86.000,173.000 110.000,173.000 110.000,175.000 86.000,175.000"/></clipPath>
<g clip-path="url(#g4)" stroke="#000" stroke-width="0.18">
<line x1="75.34" y1="174.03" x2="98.03" y2="151.34"/>
<line x1="76.47" y1="175.16" x2="99.16" y2="152.47"/>
<line x1="77.61" y1="176.29" x2="100.29" y2="153.61"/>
<line x1="78.74" y1="177.42" x2="101.42" y2="154.74"/>
<line x1="79.87" y1="178.55" x2="102.55" y2="155.87"/>
<line x1="81.00" y1="179.69" x2="103.69" y2="157.00"/>
<line x1="82.13" y1="180.82" x2="104.82" y2="158.13"/>
<line x1="83.26" y1="181.95" x2="105.95" y2="159.26"/>
<line x1="84.39" y1="183.08" x2="107.08" y2="160.39"/>
<line x1="85.53" y1="184.21" x2="108.21" y2="161.53"/>
<line x1="86.66" y1="185.34" x2="109.34" y2="162.66"/>
<line x1="87.79" y1="186.47" x2="110.47" y2="163.79"/>
<line x1="88.92" y1="187.61" x2="111.61" y2="164.92"/>
<line x1="90.05" y1="188.74" x2="112.74" y2="166.05"/>
<line x1="91.18" y1="189.87" x2="113.87" y2="167.18"/>
<line x1="92.31" y1="191.00" x2="115.00" y2="168.31"/>
<line x1="93.45" y1="192.13" x2="116.13" y2="169.45"/>
<line x1="94.58" y1="193.26" x2="117.26" y2="170.58"/>
<line x1="95.71" y1="194.39" x2="118.39" y2="171.71"/>
<line x1="96.84" y1="195.53" x2="119.53" y2="172.84"/>
<line x1="97.97" y1="196.66" x2="120.66" y2="173.97"/>
</g>
<polyline points="58.000,160.000 134.000,160.000" fill="none" stroke="#000066" stroke-width="0.18" stroke-dasharray="7,1.4,1.4,1.4" stroke-linejoin="round"/>
<line x1="69.200" y1="128.000" x2="56.000" y2="128.000" stroke="#000" stroke-width="0.22"/>
<line x1="69.200" y1="192.000" x2="56.000" y2="192.000" stroke="#000" stroke-width="0.22"/>
<line x1="58.000" y1="128.000" x2="58.000" y2="192.000" stroke="#000" stroke-width="0.22"/>
<path d="M 58.00 128.00 L 58.60 131.20 L 57.40 131.20 Z" fill="#000"/>
<path d="M 58.00 192.00 L 57.40 188.80 L 58.60 188.80 Z" fill="#000"/>
<text x="56.68" y="160.00" font-family="'Segoe UI','Microsoft YaHei',sans-serif" font-size="3.0" text-anchor="middle" font-weight="normal" fill="#000" transform="rotate(-90 56.68 160.00)">Ø32</text>
<line x1="70.000" y1="192.800" x2="70.000" y2="206.000" stroke="#000" stroke-width="0.22"/>
<line x1="122.000" y1="192.800" x2="122.000" y2="206.000" stroke="#000" stroke-width="0.22"/>
<line x1="70.000" y1="204.000" x2="122.000" y2="204.000" stroke="#000" stroke-width="0.22"/>
<path d="M 70.00 204.00 L 73.20 203.40 L 73.20 204.60 Z" fill="#000"/>
<path d="M 122.00 204.00 L 118.80 204.60 L 118.80 203.40 Z" fill="#000"/>
<text x="96.00" y="202.68" font-family="'Segoe UI','Microsoft YaHei',sans-serif" font-size="3.0" text-anchor="middle" font-weight="normal" fill="#000">26±0.1</text>
<line x1="70.000" y1="127.200" x2="70.000" y2="120.000" stroke="#000" stroke-width="0.22"/>
<line x1="82.000" y1="127.200" x2="82.000" y2="120.000" stroke="#000" stroke-width="0.22"/>
<line x1="70.000" y1="122.000" x2="82.000" y2="122.000" stroke="#000" stroke-width="0.22"/>
<path d="M 70.00 122.00 L 73.20 121.40 L 73.20 122.60 Z" fill="#000"/>
<path d="M 82.00 122.00 L 78.80 122.60 L 78.80 121.40 Z" fill="#000"/>
<text x="76.00" y="120.68" font-family="'Segoe UI','Microsoft YaHei',sans-serif" font-size="3.0" text-anchor="middle" font-weight="normal" fill="#000">6±0.1</text>
<line x1="110.000" y1="127.200" x2="110.000" y2="120.000" stroke="#000" stroke-width="0.22"/>
<line x1="122.000" y1="127.200" x2="122.000" y2="120.000" stroke="#000" stroke-width="0.22"/>
<line x1="110.000" y1="122.000" x2="122.000" y2="122.000" stroke="#000" stroke-width="0.22"/>
<path d="M 110.00 122.00 L 113.20 121.40 L 113.20 122.60 Z" fill="#000"/>
<path d="M 122.00 122.00 L 118.80 122.60 L 118.80 121.40 Z" fill="#000"/>
<text x="116.00" y="120.68" font-family="'Segoe UI','Microsoft YaHei',sans-serif" font-size="3.0" text-anchor="middle" font-weight="normal" fill="#000">6±0.1</text>
<line x1="122.800" y1="138.000" x2="138.000" y2="138.000" stroke="#000" stroke-width="0.22"/>
<line x1="122.800" y1="182.000" x2="138.000" y2="182.000" stroke="#000" stroke-width="0.22"/>
<line x1="136.000" y1="138.000" x2="136.000" y2="182.000" stroke="#000" stroke-width="0.22"/>
<path d="M 136.00 138.00 L 136.60 141.20 L 135.40 141.20 Z" fill="#000"/>
<path d="M 136.00 182.00 L 135.40 178.80 L 136.60 178.80 Z" fill="#000"/>
<text x="134.68" y="160.00" font-family="'Segoe UI','Microsoft YaHei',sans-serif" font-size="3.0" text-anchor="middle" font-weight="normal" fill="#000" transform="rotate(-90 134.68 160.00)">Ø22 h6(-0.013/0)</text>
<line x1="85.200" y1="147.000" x2="66.000" y2="147.000" stroke="#000" stroke-width="0.22"/>
<line x1="85.200" y1="173.000" x2="66.000" y2="173.000" stroke="#000" stroke-width="0.22"/>
<line x1="68.000" y1="147.000" x2="68.000" y2="173.000" stroke="#000" stroke-width="0.22"/>
<path d="M 68.00 147.00 L 68.60 150.20 L 67.40 150.20 Z" fill="#000"/>
<path d="M 68.00 173.00 L 67.40 169.80 L 68.60 169.80 Z" fill="#000"/>
<text x="66.68" y="160.00" font-family="'Segoe UI','Microsoft YaHei',sans-serif" font-size="3.0" text-anchor="middle" font-weight="normal" fill="#000" transform="rotate(-90 66.68 160.00)">Ø13 +0.1/0</text>
<line x1="81.200" y1="152.000" x2="54.000" y2="152.000" stroke="#000" stroke-width="0.22"/>
<line x1="81.200" y1="168.000" x2="54.000" y2="168.000" stroke="#000" stroke-width="0.22"/>
<line x1="56.000" y1="152.000" x2="56.000" y2="168.000" stroke="#000" stroke-width="0.22"/>
<path d="M 56.00 152.00 L 56.60 155.20 L 55.40 155.20 Z" fill="#000"/>
<path d="M 56.00 168.00 L 55.40 164.80 L 56.60 164.80 Z" fill="#000"/>
<text x="54.68" y="160.00" font-family="'Segoe UI','Microsoft YaHei',sans-serif" font-size="3.0" text-anchor="middle" font-weight="normal" fill="#000" transform="rotate(-90 54.68 160.00)">Ø8 +0.05/0</text>
<line x1="86.000" y1="144.200" x2="86.000" y2="123.000" stroke="#000" stroke-width="0.22"/>
<line x1="122.000" y1="144.200" x2="122.000" y2="123.000" stroke="#000" stroke-width="0.22"/>
<line x1="86.000" y1="125.000" x2="122.000" y2="125.000" stroke="#000" stroke-width="0.22"/>
<path d="M 86.00 125.00 L 89.20 124.40 L 89.20 125.60 Z" fill="#000"/>
<path d="M 122.00 125.00 L 118.80 125.60 L 118.80 124.40 Z" fill="#000"/>
<text x="104.00" y="123.68" font-family="'Segoe UI','Microsoft YaHei',sans-serif" font-size="3.0" text-anchor="middle" font-weight="normal" fill="#000">M14×0.5-6H 深6</text>
<line x1="70.600" y1="152.000" x2="37.500" y2="108.000" stroke="#000" stroke-width="0.22"/>
<line x1="37.500" y1="108.000" x2="40.000" y2="108.000" stroke="#000" stroke-width="0.22"/>
<path d="M 70.60 152.00 L 73.00 154.20 L 72.04 154.92 Z" fill="#000"/>
<text x="40.90" y="109.10" font-family="'Segoe UI','Microsoft YaHei',sans-serif" font-size="3.0" text-anchor="start" font-weight="normal" fill="#000">IR-cut 槽 Ø8×0.55 +0.05/0</text>
<line x1="76.000" y1="128.000" x2="57.500" y2="76.000" stroke="#000" stroke-width="0.22"/>
<line x1="57.500" y1="76.000" x2="60.000" y2="76.000" stroke="#000" stroke-width="0.22"/>
<circle cx="76.00" cy="128.00" r="0.55" fill="#000"/>
<text x="60.90" y="77.10" font-family="'Segoe UI','Microsoft YaHei',sans-serif" font-size="3.0" text-anchor="start" font-weight="normal" fill="#000">4×M2-6H 沉头孔孔位在左视图</text>
<polyline points="70.200,144.000 68.000,147.800" fill="none" stroke="#000" stroke-width="0.35" stroke-linejoin="round"/>
<polyline points="68.950,145.650 70.600,147.800" fill="none" stroke="#000" stroke-width="0.35" stroke-linejoin="round"/>
<text x="71.00" y="146.60" font-family="'Segoe UI','Microsoft YaHei',sans-serif" font-size="2.8" text-anchor="start" font-weight="normal" fill="#000">Ra 1.6</text>
<polyline points="126.200,144.000 124.000,147.800" fill="none" stroke="#000" stroke-width="0.35" stroke-linejoin="round"/>
<polyline points="124.950,145.650 126.600,147.800" fill="none" stroke="#000" stroke-width="0.35" stroke-linejoin="round"/>
<text x="127.00" y="146.60" font-family="'Segoe UI','Microsoft YaHei',sans-serif" font-size="2.8" text-anchor="start" font-weight="normal" fill="#000">Ra 0.8</text>
<text x="96.00" y="202.00" font-family="'Segoe UI','Microsoft YaHei',sans-serif" font-size="3.8" text-anchor="start" font-weight="bold" fill="#000">全剖主视图 (2:1)</text>
<circle cx="200.000" cy="120.000" r="32.000" fill="none" stroke="#000" stroke-width="0.8"/>
<circle cx="200.000" cy="120.000" r="22.000" fill="none" stroke="#000" stroke-width="0.6"/>
<circle cx="200.000" cy="120.000" r="13.000" fill="none" stroke="#000" stroke-width="0.6"/>
<circle cx="200.000" cy="120.000" r="8.000" fill="none" stroke="#000" stroke-width="0.4" stroke-dasharray="2,0.8"/>
<circle cx="219.799" cy="100.201" r="2.200" fill="none" stroke="#000" stroke-width="0.55"/>
<line x1="218.399" y1="100.201" x2="219.799" y2="100.201" stroke="#000066" stroke-width="0.18" stroke-dasharray="7,1.4,1.4,1.4"/>
<line x1="219.799" y1="100.201" x2="221.199" y2="100.201" stroke="#000066" stroke-width="0.18" stroke-dasharray="7,1.4,1.4,1.4"/>
<line x1="219.799" y1="98.801" x2="219.799" y2="100.201" stroke="#000066" stroke-width="0.18" stroke-dasharray="7,1.4,1.4,1.4"/>
<line x1="219.799" y1="100.201" x2="219.799" y2="101.601" stroke="#000066" stroke-width="0.18" stroke-dasharray="7,1.4,1.4,1.4"/>
<circle cx="219.80" cy="100.20" r="0.45" fill="#000066"/>
<circle cx="180.201" cy="100.201" r="2.200" fill="none" stroke="#000" stroke-width="0.55"/>
<line x1="178.801" y1="100.201" x2="180.201" y2="100.201" stroke="#000066" stroke-width="0.18" stroke-dasharray="7,1.4,1.4,1.4"/>
<line x1="180.201" y1="100.201" x2="181.601" y2="100.201" stroke="#000066" stroke-width="0.18" stroke-dasharray="7,1.4,1.4,1.4"/>
<line x1="180.201" y1="98.801" x2="180.201" y2="100.201" stroke="#000066" stroke-width="0.18" stroke-dasharray="7,1.4,1.4,1.4"/>
<line x1="180.201" y1="100.201" x2="180.201" y2="101.601" stroke="#000066" stroke-width="0.18" stroke-dasharray="7,1.4,1.4,1.4"/>
<circle cx="180.20" cy="100.20" r="0.45" fill="#000066"/>
<circle cx="180.201" cy="139.799" r="2.200" fill="none" stroke="#000" stroke-width="0.55"/>
<line x1="178.801" y1="139.799" x2="180.201" y2="139.799" stroke="#000066" stroke-width="0.18" stroke-dasharray="7,1.4,1.4,1.4"/>
<line x1="180.201" y1="139.799" x2="181.601" y2="139.799" stroke="#000066" stroke-width="0.18" stroke-dasharray="7,1.4,1.4,1.4"/>
<line x1="180.201" y1="138.399" x2="180.201" y2="139.799" stroke="#000066" stroke-width="0.18" stroke-dasharray="7,1.4,1.4,1.4"/>
<line x1="180.201" y1="139.799" x2="180.201" y2="141.199" stroke="#000066" stroke-width="0.18" stroke-dasharray="7,1.4,1.4,1.4"/>
<circle cx="180.20" cy="139.80" r="0.45" fill="#000066"/>
<circle cx="219.799" cy="139.799" r="2.200" fill="none" stroke="#000" stroke-width="0.55"/>
<line x1="218.399" y1="139.799" x2="219.799" y2="139.799" stroke="#000066" stroke-width="0.18" stroke-dasharray="7,1.4,1.4,1.4"/>
<line x1="219.799" y1="139.799" x2="221.199" y2="139.799" stroke="#000066" stroke-width="0.18" stroke-dasharray="7,1.4,1.4,1.4"/>
<line x1="219.799" y1="138.399" x2="219.799" y2="139.799" stroke="#000066" stroke-width="0.18" stroke-dasharray="7,1.4,1.4,1.4"/>
<line x1="219.799" y1="139.799" x2="219.799" y2="141.199" stroke="#000066" stroke-width="0.18" stroke-dasharray="7,1.4,1.4,1.4"/>
<circle cx="219.80" cy="139.80" r="0.45" fill="#000066"/>
<line x1="197.000" y1="120.000" x2="200.000" y2="120.000" stroke="#000066" stroke-width="0.18" stroke-dasharray="7,1.4,1.4,1.4"/>
<line x1="200.000" y1="120.000" x2="203.000" y2="120.000" stroke="#000066" stroke-width="0.18" stroke-dasharray="7,1.4,1.4,1.4"/>
<line x1="200.000" y1="117.000" x2="200.000" y2="120.000" stroke="#000066" stroke-width="0.18" stroke-dasharray="7,1.4,1.4,1.4"/>
<line x1="200.000" y1="120.000" x2="200.000" y2="123.000" stroke="#000066" stroke-width="0.18" stroke-dasharray="7,1.4,1.4,1.4"/>
<circle cx="200.00" cy="120.00" r="0.45" fill="#000066"/>
<line x1="219.800" y1="100.200" x2="259.500" y2="64.000" stroke="#000" stroke-width="0.22"/>
<line x1="259.500" y1="64.000" x2="262.000" y2="64.000" stroke="#000" stroke-width="0.22"/>
<path d="M 219.80 100.20 L 217.84 102.80 L 217.03 101.91 Z" fill="#000"/>
<text x="262.90" y="65.20" font-family="'Segoe UI','Microsoft YaHei',sans-serif" font-size="3.0" text-anchor="start" font-weight="normal" fill="#000">4×M2-6H 沉头孔</text>
<text x="262.90" y="69.20" font-family="'Segoe UI','Microsoft YaHei',sans-serif" font-size="3.0" text-anchor="start" font-weight="normal" fill="#000">沉头 Ø4.3×90° 深 2.5</text>
<text x="262.90" y="73.20" font-family="'Segoe UI','Microsoft YaHei',sans-serif" font-size="3.0" text-anchor="start" font-weight="normal" fill="#000">分布圆 Ø28±0.05(45° 均布)</text>
<text x="200.00" y="168.00" font-family="'Segoe UI','Microsoft YaHei',sans-serif" font-size="3.8" text-anchor="start" font-weight="bold" fill="#000">左视图 (2:1)</text>
<rect x="252.000" y="94.000" width="35.000" height="6.000" fill="none" stroke="#000" stroke-width="0.5"/>
<text x="259.50" y="97.90" font-family="'Segoe UI','Microsoft YaHei',sans-serif" font-size="3.2" text-anchor="middle" font-weight="normal" fill="#000">↗</text>
<line x1="267.000" y1="94.000" x2="267.000" y2="100.000" stroke="#000" stroke-width="0.5"/>
<text x="272.50" y="97.90" font-family="'Segoe UI','Microsoft YaHei',sans-serif" font-size="3.2" text-anchor="middle" font-weight="normal" fill="#000">0.02</text>
<line x1="278.000" y1="94.000" x2="278.000" y2="100.000" stroke="#000" stroke-width="0.5"/>
<text x="282.50" y="97.90" font-family="'Segoe UI','Microsoft YaHei',sans-serif" font-size="3.2" text-anchor="middle" font-weight="normal" fill="#000">A</text>
<line x1="222.000" y1="98.000" x2="252.000" y2="97.000" stroke="#000" stroke-width="0.22"/>
<path d="M 222.00 98.00 L 218.80 98.60 L 218.80 97.40 Z" fill="#000"/>
<text x="20.00" y="234.00" font-family="'Segoe UI','Microsoft YaHei',sans-serif" font-size="4.6" text-anchor="start" font-weight="bold" fill="#000">技术要求</text>
<text x="20.00" y="241.00" font-family="'Segoe UI','Microsoft YaHei',sans-serif" font-size="3.1" text-anchor="start" font-weight="normal" fill="#000">1. 材料:6061-T6(GB/T 3191),铝棒料,淬火人工时效状态;</text>
<text x="20.00" y="245.20" font-family="'Segoe UI','Microsoft YaHei',sans-serif" font-size="3.1" text-anchor="start" font-weight="normal" fill="#000">2. 热处理:无;</text>
<text x="20.00" y="249.40" font-family="'Segoe UI','Microsoft YaHei',sans-serif" font-size="3.1" text-anchor="start" font-weight="normal" fill="#000">3. 表面处理:配合面 Ra≤1.6,其余黑色阳极氧化;通光孔内壁发黑(消杂光)</text>
<text x="20.00" y="253.60" font-family="'Segoe UI','Microsoft YaHei',sans-serif" font-size="3.1" text-anchor="start" font-weight="normal" fill="#000">4. 未注线性尺寸公差按 GB/T 1804-m;未注形位公差按 GB/T 1184-K;</text>
<text x="20.00" y="257.80" font-family="'Segoe UI','Microsoft YaHei',sans-serif" font-size="3.1" text-anchor="start" font-weight="normal" fill="#000">5. 未注圆角 R0.3;孔口倒角 C0.3;锐边倒钝 R0.2~0.4,去毛刺;</text>
<text x="20.00" y="262.00" font-family="'Segoe UI','Microsoft YaHei',sans-serif" font-size="3.1" text-anchor="start" font-weight="normal" fill="#000">6. 孔位公差 ±0.05;螺纹孔口倒角,攻丝后清屑;</text>
<text x="20.00" y="266.20" font-family="'Segoe UI','Microsoft YaHei',sans-serif" font-size="3.1" text-anchor="start" font-weight="normal" fill="#000">7. Ø22h6 止口与 MEC-111 沉孔(Ø22H7)配作,间隙≤0.02,端面跳动≤0.02;</text>
<text x="20.00" y="270.40" font-family="'Segoe UI','Microsoft YaHei',sans-serif" font-size="3.1" text-anchor="start" font-weight="normal" fill="#000">8. M14×0.5-6H 与镜头/转接环配作,旋合顺畅无旷量;</text>
<text x="20.00" y="274.60" font-family="'Segoe UI','Microsoft YaHei',sans-serif" font-size="3.1" text-anchor="start" font-weight="normal" fill="#000">9. IR-cut 槽深 0.55(+0.05/0),滤光片 GD414 点胶;</text>
<text x="20.00" y="278.80" font-family="'Segoe UI','Microsoft YaHei',sans-serif" font-size="3.1" text-anchor="start" font-weight="normal" fill="#000">10. 锁焦后三点点胶(Loctite 401);单件质量 ≤18 g。</text>
<rect x="228.000" y="193.000" width="180.000" height="6.500" fill="none" stroke="#000" stroke-width="0.4"/>
<line x1="236.000" y1="193.000" x2="236.000" y2="199.500" stroke="#000" stroke-width="0.3"/>
<line x1="258.000" y1="193.000" x2="258.000" y2="199.500" stroke="#000" stroke-width="0.3"/>
<line x1="348.000" y1="193.000" x2="348.000" y2="199.500" stroke="#000" stroke-width="0.3"/>
<text x="232.00" y="197.60" font-family="'Segoe UI','Microsoft YaHei',sans-serif" font-size="2.9" text-anchor="middle" font-weight="normal" fill="#000">A</text>
<text x="247.00" y="197.60" font-family="'Segoe UI','Microsoft YaHei',sans-serif" font-size="2.7" text-anchor="middle" font-weight="normal" fill="#000">2026-09</text>
<text x="261.00" y="197.60" font-family="'Segoe UI','Microsoft YaHei',sans-serif" font-size="2.7" text-anchor="start" font-weight="normal" fill="#000">v4 评审版发布</text>
<text x="356.00" y="197.60" font-family="'Segoe UI','Microsoft YaHei',sans-serif" font-size="2.7" text-anchor="middle" font-weight="normal" fill="#000">设计</text>
</svg>