ISO-10303-21;
HEADER;
FILE_DESCRIPTION(('Open CASCADE Model'),'2;1');
FILE_NAME('Open CASCADE Shape Model','2026-09-03T17:14:17',('Author'),(
    'Open CASCADE'),'Open CASCADE STEP processor 7.9','Open CASCADE 7.9'
  ,'Unknown');
FILE_SCHEMA(('AUTOMOTIVE_DESIGN { 1 0 10303 214 1 1 1 1 }'));
ENDSEC;
DATA;
#1 = APPLICATION_PROTOCOL_DEFINITION('international standard',
  'automotive_design',2000,#2);
#2 = APPLICATION_CONTEXT(
  'core data for automotive mechanical design processes');
#3 = SHAPE_DEFINITION_REPRESENTATION(#4,#10);
#4 = PRODUCT_DEFINITION_SHAPE('','',#5);
#5 = PRODUCT_DEFINITION('design','',#6,#9);
#6 = PRODUCT_DEFINITION_FORMATION('','',#7);
#7 = PRODUCT('Open CASCADE STEP translator 7.9 4',
  'Open CASCADE STEP translator 7.9 4','',(#8));
#8 = PRODUCT_CONTEXT('',#2,'mechanical');
#9 = PRODUCT_DEFINITION_CONTEXT('part definition',#2,'design');
#10 = ADVANCED_BREP_SHAPE_REPRESENTATION('',(#11,#15),#1249);
#11 = AXIS2_PLACEMENT_3D('',#12,#13,#14);
#12 = CARTESIAN_POINT('',(0.,0.,0.));
#13 = DIRECTION('',(0.,0.,1.));
#14 = DIRECTION('',(1.,0.,-0.));
#15 = MANIFOLD_SOLID_BREP('',#16);
#16 = CLOSED_SHELL('',(#17,#137,#376,#588,#686,#784,#818,#872,#945,#1044
    ,#1097,#1104,#1175,#1202,#1242));
#17 = ADVANCED_FACE('',(#18),#32,.F.);
#18 = FACE_BOUND('',#19,.F.);
#19 = EDGE_LOOP('',(#20,#55,#83,#111));
#20 = ORIENTED_EDGE('',*,*,#21,.F.);
#21 = EDGE_CURVE('',#22,#24,#26,.T.);
#22 = VERTEX_POINT('',#23);
#23 = CARTESIAN_POINT('',(-170.25,-41.5,-0.75));
#24 = VERTEX_POINT('',#25);
#25 = CARTESIAN_POINT('',(-170.25,-41.5,0.75));
#26 = SURFACE_CURVE('',#27,(#31,#43),.PCURVE_S1.);
#27 = LINE('',#28,#29);
#28 = CARTESIAN_POINT('',(-170.25,-41.5,-0.75));
#29 = VECTOR('',#30,1.);
#30 = DIRECTION('',(0.,0.,1.));
#31 = PCURVE('',#32,#37);
#32 = PLANE('',#33);
#33 = AXIS2_PLACEMENT_3D('',#34,#35,#36);
#34 = CARTESIAN_POINT('',(-170.25,-41.5,-0.75));
#35 = DIRECTION('',(1.,0.,0.));
#36 = DIRECTION('',(0.,0.,1.));
#37 = DEFINITIONAL_REPRESENTATION('',(#38),#42);
#38 = LINE('',#39,#40);
#39 = CARTESIAN_POINT('',(0.,0.));
#40 = VECTOR('',#41,1.);
#41 = DIRECTION('',(1.,0.));
#42 = ( GEOMETRIC_REPRESENTATION_CONTEXT(2) 
PARAMETRIC_REPRESENTATION_CONTEXT() REPRESENTATION_CONTEXT('2D SPACE',''
  ) );
#43 = PCURVE('',#44,#49);
#44 = PLANE('',#45);
#45 = AXIS2_PLACEMENT_3D('',#46,#47,#48);
#46 = CARTESIAN_POINT('',(-170.25,-41.5,-0.75));
#47 = DIRECTION('',(0.,1.,0.));
#48 = DIRECTION('',(0.,0.,1.));
#49 = DEFINITIONAL_REPRESENTATION('',(#50),#54);
#50 = LINE('',#51,#52);
#51 = CARTESIAN_POINT('',(0.,0.));
#52 = VECTOR('',#53,1.);
#53 = DIRECTION('',(1.,0.));
#54 = ( GEOMETRIC_REPRESENTATION_CONTEXT(2) 
PARAMETRIC_REPRESENTATION_CONTEXT() REPRESENTATION_CONTEXT('2D SPACE',''
  ) );
#55 = ORIENTED_EDGE('',*,*,#56,.T.);
#56 = EDGE_CURVE('',#22,#57,#59,.T.);
#57 = VERTEX_POINT('',#58);
#58 = CARTESIAN_POINT('',(-170.25,41.5,-0.75));
#59 = SURFACE_CURVE('',#60,(#64,#71),.PCURVE_S1.);
#60 = LINE('',#61,#62);
#61 = CARTESIAN_POINT('',(-170.25,-41.5,-0.75));
#62 = VECTOR('',#63,1.);
#63 = DIRECTION('',(0.,1.,0.));
#64 = PCURVE('',#32,#65);
#65 = DEFINITIONAL_REPRESENTATION('',(#66),#70);
#66 = LINE('',#67,#68);
#67 = CARTESIAN_POINT('',(0.,0.));
#68 = VECTOR('',#69,1.);
#69 = DIRECTION('',(0.,-1.));
#70 = ( GEOMETRIC_REPRESENTATION_CONTEXT(2) 
PARAMETRIC_REPRESENTATION_CONTEXT() REPRESENTATION_CONTEXT('2D SPACE',''
  ) );
#71 = PCURVE('',#72,#77);
#72 = PLANE('',#73);
#73 = AXIS2_PLACEMENT_3D('',#74,#75,#76);
#74 = CARTESIAN_POINT('',(-170.25,-41.5,-0.75));
#75 = DIRECTION('',(0.,0.,1.));
#76 = DIRECTION('',(1.,0.,0.));
#77 = DEFINITIONAL_REPRESENTATION('',(#78),#82);
#78 = LINE('',#79,#80);
#79 = CARTESIAN_POINT('',(0.,0.));
#80 = VECTOR('',#81,1.);
#81 = DIRECTION('',(0.,1.));
#82 = ( GEOMETRIC_REPRESENTATION_CONTEXT(2) 
PARAMETRIC_REPRESENTATION_CONTEXT() REPRESENTATION_CONTEXT('2D SPACE',''
  ) );
#83 = ORIENTED_EDGE('',*,*,#84,.T.);
#84 = EDGE_CURVE('',#57,#85,#87,.T.);
#85 = VERTEX_POINT('',#86);
#86 = CARTESIAN_POINT('',(-170.25,41.5,0.75));
#87 = SURFACE_CURVE('',#88,(#92,#99),.PCURVE_S1.);
#88 = LINE('',#89,#90);
#89 = CARTESIAN_POINT('',(-170.25,41.5,-0.75));
#90 = VECTOR('',#91,1.);
#91 = DIRECTION('',(0.,0.,1.));
#92 = PCURVE('',#32,#93);
#93 = DEFINITIONAL_REPRESENTATION('',(#94),#98);
#94 = LINE('',#95,#96);
#95 = CARTESIAN_POINT('',(0.,-83.));
#96 = VECTOR('',#97,1.);
#97 = DIRECTION('',(1.,0.));
#98 = ( GEOMETRIC_REPRESENTATION_CONTEXT(2) 
PARAMETRIC_REPRESENTATION_CONTEXT() REPRESENTATION_CONTEXT('2D SPACE',''
  ) );
#99 = PCURVE('',#100,#105);
#100 = PLANE('',#101);
#101 = AXIS2_PLACEMENT_3D('',#102,#103,#104);
#102 = CARTESIAN_POINT('',(-170.25,41.5,-0.75));
#103 = DIRECTION('',(0.,1.,0.));
#104 = DIRECTION('',(0.,0.,1.));
#105 = DEFINITIONAL_REPRESENTATION('',(#106),#110);
#106 = LINE('',#107,#108);
#107 = CARTESIAN_POINT('',(0.,0.));
#108 = VECTOR('',#109,1.);
#109 = DIRECTION('',(1.,0.));
#110 = ( GEOMETRIC_REPRESENTATION_CONTEXT(2) 
PARAMETRIC_REPRESENTATION_CONTEXT() REPRESENTATION_CONTEXT('2D SPACE',''
  ) );
#111 = ORIENTED_EDGE('',*,*,#112,.F.);
#112 = EDGE_CURVE('',#24,#85,#113,.T.);
#113 = SURFACE_CURVE('',#114,(#118,#125),.PCURVE_S1.);
#114 = LINE('',#115,#116);
#115 = CARTESIAN_POINT('',(-170.25,-41.5,0.75));
#116 = VECTOR('',#117,1.);
#117 = DIRECTION('',(0.,1.,0.));
#118 = PCURVE('',#32,#119);
#119 = DEFINITIONAL_REPRESENTATION('',(#120),#124);
#120 = LINE('',#121,#122);
#121 = CARTESIAN_POINT('',(1.5,0.));
#122 = VECTOR('',#123,1.);
#123 = DIRECTION('',(0.,-1.));
#124 = ( GEOMETRIC_REPRESENTATION_CONTEXT(2) 
PARAMETRIC_REPRESENTATION_CONTEXT() REPRESENTATION_CONTEXT('2D SPACE',''
  ) );
#125 = PCURVE('',#126,#131);
#126 = PLANE('',#127);
#127 = AXIS2_PLACEMENT_3D('',#128,#129,#130);
#128 = CARTESIAN_POINT('',(-170.25,-41.5,0.75));
#129 = DIRECTION('',(0.,0.,1.));
#130 = DIRECTION('',(1.,0.,0.));
#131 = DEFINITIONAL_REPRESENTATION('',(#132),#136);
#132 = LINE('',#133,#134);
#133 = CARTESIAN_POINT('',(0.,0.));
#134 = VECTOR('',#135,1.);
#135 = DIRECTION('',(0.,1.));
#136 = ( GEOMETRIC_REPRESENTATION_CONTEXT(2) 
PARAMETRIC_REPRESENTATION_CONTEXT() REPRESENTATION_CONTEXT('2D SPACE',''
  ) );
#137 = ADVANCED_FACE('',(#138,#213,#277,#312),#72,.F.);
#138 = FACE_BOUND('',#139,.F.);
#139 = EDGE_LOOP('',(#140,#141,#164,#192));
#140 = ORIENTED_EDGE('',*,*,#56,.F.);
#141 = ORIENTED_EDGE('',*,*,#142,.T.);
#142 = EDGE_CURVE('',#22,#143,#145,.T.);
#143 = VERTEX_POINT('',#144);
#144 = CARTESIAN_POINT('',(170.25,-41.5,-0.75));
#145 = SURFACE_CURVE('',#146,(#150,#157),.PCURVE_S1.);
#146 = LINE('',#147,#148);
#147 = CARTESIAN_POINT('',(-170.25,-41.5,-0.75));
#148 = VECTOR('',#149,1.);
#149 = DIRECTION('',(1.,0.,0.));
#150 = PCURVE('',#72,#151);
#151 = DEFINITIONAL_REPRESENTATION('',(#152),#156);
#152 = LINE('',#153,#154);
#153 = CARTESIAN_POINT('',(0.,0.));
#154 = VECTOR('',#155,1.);
#155 = DIRECTION('',(1.,0.));
#156 = ( GEOMETRIC_REPRESENTATION_CONTEXT(2) 
PARAMETRIC_REPRESENTATION_CONTEXT() REPRESENTATION_CONTEXT('2D SPACE',''
  ) );
#157 = PCURVE('',#44,#158);
#158 = DEFINITIONAL_REPRESENTATION('',(#159),#163);
#159 = LINE('',#160,#161);
#160 = CARTESIAN_POINT('',(0.,0.));
#161 = VECTOR('',#162,1.);
#162 = DIRECTION('',(0.,1.));
#163 = ( GEOMETRIC_REPRESENTATION_CONTEXT(2) 
PARAMETRIC_REPRESENTATION_CONTEXT() REPRESENTATION_CONTEXT('2D SPACE',''
  ) );
#164 = ORIENTED_EDGE('',*,*,#165,.T.);
#165 = EDGE_CURVE('',#143,#166,#168,.T.);
#166 = VERTEX_POINT('',#167);
#167 = CARTESIAN_POINT('',(170.25,41.5,-0.75));
#168 = SURFACE_CURVE('',#169,(#173,#180),.PCURVE_S1.);
#169 = LINE('',#170,#171);
#170 = CARTESIAN_POINT('',(170.25,-41.5,-0.75));
#171 = VECTOR('',#172,1.);
#172 = DIRECTION('',(0.,1.,0.));
#173 = PCURVE('',#72,#174);
#174 = DEFINITIONAL_REPRESENTATION('',(#175),#179);
#175 = LINE('',#176,#177);
#176 = CARTESIAN_POINT('',(340.5,0.));
#177 = VECTOR('',#178,1.);
#178 = DIRECTION('',(0.,1.));
#179 = ( GEOMETRIC_REPRESENTATION_CONTEXT(2) 
PARAMETRIC_REPRESENTATION_CONTEXT() REPRESENTATION_CONTEXT('2D SPACE',''
  ) );
#180 = PCURVE('',#181,#186);
#181 = PLANE('',#182);
#182 = AXIS2_PLACEMENT_3D('',#183,#184,#185);
#183 = CARTESIAN_POINT('',(170.25,-41.5,-0.75));
#184 = DIRECTION('',(1.,0.,0.));
#185 = DIRECTION('',(0.,0.,1.));
#186 = DEFINITIONAL_REPRESENTATION('',(#187),#191);
#187 = LINE('',#188,#189);
#188 = CARTESIAN_POINT('',(0.,0.));
#189 = VECTOR('',#190,1.);
#190 = DIRECTION('',(0.,-1.));
#191 = ( GEOMETRIC_REPRESENTATION_CONTEXT(2) 
PARAMETRIC_REPRESENTATION_CONTEXT() REPRESENTATION_CONTEXT('2D SPACE',''
  ) );
#192 = ORIENTED_EDGE('',*,*,#193,.F.);
#193 = EDGE_CURVE('',#57,#166,#194,.T.);
#194 = SURFACE_CURVE('',#195,(#199,#206),.PCURVE_S1.);
#195 = LINE('',#196,#197);
#196 = CARTESIAN_POINT('',(-170.25,41.5,-0.75));
#197 = VECTOR('',#198,1.);
#198 = DIRECTION('',(1.,0.,0.));
#199 = PCURVE('',#72,#200);
#200 = DEFINITIONAL_REPRESENTATION('',(#201),#205);
#201 = LINE('',#202,#203);
#202 = CARTESIAN_POINT('',(0.,83.));
#203 = VECTOR('',#204,1.);
#204 = DIRECTION('',(1.,0.));
#205 = ( GEOMETRIC_REPRESENTATION_CONTEXT(2) 
PARAMETRIC_REPRESENTATION_CONTEXT() REPRESENTATION_CONTEXT('2D SPACE',''
  ) );
#206 = PCURVE('',#100,#207);
#207 = DEFINITIONAL_REPRESENTATION('',(#208),#212);
#208 = LINE('',#209,#210);
#209 = CARTESIAN_POINT('',(0.,0.));
#210 = VECTOR('',#211,1.);
#211 = DIRECTION('',(0.,1.));
#212 = ( GEOMETRIC_REPRESENTATION_CONTEXT(2) 
PARAMETRIC_REPRESENTATION_CONTEXT() REPRESENTATION_CONTEXT('2D SPACE',''
  ) );
#213 = FACE_BOUND('',#214,.F.);
#214 = EDGE_LOOP('',(#215,#246));
#215 = ORIENTED_EDGE('',*,*,#216,.F.);
#216 = EDGE_CURVE('',#217,#219,#221,.T.);
#217 = VERTEX_POINT('',#218);
#218 = CARTESIAN_POINT('',(-141.25,-34.25100040032,-0.75));
#219 = VERTEX_POINT('',#220);
#220 = CARTESIAN_POINT('',(-141.25,-36.74899959967,-0.75));
#221 = SURFACE_CURVE('',#222,(#227,#234),.PCURVE_S1.);
#222 = CIRCLE('',#223,1.6);
#223 = AXIS2_PLACEMENT_3D('',#224,#225,#226);
#224 = CARTESIAN_POINT('',(-142.25,-35.5,-0.75));
#225 = DIRECTION('',(0.,8.88889816226E-17,1.));
#226 = DIRECTION('',(0.625,0.7806247498,-6.93889390391E-17));
#227 = PCURVE('',#72,#228);
#228 = DEFINITIONAL_REPRESENTATION('',(#229),#233);
#229 = CIRCLE('',#230,1.6);
#230 = AXIS2_PLACEMENT_2D('',#231,#232);
#231 = CARTESIAN_POINT('',(28.,6.));
#232 = DIRECTION('',(0.625,0.7806247498));
#233 = ( GEOMETRIC_REPRESENTATION_CONTEXT(2) 
PARAMETRIC_REPRESENTATION_CONTEXT() REPRESENTATION_CONTEXT('2D SPACE',''
  ) );
#234 = PCURVE('',#235,#240);
#235 = CYLINDRICAL_SURFACE('',#236,1.6);
#236 = AXIS2_PLACEMENT_3D('',#237,#238,#239);
#237 = CARTESIAN_POINT('',(-142.25,-35.5,0.75));
#238 = DIRECTION('',(0.,0.,-1.));
#239 = DIRECTION('',(-1.,0.,0.));
#240 = DEFINITIONAL_REPRESENTATION('',(#241),#245);
#241 = LINE('',#242,#243);
#242 = CARTESIAN_POINT('',(8.529113166911,1.5));
#243 = VECTOR('',#244,1.);
#244 = DIRECTION('',(-1.,-0.));
#245 = ( GEOMETRIC_REPRESENTATION_CONTEXT(2) 
PARAMETRIC_REPRESENTATION_CONTEXT() REPRESENTATION_CONTEXT('2D SPACE',''
  ) );
#246 = ORIENTED_EDGE('',*,*,#247,.T.);
#247 = EDGE_CURVE('',#217,#219,#248,.T.);
#248 = SURFACE_CURVE('',#249,(#254,#265),.PCURVE_S1.);
#249 = CIRCLE('',#250,1.6);
#250 = AXIS2_PLACEMENT_3D('',#251,#252,#253);
#251 = CARTESIAN_POINT('',(-140.25,-35.5,-0.75));
#252 = DIRECTION('',(0.,0.,-1.));
#253 = DIRECTION('',(-1.,0.,0.));
#254 = PCURVE('',#72,#255);
#255 = DEFINITIONAL_REPRESENTATION('',(#256),#264);
#256 = ( BOUNDED_CURVE() B_SPLINE_CURVE(2,(#257,#258,#259,#260,#261,#262
,#263),.UNSPECIFIED.,.T.,.F.) B_SPLINE_CURVE_WITH_KNOTS((1,2,2,2,2,1),(
    -2.094395102393,0.,2.094395102393,4.188790204786,6.28318530718,
8.377580409573),.UNSPECIFIED.) CURVE() GEOMETRIC_REPRESENTATION_ITEM() 
RATIONAL_B_SPLINE_CURVE((1.,0.5,1.,0.5,1.,0.5,1.)) REPRESENTATION_ITEM(
  '') );
#257 = CARTESIAN_POINT('',(28.4,6.));
#258 = CARTESIAN_POINT('',(28.4,8.77128129211));
#259 = CARTESIAN_POINT('',(30.8,7.385640646055));
#260 = CARTESIAN_POINT('',(33.2,6.));
#261 = CARTESIAN_POINT('',(30.8,4.614359353945));
#262 = CARTESIAN_POINT('',(28.4,3.22871870789));
#263 = CARTESIAN_POINT('',(28.4,6.));
#264 = ( GEOMETRIC_REPRESENTATION_CONTEXT(2) 
PARAMETRIC_REPRESENTATION_CONTEXT() REPRESENTATION_CONTEXT('2D SPACE',''
  ) );
#265 = PCURVE('',#266,#271);
#266 = CYLINDRICAL_SURFACE('',#267,1.6);
#267 = AXIS2_PLACEMENT_3D('',#268,#269,#270);
#268 = CARTESIAN_POINT('',(-140.25,-35.5,0.75));
#269 = DIRECTION('',(0.,0.,-1.));
#270 = DIRECTION('',(-1.,0.,0.));
#271 = DEFINITIONAL_REPRESENTATION('',(#272),#276);
#272 = LINE('',#273,#274);
#273 = CARTESIAN_POINT('',(0.,1.5));
#274 = VECTOR('',#275,1.);
#275 = DIRECTION('',(1.,0.));
#276 = ( GEOMETRIC_REPRESENTATION_CONTEXT(2) 
PARAMETRIC_REPRESENTATION_CONTEXT() REPRESENTATION_CONTEXT('2D SPACE',''
  ) );
#277 = FACE_BOUND('',#278,.F.);
#278 = EDGE_LOOP('',(#279));
#279 = ORIENTED_EDGE('',*,*,#280,.T.);
#280 = EDGE_CURVE('',#281,#281,#283,.T.);
#281 = VERTEX_POINT('',#282);
#282 = CARTESIAN_POINT('',(-159.85,-25.,-0.75));
#283 = SURFACE_CURVE('',#284,(#289,#300),.PCURVE_S1.);
#284 = CIRCLE('',#285,1.6);
#285 = AXIS2_PLACEMENT_3D('',#286,#287,#288);
#286 = CARTESIAN_POINT('',(-158.25,-25.,-0.75));
#287 = DIRECTION('',(0.,0.,-1.));
#288 = DIRECTION('',(-1.,0.,0.));
#289 = PCURVE('',#72,#290);
#290 = DEFINITIONAL_REPRESENTATION('',(#291),#299);
#291 = ( BOUNDED_CURVE() B_SPLINE_CURVE(2,(#292,#293,#294,#295,#296,#297
,#298),.UNSPECIFIED.,.T.,.F.) B_SPLINE_CURVE_WITH_KNOTS((1,2,2,2,2,1),(
    -2.094395102393,0.,2.094395102393,4.188790204786,6.28318530718,
8.377580409573),.UNSPECIFIED.) CURVE() GEOMETRIC_REPRESENTATION_ITEM() 
RATIONAL_B_SPLINE_CURVE((1.,0.5,1.,0.5,1.,0.5,1.)) REPRESENTATION_ITEM(
  '') );
#292 = CARTESIAN_POINT('',(10.4,16.5));
#293 = CARTESIAN_POINT('',(10.4,19.27128129211));
#294 = CARTESIAN_POINT('',(12.8,17.885640646055));
#295 = CARTESIAN_POINT('',(15.2,16.5));
#296 = CARTESIAN_POINT('',(12.8,15.114359353945));
#297 = CARTESIAN_POINT('',(10.4,13.72871870789));
#298 = CARTESIAN_POINT('',(10.4,16.5));
#299 = ( GEOMETRIC_REPRESENTATION_CONTEXT(2) 
PARAMETRIC_REPRESENTATION_CONTEXT() REPRESENTATION_CONTEXT('2D SPACE',''
  ) );
#300 = PCURVE('',#301,#306);
#301 = CYLINDRICAL_SURFACE('',#302,1.6);
#302 = AXIS2_PLACEMENT_3D('',#303,#304,#305);
#303 = CARTESIAN_POINT('',(-158.25,-25.,0.75));
#304 = DIRECTION('',(0.,0.,-1.));
#305 = DIRECTION('',(-1.,0.,0.));
#306 = DEFINITIONAL_REPRESENTATION('',(#307),#311);
#307 = LINE('',#308,#309);
#308 = CARTESIAN_POINT('',(0.,1.5));
#309 = VECTOR('',#310,1.);
#310 = DIRECTION('',(1.,0.));
#311 = ( GEOMETRIC_REPRESENTATION_CONTEXT(2) 
PARAMETRIC_REPRESENTATION_CONTEXT() REPRESENTATION_CONTEXT('2D SPACE',''
  ) );
#312 = FACE_BOUND('',#313,.F.);
#313 = EDGE_LOOP('',(#314,#345));
#314 = ORIENTED_EDGE('',*,*,#315,.F.);
#315 = EDGE_CURVE('',#316,#318,#320,.T.);
#316 = VERTEX_POINT('',#317);
#317 = CARTESIAN_POINT('',(-0.204090909091,1.586930023922,-0.75));
#318 = VERTEX_POINT('',#319);
#319 = CARTESIAN_POINT('',(-0.204090909091,-1.586930023922,-0.75));
#320 = SURFACE_CURVE('',#321,(#326,#333),.PCURVE_S1.);
#321 = CIRCLE('',#322,3.);
#322 = AXIS2_PLACEMENT_3D('',#323,#324,#325);
#323 = CARTESIAN_POINT('',(-2.75,0.,-0.75));
#324 = DIRECTION('',(0.,-0.,1.));
#325 = DIRECTION('',(0.848636363636,0.528976674641,0.));
#326 = PCURVE('',#72,#327);
#327 = DEFINITIONAL_REPRESENTATION('',(#328),#332);
#328 = CIRCLE('',#329,3.);
#329 = AXIS2_PLACEMENT_2D('',#330,#331);
#330 = CARTESIAN_POINT('',(167.5,41.5));
#331 = DIRECTION('',(0.848636363636,0.528976674641));
#332 = ( GEOMETRIC_REPRESENTATION_CONTEXT(2) 
PARAMETRIC_REPRESENTATION_CONTEXT() REPRESENTATION_CONTEXT('2D SPACE',''
  ) );
#333 = PCURVE('',#334,#339);
#334 = CYLINDRICAL_SURFACE('',#335,3.);
#335 = AXIS2_PLACEMENT_3D('',#336,#337,#338);
#336 = CARTESIAN_POINT('',(-2.75,0.,0.75));
#337 = DIRECTION('',(0.,0.,-1.));
#338 = DIRECTION('',(-1.,0.,0.));
#339 = DEFINITIONAL_REPRESENTATION('',(#340),#344);
#340 = LINE('',#341,#342);
#341 = CARTESIAN_POINT('',(8.867383695939,1.5));
#342 = VECTOR('',#343,1.);
#343 = DIRECTION('',(-1.,-0.));
#344 = ( GEOMETRIC_REPRESENTATION_CONTEXT(2) 
PARAMETRIC_REPRESENTATION_CONTEXT() REPRESENTATION_CONTEXT('2D SPACE',''
  ) );
#345 = ORIENTED_EDGE('',*,*,#346,.T.);
#346 = EDGE_CURVE('',#316,#318,#347,.T.);
#347 = SURFACE_CURVE('',#348,(#353,#364),.PCURVE_S1.);
#348 = CIRCLE('',#349,1.6);
#349 = AXIS2_PLACEMENT_3D('',#350,#351,#352);
#350 = CARTESIAN_POINT('',(0.,0.,-0.75));
#351 = DIRECTION('',(0.,0.,-1.));
#352 = DIRECTION('',(-1.,0.,0.));
#353 = PCURVE('',#72,#354);
#354 = DEFINITIONAL_REPRESENTATION('',(#355),#363);
#355 = ( BOUNDED_CURVE() B_SPLINE_CURVE(2,(#356,#357,#358,#359,#360,#361
,#362),.UNSPECIFIED.,.T.,.F.) B_SPLINE_CURVE_WITH_KNOTS((1,2,2,2,2,1),(
    -2.094395102393,0.,2.094395102393,4.188790204786,6.28318530718,
8.377580409573),.UNSPECIFIED.) CURVE() GEOMETRIC_REPRESENTATION_ITEM() 
RATIONAL_B_SPLINE_CURVE((1.,0.5,1.,0.5,1.,0.5,1.)) REPRESENTATION_ITEM(
  '') );
#356 = CARTESIAN_POINT('',(168.65,41.5));
#357 = CARTESIAN_POINT('',(168.65,44.27128129211));
#358 = CARTESIAN_POINT('',(171.05,42.885640646055));
#359 = CARTESIAN_POINT('',(173.45,41.5));
#360 = CARTESIAN_POINT('',(171.05,40.114359353945));
#361 = CARTESIAN_POINT('',(168.65,38.72871870789));
#362 = CARTESIAN_POINT('',(168.65,41.5));
#363 = ( GEOMETRIC_REPRESENTATION_CONTEXT(2) 
PARAMETRIC_REPRESENTATION_CONTEXT() REPRESENTATION_CONTEXT('2D SPACE',''
  ) );
#364 = PCURVE('',#365,#370);
#365 = CYLINDRICAL_SURFACE('',#366,1.6);
#366 = AXIS2_PLACEMENT_3D('',#367,#368,#369);
#367 = CARTESIAN_POINT('',(0.,0.,0.75));
#368 = DIRECTION('',(0.,0.,-1.));
#369 = DIRECTION('',(-1.,0.,0.));
#370 = DEFINITIONAL_REPRESENTATION('',(#371),#375);
#371 = LINE('',#372,#373);
#372 = CARTESIAN_POINT('',(0.,1.5));
#373 = VECTOR('',#374,1.);
#374 = DIRECTION('',(1.,0.));
#375 = ( GEOMETRIC_REPRESENTATION_CONTEXT(2) 
PARAMETRIC_REPRESENTATION_CONTEXT() REPRESENTATION_CONTEXT('2D SPACE',''
  ) );
#376 = ADVANCED_FACE('',(#377),#365,.F.);
#377 = FACE_BOUND('',#378,.F.);
#378 = EDGE_LOOP('',(#379,#380,#401,#462,#490,#569));
#379 = ORIENTED_EDGE('',*,*,#346,.F.);
#380 = ORIENTED_EDGE('',*,*,#381,.F.);
#381 = EDGE_CURVE('',#382,#316,#384,.T.);
#382 = VERTEX_POINT('',#383);
#383 = CARTESIAN_POINT('',(-0.204090903421,1.586930014826,0.540975722918
    ));
#384 = SURFACE_CURVE('',#385,(#389,#395),.PCURVE_S1.);
#385 = LINE('',#386,#387);
#386 = CARTESIAN_POINT('',(-0.204090909091,1.586930023922,0.75));
#387 = VECTOR('',#388,1.);
#388 = DIRECTION('',(0.,0.,-1.));
#389 = PCURVE('',#365,#390);
#390 = DEFINITIONAL_REPRESENTATION('',(#391),#394);
#391 = B_SPLINE_CURVE_WITH_KNOTS('',1,(#392,#393),.UNSPECIFIED.,.F.,.F.,
  (2,2),(-6.000000009054E-07,1.5000006),.PIECEWISE_BEZIER_KNOTS.);
#392 = CARTESIAN_POINT('',(1.44289104379,-6.000000009054E-07));
#393 = CARTESIAN_POINT('',(1.44289104379,1.5000006));
#394 = ( GEOMETRIC_REPRESENTATION_CONTEXT(2) 
PARAMETRIC_REPRESENTATION_CONTEXT() REPRESENTATION_CONTEXT('2D SPACE',''
  ) );
#395 = PCURVE('',#334,#396);
#396 = DEFINITIONAL_REPRESENTATION('',(#397),#400);
#397 = B_SPLINE_CURVE_WITH_KNOTS('',1,(#398,#399),.UNSPECIFIED.,.F.,.F.,
  (2,2),(0.209024277082,1.5),.PIECEWISE_BEZIER_KNOTS.);
#398 = CARTESIAN_POINT('',(8.867383695939,0.209024277082));
#399 = CARTESIAN_POINT('',(8.867383695939,1.5));
#400 = ( GEOMETRIC_REPRESENTATION_CONTEXT(2) 
PARAMETRIC_REPRESENTATION_CONTEXT() REPRESENTATION_CONTEXT('2D SPACE',''
  ) );
#401 = ORIENTED_EDGE('',*,*,#402,.T.);
#402 = EDGE_CURVE('',#382,#403,#405,.T.);
#403 = VERTEX_POINT('',#404);
#404 = CARTESIAN_POINT('',(3.799999999994E-02,1.599548686349,0.75));
#405 = SURFACE_CURVE('',#406,(#421,#439),.PCURVE_S1.);
#406 = B_SPLINE_CURVE_WITH_KNOTS('',7,(#407,#408,#409,#410,#411,#412,
    #413,#414,#415,#416,#417,#418,#419,#420),.UNSPECIFIED.,.F.,.F.,(8,6,
    8),(0.,0.388655163244,1.),.UNSPECIFIED.);
#407 = CARTESIAN_POINT('',(-1.25,0.998749217772,-0.65));
#408 = CARTESIAN_POINT('',(-1.199907392888,1.061443393423,
    -0.571730301387));
#409 = CARTESIAN_POINT('',(-1.146677661545,1.120541511772,
    -0.493025852889));
#410 = CARTESIAN_POINT('',(-1.090392692218,1.176227033251,
    -0.414103733474));
#411 = CARTESIAN_POINT('',(-1.031132621268,1.228496371924,
    -0.335105596895));
#412 = CARTESIAN_POINT('',(-0.968977983474,1.277298851981,
    -0.256138551223));
#413 = CARTESIAN_POINT('',(-0.904002087133,1.32253274972,-0.177275980112
    ));
#414 = CARTESIAN_POINT('',(-0.729719204005,1.429380618641,
    2.524343708371E-02));
#415 = CARTESIAN_POINT('',(-0.616409278051,1.485489225914,0.148598941044
    ));
#416 = CARTESIAN_POINT('',(-0.496604266817,1.53185286111,0.271299297181)
  );
#417 = CARTESIAN_POINT('',(-0.37067223598,1.567611070061,0.393106291058)
  );
#418 = CARTESIAN_POINT('',(-0.239118497494,1.591704202695,0.513728620792
    ));
#419 = CARTESIAN_POINT('',(-0.102607858469,1.602889128539,0.632826808044
    ));
#420 = CARTESIAN_POINT('',(3.800072000007E-02,1.599548669244,0.7500006)
  );
#421 = PCURVE('',#365,#422);
#422 = DEFINITIONAL_REPRESENTATION('',(#423),#438);
#423 = B_SPLINE_CURVE_WITH_KNOTS('',7,(#424,#425,#426,#427,#428,#429,
    #430,#431,#432,#433,#434,#435,#436,#437),.UNSPECIFIED.,.F.,.F.,(8,6,
    8),(0.,0.388655163244,1.),.UNSPECIFIED.);
#424 = CARTESIAN_POINT('',(0.674130506667,1.4));
#425 = CARTESIAN_POINT('',(0.724285847188,1.321730301387));
#426 = CARTESIAN_POINT('',(0.773909229813,1.24302585289));
#427 = CARTESIAN_POINT('',(0.823264180996,1.164103733474));
#428 = CARTESIAN_POINT('',(0.872504840688,1.085105596895));
#429 = CARTESIAN_POINT('',(0.921765373161,1.006138551223));
#430 = CARTESIAN_POINT('',(0.97116322106,0.927275980112));
#431 = CARTESIAN_POINT('',(1.098931001201,0.724756562916));
#432 = CARTESIAN_POINT('',(1.17763527489,0.601401058957));
#433 = CARTESIAN_POINT('',(1.257396062656,0.478700702819));
#434 = CARTESIAN_POINT('',(1.338565448582,0.356893708942));
#435 = CARTESIAN_POINT('',(1.421514733332,0.236271379208));
#436 = CARTESIAN_POINT('',(1.506643852255,0.117173191956));
#437 = CARTESIAN_POINT('',(1.594549010236,-6.E-07));
#438 = ( GEOMETRIC_REPRESENTATION_CONTEXT(2) 
PARAMETRIC_REPRESENTATION_CONTEXT() REPRESENTATION_CONTEXT('2D SPACE',''
  ) );
#439 = PCURVE('',#440,#445);
#440 = CONICAL_SURFACE('',#441,3.,0.785398163397);
#441 = AXIS2_PLACEMENT_3D('',#442,#443,#444);
#442 = CARTESIAN_POINT('',(-2.5,0.,0.75));
#443 = DIRECTION('',(-0.,-0.,1.));
#444 = DIRECTION('',(-1.,0.,0.));
#445 = DEFINITIONAL_REPRESENTATION('',(#446),#461);
#446 = B_SPLINE_CURVE_WITH_KNOTS('',7,(#447,#448,#449,#450,#451,#452,
    #453,#454,#455,#456,#457,#458,#459,#460),.UNSPECIFIED.,.F.,.F.,(8,6,
    8),(0.,0.388655163244,0.999999552793),.UNSPECIFIED.);
#447 = CARTESIAN_POINT('',(-8.750647454102,-1.4));
#448 = CARTESIAN_POINT('',(-8.739578013714,-1.321730301387));
#449 = CARTESIAN_POINT('',(-8.732751720674,-1.243025852889));
#450 = CARTESIAN_POINT('',(-8.729186797455,-1.164103733474));
#451 = CARTESIAN_POINT('',(-8.728306215485,-1.085105596895));
#452 = CARTESIAN_POINT('',(-8.729678479552,-1.006138551223));
#453 = CARTESIAN_POINT('',(-8.732997778519,-0.927275980112));
#454 = CARTESIAN_POINT('',(-8.745953082617,-0.724756653484));
#455 = CARTESIAN_POINT('',(-8.758113798914,-0.601401239429));
#456 = CARTESIAN_POINT('',(-8.773612363823,-0.47870097209));
#457 = CARTESIAN_POINT('',(-8.792009825493,-0.356894065356));
#458 = CARTESIAN_POINT('',(-8.813016510563,-0.236271820393));
#459 = CARTESIAN_POINT('',(-8.836487549708,-0.117173714688));
#460 = CARTESIAN_POINT('',(-8.86241954875,-2.96561277618E-14));
#461 = ( GEOMETRIC_REPRESENTATION_CONTEXT(2) 
PARAMETRIC_REPRESENTATION_CONTEXT() REPRESENTATION_CONTEXT('2D SPACE',''
  ) );
#462 = ORIENTED_EDGE('',*,*,#463,.T.);
#463 = EDGE_CURVE('',#403,#464,#466,.T.);
#464 = VERTEX_POINT('',#465);
#465 = CARTESIAN_POINT('',(3.799999999994E-02,-1.599548686349,0.75));
#466 = SURFACE_CURVE('',#467,(#472,#479),.PCURVE_S1.);
#467 = CIRCLE('',#468,1.6);
#468 = AXIS2_PLACEMENT_3D('',#469,#470,#471);
#469 = CARTESIAN_POINT('',(0.,0.,0.75));
#470 = DIRECTION('',(0.,0.,-1.));
#471 = DIRECTION('',(-1.,0.,0.));
#472 = PCURVE('',#365,#473);
#473 = DEFINITIONAL_REPRESENTATION('',(#474),#478);
#474 = LINE('',#475,#476);
#475 = CARTESIAN_POINT('',(0.,0.));
#476 = VECTOR('',#477,1.);
#477 = DIRECTION('',(1.,0.));
#478 = ( GEOMETRIC_REPRESENTATION_CONTEXT(2) 
PARAMETRIC_REPRESENTATION_CONTEXT() REPRESENTATION_CONTEXT('2D SPACE',''
  ) );
#479 = PCURVE('',#126,#480);
#480 = DEFINITIONAL_REPRESENTATION('',(#481),#489);
#481 = ( BOUNDED_CURVE() B_SPLINE_CURVE(2,(#482,#483,#484,#485,#486,#487
,#488),.UNSPECIFIED.,.T.,.F.) B_SPLINE_CURVE_WITH_KNOTS((1,2,2,2,2,1),(
    -2.094395102393,0.,2.094395102393,4.188790204786,6.28318530718,
8.377580409573),.UNSPECIFIED.) CURVE() GEOMETRIC_REPRESENTATION_ITEM() 
RATIONAL_B_SPLINE_CURVE((1.,0.5,1.,0.5,1.,0.5,1.)) REPRESENTATION_ITEM(
  '') );
#482 = CARTESIAN_POINT('',(168.65,41.5));
#483 = CARTESIAN_POINT('',(168.65,44.27128129211));
#484 = CARTESIAN_POINT('',(171.05,42.885640646055));
#485 = CARTESIAN_POINT('',(173.45,41.5));
#486 = CARTESIAN_POINT('',(171.05,40.114359353945));
#487 = CARTESIAN_POINT('',(168.65,38.72871870789));
#488 = CARTESIAN_POINT('',(168.65,41.5));
#489 = ( GEOMETRIC_REPRESENTATION_CONTEXT(2) 
PARAMETRIC_REPRESENTATION_CONTEXT() REPRESENTATION_CONTEXT('2D SPACE',''
  ) );
#490 = ORIENTED_EDGE('',*,*,#491,.T.);
#491 = EDGE_CURVE('',#464,#492,#494,.T.);
#492 = VERTEX_POINT('',#493);
#493 = CARTESIAN_POINT('',(-0.204090895796,-1.586930002593,0.54097572826
    ));
#494 = SURFACE_CURVE('',#495,(#516,#540),.PCURVE_S1.);
#495 = B_SPLINE_CURVE_WITH_KNOTS('',7,(#496,#497,#498,#499,#500,#501,
    #502,#503,#504,#505,#506,#507,#508,#509,#510,#511,#512,#513,#514,
    #515),.UNSPECIFIED.,.F.,.F.,(8,6,6,8),(0.,0.297403448113,
    0.611309794543,1.),.UNSPECIFIED.);
#496 = CARTESIAN_POINT('',(3.8E-02,-1.599548686349,0.75));
#497 = CARTESIAN_POINT('',(-3.039738692633E-02,-1.601173582624,
    0.693002177561));
#498 = CARTESIAN_POINT('',(-9.783561832332E-02,-1.599361808171,
    0.635540255296));
#499 = CARTESIAN_POINT('',(-0.164207420775,-1.594296966571,
    0.577666565015));
#500 = CARTESIAN_POINT('',(-0.229420133684,-1.586145481265,
    0.519427835822));
#501 = CARTESIAN_POINT('',(-0.293394343825,-1.575057890243,
    0.460865259877));
#502 = CARTESIAN_POINT('',(-0.356062519905,-1.56117014072,0.402014558154
    ));
#503 = CARTESIAN_POINT('',(-0.4820745919,-1.527120421891,0.280517606712)
  );
#504 = CARTESIAN_POINT('',(-0.545259973447,-1.506653935144,
    0.217844866482));
#505 = CARTESIAN_POINT('',(-0.606856514875,-1.483348605624,0.15492401435
    ));
#506 = CARTESIAN_POINT('',(-0.666804160804,-1.457333122182,
    9.179005873993E-02));
#507 = CARTESIAN_POINT('',(-0.725049599738,-1.428720417942,
    2.847727274156E-02));
#508 = CARTESIAN_POINT('',(-0.781545786448,-1.397606407756,
    -3.498036079944E-02));
#509 = CARTESIAN_POINT('',(-0.903990015776,-1.322541153234,
    -0.177261328962));
#510 = CARTESIAN_POINT('',(-0.968968361723,-1.277306406827,
    -0.256126326763));
#511 = CARTESIAN_POINT('',(-1.031125283825,-1.228502844166,
    -0.335095815368));
#512 = CARTESIAN_POINT('',(-1.090387466662,-1.176232203302,
    -0.414096406107));
#513 = CARTESIAN_POINT('',(-1.146674367682,-1.12054516886,
    -0.493020982612));
#514 = CARTESIAN_POINT('',(-1.199905843257,-1.061445332887,
    -0.571727880089));
#515 = CARTESIAN_POINT('',(-1.25,-0.998749217772,-0.65));
#516 = PCURVE('',#365,#517);
#517 = DEFINITIONAL_REPRESENTATION('',(#518),#539);
#518 = B_SPLINE_CURVE_WITH_KNOTS('',7,(#519,#520,#521,#522,#523,#524,
    #525,#526,#527,#528,#529,#530,#531,#532,#533,#534,#535,#536,#537,
    #538),.UNSPECIFIED.,.F.,.F.,(8,6,6,8),(0.,0.297403448113,
    0.611309794543,1.),.UNSPECIFIED.);
#519 = CARTESIAN_POINT('',(4.68863674707,-8.881784197001E-16));
#520 = CARTESIAN_POINT('',(4.731397175377,5.699782243861E-02));
#521 = CARTESIAN_POINT('',(4.773507371252,0.114459744704));
#522 = CARTESIAN_POINT('',(4.815030392741,0.172333434985));
#523 = CARTESIAN_POINT('',(4.856021540883,0.230572164178));
#524 = CARTESIAN_POINT('',(4.896531031707,0.289134740123));
#525 = CARTESIAN_POINT('',(4.936606668228,0.347985441846));
#526 = CARTESIAN_POINT('',(5.018188743563,0.469482393288));
#527 = CARTESIAN_POINT('',(5.059649095775,0.532155133518));
#528 = CARTESIAN_POINT('',(5.100733688416,0.59507598565));
#529 = CARTESIAN_POINT('',(5.141494357886,0.65820994126));
#530 = CARTESIAN_POINT('',(5.181981837133,0.721522727258));
#531 = CARTESIAN_POINT('',(5.222248935143,0.784980360799));
#532 = CARTESIAN_POINT('',(5.312012908925,0.927261328962));
#533 = CARTESIAN_POINT('',(5.361412308325,1.006126326763));
#534 = CARTESIAN_POINT('',(5.410674369455,1.085095815368));
#535 = CARTESIAN_POINT('',(5.459916543962,1.164096406107));
#536 = CARTESIAN_POINT('',(5.509273006618,1.243020982612));
#537 = CARTESIAN_POINT('',(5.55889790842,1.321727880089));
#538 = CARTESIAN_POINT('',(5.609054800512,1.4));
#539 = ( GEOMETRIC_REPRESENTATION_CONTEXT(2) 
PARAMETRIC_REPRESENTATION_CONTEXT() REPRESENTATION_CONTEXT('2D SPACE',''
  ) );
#540 = PCURVE('',#541,#546);
#541 = CONICAL_SURFACE('',#542,3.,0.785398163397);
#542 = AXIS2_PLACEMENT_3D('',#543,#544,#545);
#543 = CARTESIAN_POINT('',(-2.5,0.,0.75));
#544 = DIRECTION('',(-0.,-0.,1.));
#545 = DIRECTION('',(-1.,0.,0.));
#546 = DEFINITIONAL_REPRESENTATION('',(#547),#568);
#547 = B_SPLINE_CURVE_WITH_KNOTS('',7,(#548,#549,#550,#551,#552,#553,
    #554,#555,#556,#557,#558,#559,#560,#561,#562,#563,#564,#565,#566,
    #567),.UNSPECIFIED.,.F.,.F.,(8,6,6,8),(0.,0.297403448113,
    0.611309794543,1.),.UNSPECIFIED.);
#548 = CARTESIAN_POINT('',(-3.70395106561,8.881784197001E-16));
#549 = CARTESIAN_POINT('',(-3.71656539196,-5.699782243861E-02));
#550 = CARTESIAN_POINT('',(-3.728599373879,-0.114459744704));
#551 = CARTESIAN_POINT('',(-3.74005068855,-0.172333434985));
#552 = CARTESIAN_POINT('',(-3.75091043809,-0.230572164178));
#553 = CARTESIAN_POINT('',(-3.761162292355,-0.289134740123));
#554 = CARTESIAN_POINT('',(-3.770781631743,-0.347985441846));
#555 = CARTESIAN_POINT('',(-3.789184552887,-0.469482393288));
#556 = CARTESIAN_POINT('',(-3.797891889972,-0.532155133518));
#557 = CARTESIAN_POINT('',(-3.80581536008,-0.59507598565));
#558 = CARTESIAN_POINT('',(-3.812902735884,-0.65820994126));
#559 = CARTESIAN_POINT('',(-3.819084897453,-0.721522727258));
#560 = CARTESIAN_POINT('',(-3.824269825807,-0.784980360799));
#561 = CARTESIAN_POINT('',(-3.833372219158,-0.927261328962));
#562 = CARTESIAN_POINT('',(-3.836691922305,-1.006126326762));
#563 = CARTESIAN_POINT('',(-3.838064508151,-1.085095815369));
#564 = CARTESIAN_POINT('',(-3.83718414789,-1.164096406107));
#565 = CARTESIAN_POINT('',(-3.833619316173,-1.243020982612));
#566 = CARTESIAN_POINT('',(-3.826792943082,-1.321727880089));
#567 = CARTESIAN_POINT('',(-3.815723160257,-1.4));
#568 = ( GEOMETRIC_REPRESENTATION_CONTEXT(2) 
PARAMETRIC_REPRESENTATION_CONTEXT() REPRESENTATION_CONTEXT('2D SPACE',''
  ) );
#569 = ORIENTED_EDGE('',*,*,#570,.T.);
#570 = EDGE_CURVE('',#492,#318,#571,.T.);
#571 = SURFACE_CURVE('',#572,(#576,#582),.PCURVE_S1.);
#572 = LINE('',#573,#574);
#573 = CARTESIAN_POINT('',(-0.204090909091,-1.586930023922,0.75));
#574 = VECTOR('',#575,1.);
#575 = DIRECTION('',(0.,0.,-1.));
#576 = PCURVE('',#365,#577);
#577 = DEFINITIONAL_REPRESENTATION('',(#578),#581);
#578 = B_SPLINE_CURVE_WITH_KNOTS('',1,(#579,#580),.UNSPECIFIED.,.F.,.F.,
  (2,2),(-6.000000009054E-07,1.5000006),.PIECEWISE_BEZIER_KNOTS.);
#579 = CARTESIAN_POINT('',(4.84029426339,-6.000000009054E-07));
#580 = CARTESIAN_POINT('',(4.84029426339,1.5000006));
#581 = ( GEOMETRIC_REPRESENTATION_CONTEXT(2) 
PARAMETRIC_REPRESENTATION_CONTEXT() REPRESENTATION_CONTEXT('2D SPACE',''
  ) );
#582 = PCURVE('',#334,#583);
#583 = DEFINITIONAL_REPRESENTATION('',(#584),#587);
#584 = B_SPLINE_CURVE_WITH_KNOTS('',1,(#585,#586),.UNSPECIFIED.,.F.,.F.,
  (2,2),(0.20902427174,1.5),.PIECEWISE_BEZIER_KNOTS.);
#585 = CARTESIAN_POINT('',(3.69898691842,0.20902427174));
#586 = CARTESIAN_POINT('',(3.69898691842,1.5));
#587 = ( GEOMETRIC_REPRESENTATION_CONTEXT(2) 
PARAMETRIC_REPRESENTATION_CONTEXT() REPRESENTATION_CONTEXT('2D SPACE',''
  ) );
#588 = ADVANCED_FACE('',(#589),#440,.F.);
#589 = FACE_BOUND('',#590,.F.);
#590 = EDGE_LOOP('',(#591,#592,#660));
#591 = ORIENTED_EDGE('',*,*,#402,.F.);
#592 = ORIENTED_EDGE('',*,*,#593,.F.);
#593 = EDGE_CURVE('',#594,#382,#596,.T.);
#594 = VERTEX_POINT('',#595);
#595 = CARTESIAN_POINT('',(-2.625,2.99739470207,0.75));
#596 = SURFACE_CURVE('',#597,(#616,#638),.PCURVE_S1.);
#597 = B_SPLINE_CURVE_WITH_KNOTS('',5,(#598,#599,#600,#601,#602,#603,
    #604,#605,#606,#607,#608,#609,#610,#611,#612,#613,#614,#615),
  .UNSPECIFIED.,.F.,.F.,(6,4,4,4,6),(0.,0.250649060696,0.582780859379,
    0.736002005263,1.),.UNSPECIFIED.);
#598 = CARTESIAN_POINT('',(-2.625,2.99739470207,0.75));
#599 = CARTESIAN_POINT('',(-2.472914363398,2.99105229259,0.73732619695)
  );
#600 = CARTESIAN_POINT('',(-2.321309340116,2.975067058181,0.724625517491
    ));
#601 = CARTESIAN_POINT('',(-2.170987788554,2.949493430028,0.711964295857
    ));
#602 = CARTESIAN_POINT('',(-2.022732907737,2.914478674902,0.699410056633
    ));
#603 = CARTESIAN_POINT('',(-1.684607904719,2.811673142562,0.670628870483
    ));
#604 = CARTESIAN_POINT('',(-1.496870438739,2.736925311268,0.654534171296
    ));
#605 = CARTESIAN_POINT('',(-1.315875143275,2.646580003629,0.638907391309
    ));
#606 = CARTESIAN_POINT('',(-1.143286300348,2.541464113074,0.623907679431
    ));
#607 = CARTESIAN_POINT('',(-0.905593445328,2.367867898191,0.603128064986
    ));
#608 = CARTESIAN_POINT('',(-0.83266925927,2.310153832881,0.596734061541)
  );
#609 = CARTESIAN_POINT('',(-0.762007379782,2.249635166063,0.590520945136
    ));
#610 = CARTESIAN_POINT('',(-0.693748697,2.186429717374,0.584503146623));
#611 = CARTESIAN_POINT('',(-0.514786103212,2.007356747701,0.568686434162
    ));
#612 = CARTESIAN_POINT('',(-0.4090726627,1.88645162453,0.55929921992));
#613 = CARTESIAN_POINT('',(-0.311565662947,1.758612884998,0.550604009917
    ));
#614 = CARTESIAN_POINT('',(-0.222856228322,1.624586191757,0.542665200468
    ));
#615 = CARTESIAN_POINT('',(-0.143435490436,1.485200813857,0.535537245347
    ));
#616 = PCURVE('',#440,#617);
#617 = DEFINITIONAL_REPRESENTATION('',(#618),#637);
#618 = B_SPLINE_CURVE_WITH_KNOTS('',5,(#619,#620,#621,#622,#623,#624,
    #625,#626,#627,#628,#629,#630,#631,#632,#633,#634,#635,#636),
  .UNSPECIFIED.,.F.,.F.,(6,4,4,4,6),(0.,0.250649060696,0.582780859379,
    0.736002005263,1.),.UNSPECIFIED.);
#619 = CARTESIAN_POINT('',(-7.812302901552,1.110223024625E-15));
#620 = CARTESIAN_POINT('',(-7.862865999355,-1.267380305017E-02));
#621 = CARTESIAN_POINT('',(-7.913668748816,-2.537448250907E-02));
#622 = CARTESIAN_POINT('',(-7.964722665304,-3.80357041429E-02));
#623 = CARTESIAN_POINT('',(-8.016036646405,-5.058994336708E-02));
#624 = CARTESIAN_POINT('',(-8.135965387998,-7.937112951708E-02));
#625 = CARTESIAN_POINT('',(-8.204783177803,-9.546582870392E-02));
#626 = CARTESIAN_POINT('',(-8.274080034588,-0.111092608691));
#627 = CARTESIAN_POINT('',(-8.343865573665,-0.126092320569));
#628 = CARTESIAN_POINT('',(-8.446534585613,-0.146871935014));
#629 = CARTESIAN_POINT('',(-8.479046936212,-0.153265938459));
#630 = CARTESIAN_POINT('',(-8.511658823895,-0.159479054864));
#631 = CARTESIAN_POINT('',(-8.544368271988,-0.165496853377));
#632 = CARTESIAN_POINT('',(-8.633693869212,-0.181313565838));
#633 = CARTESIAN_POINT('',(-8.690497450352,-0.19070078008));
#634 = CARTESIAN_POINT('',(-8.747567211651,-0.199395990083));
#635 = CARTESIAN_POINT('',(-8.804884576293,-0.207334799532));
#636 = CARTESIAN_POINT('',(-8.86241954875,-0.214462754653));
#637 = ( GEOMETRIC_REPRESENTATION_CONTEXT(2) 
PARAMETRIC_REPRESENTATION_CONTEXT() REPRESENTATION_CONTEXT('2D SPACE',''
  ) );
#638 = PCURVE('',#334,#639);
#639 = DEFINITIONAL_REPRESENTATION('',(#640),#659);
#640 = B_SPLINE_CURVE_WITH_KNOTS('',5,(#641,#642,#643,#644,#645,#646,
    #647,#648,#649,#650,#651,#652,#653,#654,#655,#656,#657,#658),
  .UNSPECIFIED.,.F.,.F.,(6,4,4,4,6),(0.,0.250649060696,0.582780859379,
    0.736002005263,0.961011907335),.UNSPECIFIED.);
#641 = CARTESIAN_POINT('',(7.895660366397,-1.33226762955E-15));
#642 = CARTESIAN_POINT('',(7.946399642241,1.267380305017E-02));
#643 = CARTESIAN_POINT('',(7.997112437782,2.537448250907E-02));
#644 = CARTESIAN_POINT('',(8.047804124874,3.80357041429E-02));
#645 = CARTESIAN_POINT('',(8.098480172885,5.058994336708E-02));
#646 = CARTESIAN_POINT('',(8.216282971921,7.937112951708E-02));
#647 = CARTESIAN_POINT('',(8.283403851662,9.546582870392E-02));
#648 = CARTESIAN_POINT('',(8.350517290265,0.111092608691));
#649 = CARTESIAN_POINT('',(8.417641148519,0.126092320569));
#650 = CARTESIAN_POINT('',(8.515753068255,0.146871935014));
#651 = CARTESIAN_POINT('',(8.546729564849,0.153265938459));
#652 = CARTESIAN_POINT('',(8.577710457604,0.159479054864));
#653 = CARTESIAN_POINT('',(8.608696449381,0.165496853377));
#654 = CARTESIAN_POINT('',(8.685200228155,0.179835533334));
#655 = CARTESIAN_POINT('',(8.730725056337,0.187914568462));
#656 = CARTESIAN_POINT('',(8.776263054563,0.195498528825));
#657 = CARTESIAN_POINT('',(8.821816141592,0.2025469302));
#658 = CARTESIAN_POINT('',(8.867383699805,0.20902428249));
#659 = ( GEOMETRIC_REPRESENTATION_CONTEXT(2) 
PARAMETRIC_REPRESENTATION_CONTEXT() REPRESENTATION_CONTEXT('2D SPACE',''
  ) );
#660 = ORIENTED_EDGE('',*,*,#661,.T.);
#661 = EDGE_CURVE('',#594,#403,#662,.T.);
#662 = SURFACE_CURVE('',#663,(#668,#675),.PCURVE_S1.);
#663 = CIRCLE('',#664,3.);
#664 = AXIS2_PLACEMENT_3D('',#665,#666,#667);
#665 = CARTESIAN_POINT('',(-2.5,0.,0.75));
#666 = DIRECTION('',(0.,-0.,-1.));
#667 = DIRECTION('',(0.846,-0.53318289545,0.));
#668 = PCURVE('',#440,#669);
#669 = DEFINITIONAL_REPRESENTATION('',(#670),#674);
#670 = LINE('',#671,#672);
#671 = CARTESIAN_POINT('',(-3.70395106561,-0.));
#672 = VECTOR('',#673,1.);
#673 = DIRECTION('',(-1.,-0.));
#674 = ( GEOMETRIC_REPRESENTATION_CONTEXT(2) 
PARAMETRIC_REPRESENTATION_CONTEXT() REPRESENTATION_CONTEXT('2D SPACE',''
  ) );
#675 = PCURVE('',#126,#676);
#676 = DEFINITIONAL_REPRESENTATION('',(#677),#685);
#677 = ( BOUNDED_CURVE() B_SPLINE_CURVE(2,(#678,#679,#680,#681,#682,#683
,#684),.UNSPECIFIED.,.T.,.F.) B_SPLINE_CURVE_WITH_KNOTS((1,2,2,2,2,1),(
    -2.094395102393,0.,2.094395102393,4.188790204786,6.28318530718,
8.377580409573),.UNSPECIFIED.) CURVE() GEOMETRIC_REPRESENTATION_ITEM() 
RATIONAL_B_SPLINE_CURVE((1.,0.5,1.,0.5,1.,0.5,1.)) REPRESENTATION_ITEM(
  '') );
#678 = CARTESIAN_POINT('',(170.288,39.900451313651));
#679 = CARTESIAN_POINT('',(167.51750040606,35.504506364041));
#680 = CARTESIAN_POINT('',(165.09575020303,40.10180186837));
#681 = CARTESIAN_POINT('',(162.674,44.699097372698));
#682 = CARTESIAN_POINT('',(167.86624979696,44.497746817979));
#683 = CARTESIAN_POINT('',(173.05849959393,44.296396263261));
#684 = CARTESIAN_POINT('',(170.288,39.900451313651));
#685 = ( GEOMETRIC_REPRESENTATION_CONTEXT(2) 
PARAMETRIC_REPRESENTATION_CONTEXT() REPRESENTATION_CONTEXT('2D SPACE',''
  ) );
#686 = ADVANCED_FACE('',(#687),#541,.F.);
#687 = FACE_BOUND('',#688,.F.);
#688 = EDGE_LOOP('',(#689,#757,#758));
#689 = ORIENTED_EDGE('',*,*,#690,.F.);
#690 = EDGE_CURVE('',#492,#691,#693,.T.);
#691 = VERTEX_POINT('',#692);
#692 = CARTESIAN_POINT('',(-2.625,-2.99739470207,0.75));
#693 = SURFACE_CURVE('',#694,(#713,#735),.PCURVE_S1.);
#694 = B_SPLINE_CURVE_WITH_KNOTS('',5,(#695,#696,#697,#698,#699,#700,
    #701,#702,#703,#704,#705,#706,#707,#708,#709,#710,#711,#712),
  .UNSPECIFIED.,.F.,.F.,(6,4,4,4,6),(0.,0.261848708393,0.415728169591,
    0.749723920183,1.),.UNSPECIFIED.);
#695 = CARTESIAN_POINT('',(-0.143435490436,-1.485200813857,
    0.535537245347));
#696 = CARTESIAN_POINT('',(-0.22220982568,-1.623451738981,0.542607186288
    ));
#697 = CARTESIAN_POINT('',(-0.310122248141,-1.756430818559,
    0.550474834063));
#698 = CARTESIAN_POINT('',(-0.406693568308,-1.883328934884,0.55908705807
    ));
#699 = CARTESIAN_POINT('',(-0.511347762285,-2.003417810796,
    0.568381099422));
#700 = CARTESIAN_POINT('',(-0.689284892769,-2.182240187785,
    0.584109443769));
#701 = CARTESIAN_POINT('',(-0.757710562596,-2.245855725848,
    0.590142800888));
#702 = CARTESIAN_POINT('',(-0.828565425296,-2.306765936865,
    0.596373704255));
#703 = CARTESIAN_POINT('',(-0.901706966168,-2.364851211489,0.60278754921
    ));
#704 = CARTESIAN_POINT('',(-1.140373613213,-2.539710383478,
    0.623654620944));
#705 = CARTESIAN_POINT('',(-1.313828842988,-2.645600790598,
    0.638730936154));
#706 = CARTESIAN_POINT('',(-1.495798580113,-2.736560556192,
    0.654442654468));
#707 = CARTESIAN_POINT('',(-1.684590722023,-2.81174787924,0.670627926226
    ));
#708 = CARTESIAN_POINT('',(-2.023620986641,-2.914688380281,
    0.699485258914));
#709 = CARTESIAN_POINT('',(-2.171664885009,-2.949608740642,
    0.712021326866));
#710 = CARTESIAN_POINT('',(-2.321766971495,-2.975115565086,
    0.724663857262));
#711 = CARTESIAN_POINT('',(-2.47314750121,-2.991062380515,0.737345627632
    ));
#712 = CARTESIAN_POINT('',(-2.625007200001,-2.997395002323,0.7500006));
#713 = PCURVE('',#541,#714);
#714 = DEFINITIONAL_REPRESENTATION('',(#715),#734);
#715 = B_SPLINE_CURVE_WITH_KNOTS('',5,(#716,#717,#718,#719,#720,#721,
    #722,#723,#724,#725,#726,#727,#728,#729,#730,#731,#732,#733),
  .UNSPECIFIED.,.F.,.F.,(6,4,4,4,6),(0.,0.261848708393,0.415728169591,
    0.749723920183,1.),.UNSPECIFIED.);
#716 = CARTESIAN_POINT('',(-3.70395106561,-0.214462754653));
#717 = CARTESIAN_POINT('',(-3.761017762913,-0.207392813712));
#718 = CARTESIAN_POINT('',(-3.817870365339,-0.199525165937));
#719 = CARTESIAN_POINT('',(-3.874479632906,-0.19091294193));
#720 = CARTESIAN_POINT('',(-3.930827344071,-0.181618900578));
#721 = CARTESIAN_POINT('',(-4.019848363296,-0.165890556231));
#722 = CARTESIAN_POINT('',(-4.052703472299,-0.159857199112));
#723 = CARTESIAN_POINT('',(-4.085460262924,-0.153626295745));
#724 = CARTESIAN_POINT('',(-4.118116714371,-0.14721245079));
#725 = CARTESIAN_POINT('',(-4.221331993412,-0.126345379056));
#726 = CARTESIAN_POINT('',(-4.291515411759,-0.111269063846));
#727 = CARTESIAN_POINT('',(-4.361204549078,-9.555734553172E-02));
#728 = CARTESIAN_POINT('',(-4.430409218206,-7.937207377369E-02));
#729 = CARTESIAN_POINT('',(-4.550641350791,-5.051474108615E-02));
#730 = CARTESIAN_POINT('',(-4.601877925187,-3.797867313356E-02));
#731 = CARTESIAN_POINT('',(-4.652855234219,-2.533614273756E-02));
#732 = CARTESIAN_POINT('',(-4.703582140205,-1.265437236825E-02));
#733 = CARTESIAN_POINT('',(-4.754070106553,5.999999997397E-07));
#734 = ( GEOMETRIC_REPRESENTATION_CONTEXT(2) 
PARAMETRIC_REPRESENTATION_CONTEXT() REPRESENTATION_CONTEXT('2D SPACE',''
  ) );
#735 = PCURVE('',#334,#736);
#736 = DEFINITIONAL_REPRESENTATION('',(#737),#756);
#737 = B_SPLINE_CURVE_WITH_KNOTS('',5,(#738,#739,#740,#741,#742,#743,
    #744,#745,#746,#747,#748,#749,#750,#751,#752,#753,#754,#755),
  .UNSPECIFIED.,.F.,.F.,(6,4,4,4,6),(3.898799855692E-02,0.261848708393,
    0.415728169591,0.749723920183,0.999997626772),.UNSPECIFIED.);
#738 = CARTESIAN_POINT('',(3.698986909859,0.20902428319));
#739 = CARTESIAN_POINT('',(3.744119329328,0.202608785229));
#740 = CARTESIAN_POINT('',(3.789237549886,0.195633092677));
#741 = CARTESIAN_POINT('',(3.834340982354,0.188131686905));
#742 = CARTESIAN_POINT('',(3.879431462489,0.180143858203));
#743 = CARTESIAN_POINT('',(3.955634646443,0.165890556231));
#744 = CARTESIAN_POINT('',(3.986754115302,0.159857199112));
#745 = CARTESIAN_POINT('',(4.017868415788,0.153626295745));
#746 = CARTESIAN_POINT('',(4.048978255684,0.14721245079));
#747 = CARTESIAN_POINT('',(4.147600711116,0.126345379056));
#748 = CARTESIAN_POINT('',(4.215101550634,0.111269063846));
#749 = CARTESIAN_POINT('',(4.282591706439,9.555734553172E-02));
#750 = CARTESIAN_POINT('',(4.350089404629,7.937207377369E-02));
#751 = CARTESIAN_POINT('',(4.468193524064,5.051485830045E-02));
#752 = CARTESIAN_POINT('',(4.518793871008,3.797891087853E-02));
#753 = CARTESIAN_POINT('',(4.569409826872,2.533650238358E-02));
#754 = CARTESIAN_POINT('',(4.620046836676,1.265485338465E-02));
#755 = CARTESIAN_POINT('',(4.670710247962,2.422455148599E-15));
#756 = ( GEOMETRIC_REPRESENTATION_CONTEXT(2) 
PARAMETRIC_REPRESENTATION_CONTEXT() REPRESENTATION_CONTEXT('2D SPACE',''
  ) );
#757 = ORIENTED_EDGE('',*,*,#491,.F.);
#758 = ORIENTED_EDGE('',*,*,#759,.T.);
#759 = EDGE_CURVE('',#464,#691,#760,.T.);
#760 = SURFACE_CURVE('',#761,(#766,#773),.PCURVE_S1.);
#761 = CIRCLE('',#762,3.);
#762 = AXIS2_PLACEMENT_3D('',#763,#764,#765);
#763 = CARTESIAN_POINT('',(-2.5,0.,0.75));
#764 = DIRECTION('',(0.,-0.,-1.));
#765 = DIRECTION('',(0.846,-0.53318289545,0.));
#766 = PCURVE('',#541,#767);
#767 = DEFINITIONAL_REPRESENTATION('',(#768),#772);
#768 = LINE('',#769,#770);
#769 = CARTESIAN_POINT('',(-3.70395106561,-0.));
#770 = VECTOR('',#771,1.);
#771 = DIRECTION('',(-1.,-0.));
#772 = ( GEOMETRIC_REPRESENTATION_CONTEXT(2) 
PARAMETRIC_REPRESENTATION_CONTEXT() REPRESENTATION_CONTEXT('2D SPACE',''
  ) );
#773 = PCURVE('',#126,#774);
#774 = DEFINITIONAL_REPRESENTATION('',(#775),#783);
#775 = ( BOUNDED_CURVE() B_SPLINE_CURVE(2,(#776,#777,#778,#779,#780,#781
,#782),.UNSPECIFIED.,.T.,.F.) B_SPLINE_CURVE_WITH_KNOTS((1,2,2,2,2,1),(
    -2.094395102393,0.,2.094395102393,4.188790204786,6.28318530718,
8.377580409573),.UNSPECIFIED.) CURVE() GEOMETRIC_REPRESENTATION_ITEM() 
RATIONAL_B_SPLINE_CURVE((1.,0.5,1.,0.5,1.,0.5,1.)) REPRESENTATION_ITEM(
  '') );
#776 = CARTESIAN_POINT('',(170.288,39.900451313651));
#777 = CARTESIAN_POINT('',(167.51750040606,35.504506364041));
#778 = CARTESIAN_POINT('',(165.09575020303,40.10180186837));
#779 = CARTESIAN_POINT('',(162.674,44.699097372698));
#780 = CARTESIAN_POINT('',(167.86624979696,44.497746817979));
#781 = CARTESIAN_POINT('',(173.05849959393,44.296396263261));
#782 = CARTESIAN_POINT('',(170.288,39.900451313651));
#783 = ( GEOMETRIC_REPRESENTATION_CONTEXT(2) 
PARAMETRIC_REPRESENTATION_CONTEXT() REPRESENTATION_CONTEXT('2D SPACE',''
  ) );
#784 = ADVANCED_FACE('',(#785),#334,.F.);
#785 = FACE_BOUND('',#786,.F.);
#786 = EDGE_LOOP('',(#787,#788,#789,#790,#816,#817));
#787 = ORIENTED_EDGE('',*,*,#315,.T.);
#788 = ORIENTED_EDGE('',*,*,#570,.F.);
#789 = ORIENTED_EDGE('',*,*,#690,.T.);
#790 = ORIENTED_EDGE('',*,*,#791,.T.);
#791 = EDGE_CURVE('',#691,#594,#792,.T.);
#792 = SURFACE_CURVE('',#793,(#798,#805),.PCURVE_S1.);
#793 = CIRCLE('',#794,3.);
#794 = AXIS2_PLACEMENT_3D('',#795,#796,#797);
#795 = CARTESIAN_POINT('',(-2.75,0.,0.75));
#796 = DIRECTION('',(0.,-0.,-1.));
#797 = DIRECTION('',(4.166666666668E-02,-0.999131567357,0.));
#798 = PCURVE('',#334,#799);
#799 = DEFINITIONAL_REPRESENTATION('',(#800),#804);
#800 = LINE('',#801,#802);
#801 = CARTESIAN_POINT('',(4.670710247962,0.));
#802 = VECTOR('',#803,1.);
#803 = DIRECTION('',(1.,0.));
#804 = ( GEOMETRIC_REPRESENTATION_CONTEXT(2) 
PARAMETRIC_REPRESENTATION_CONTEXT() REPRESENTATION_CONTEXT('2D SPACE',''
  ) );
#805 = PCURVE('',#126,#806);
#806 = DEFINITIONAL_REPRESENTATION('',(#807),#815);
#807 = ( BOUNDED_CURVE() B_SPLINE_CURVE(2,(#808,#809,#810,#811,#812,#813
,#814),.UNSPECIFIED.,.T.,.F.) B_SPLINE_CURVE_WITH_KNOTS((1,2,2,2,2,1),(
    -2.094395102393,0.,2.094395102393,4.188790204786,6.28318530718,
8.377580409573),.UNSPECIFIED.) CURVE() GEOMETRIC_REPRESENTATION_ITEM() 
RATIONAL_B_SPLINE_CURVE((1.,0.5,1.,0.5,1.,0.5,1.)) REPRESENTATION_ITEM(
  '') );
#808 = CARTESIAN_POINT('',(167.625,38.50260529793));
#809 = CARTESIAN_POINT('',(162.43336008567,38.286098946983));
#810 = CARTESIAN_POINT('',(164.84168004283,42.890444175562));
#811 = CARTESIAN_POINT('',(167.25,47.494789404141));
#812 = CARTESIAN_POINT('',(170.03331995716,43.106950526508));
#813 = CARTESIAN_POINT('',(172.81663991432,38.719111648876));
#814 = CARTESIAN_POINT('',(167.625,38.50260529793));
#815 = ( GEOMETRIC_REPRESENTATION_CONTEXT(2) 
PARAMETRIC_REPRESENTATION_CONTEXT() REPRESENTATION_CONTEXT('2D SPACE',''
  ) );
#816 = ORIENTED_EDGE('',*,*,#593,.T.);
#817 = ORIENTED_EDGE('',*,*,#381,.T.);
#818 = ADVANCED_FACE('',(#819),#301,.F.);
#819 = FACE_BOUND('',#820,.F.);
#820 = EDGE_LOOP('',(#821,#822,#845,#871));
#821 = ORIENTED_EDGE('',*,*,#280,.F.);
#822 = ORIENTED_EDGE('',*,*,#823,.F.);
#823 = EDGE_CURVE('',#824,#281,#826,.T.);
#824 = VERTEX_POINT('',#825);
#825 = CARTESIAN_POINT('',(-159.85,-25.,0.75));
#826 = SEAM_CURVE('',#827,(#831,#838),.PCURVE_S1.);
#827 = LINE('',#828,#829);
#828 = CARTESIAN_POINT('',(-159.85,-25.,0.75));
#829 = VECTOR('',#830,1.);
#830 = DIRECTION('',(0.,0.,-1.));
#831 = PCURVE('',#301,#832);
#832 = DEFINITIONAL_REPRESENTATION('',(#833),#837);
#833 = LINE('',#834,#835);
#834 = CARTESIAN_POINT('',(6.28318530718,-0.));
#835 = VECTOR('',#836,1.);
#836 = DIRECTION('',(0.,1.));
#837 = ( GEOMETRIC_REPRESENTATION_CONTEXT(2) 
PARAMETRIC_REPRESENTATION_CONTEXT() REPRESENTATION_CONTEXT('2D SPACE',''
  ) );
#838 = PCURVE('',#301,#839);
#839 = DEFINITIONAL_REPRESENTATION('',(#840),#844);
#840 = LINE('',#841,#842);
#841 = CARTESIAN_POINT('',(0.,-0.));
#842 = VECTOR('',#843,1.);
#843 = DIRECTION('',(0.,1.));
#844 = ( GEOMETRIC_REPRESENTATION_CONTEXT(2) 
PARAMETRIC_REPRESENTATION_CONTEXT() REPRESENTATION_CONTEXT('2D SPACE',''
  ) );
#845 = ORIENTED_EDGE('',*,*,#846,.T.);
#846 = EDGE_CURVE('',#824,#824,#847,.T.);
#847 = SURFACE_CURVE('',#848,(#853,#860),.PCURVE_S1.);
#848 = CIRCLE('',#849,1.6);
#849 = AXIS2_PLACEMENT_3D('',#850,#851,#852);
#850 = CARTESIAN_POINT('',(-158.25,-25.,0.75));
#851 = DIRECTION('',(0.,0.,-1.));
#852 = DIRECTION('',(-1.,0.,0.));
#853 = PCURVE('',#301,#854);
#854 = DEFINITIONAL_REPRESENTATION('',(#855),#859);
#855 = LINE('',#856,#857);
#856 = CARTESIAN_POINT('',(0.,0.));
#857 = VECTOR('',#858,1.);
#858 = DIRECTION('',(1.,0.));
#859 = ( GEOMETRIC_REPRESENTATION_CONTEXT(2) 
PARAMETRIC_REPRESENTATION_CONTEXT() REPRESENTATION_CONTEXT('2D SPACE',''
  ) );
#860 = PCURVE('',#126,#861);
#861 = DEFINITIONAL_REPRESENTATION('',(#862),#870);
#862 = ( BOUNDED_CURVE() B_SPLINE_CURVE(2,(#863,#864,#865,#866,#867,#868
,#869),.UNSPECIFIED.,.T.,.F.) B_SPLINE_CURVE_WITH_KNOTS((1,2,2,2,2,1),(
    -2.094395102393,0.,2.094395102393,4.188790204786,6.28318530718,
8.377580409573),.UNSPECIFIED.) CURVE() GEOMETRIC_REPRESENTATION_ITEM() 
RATIONAL_B_SPLINE_CURVE((1.,0.5,1.,0.5,1.,0.5,1.)) REPRESENTATION_ITEM(
  '') );
#863 = CARTESIAN_POINT('',(10.4,16.5));
#864 = CARTESIAN_POINT('',(10.4,19.27128129211));
#865 = CARTESIAN_POINT('',(12.8,17.885640646055));
#866 = CARTESIAN_POINT('',(15.2,16.5));
#867 = CARTESIAN_POINT('',(12.8,15.114359353945));
#868 = CARTESIAN_POINT('',(10.4,13.72871870789));
#869 = CARTESIAN_POINT('',(10.4,16.5));
#870 = ( GEOMETRIC_REPRESENTATION_CONTEXT(2) 
PARAMETRIC_REPRESENTATION_CONTEXT() REPRESENTATION_CONTEXT('2D SPACE',''
  ) );
#871 = ORIENTED_EDGE('',*,*,#823,.T.);
#872 = ADVANCED_FACE('',(#873),#266,.F.);
#873 = FACE_BOUND('',#874,.F.);
#874 = EDGE_LOOP('',(#875,#896,#925,#944));
#875 = ORIENTED_EDGE('',*,*,#876,.F.);
#876 = EDGE_CURVE('',#877,#217,#879,.T.);
#877 = VERTEX_POINT('',#878);
#878 = CARTESIAN_POINT('',(-141.25,-34.25100040032,-0.65));
#879 = SURFACE_CURVE('',#880,(#884,#890),.PCURVE_S1.);
#880 = LINE('',#881,#882);
#881 = CARTESIAN_POINT('',(-141.25,-34.25100040032,0.75));
#882 = VECTOR('',#883,1.);
#883 = DIRECTION('',(0.,0.,-1.));
#884 = PCURVE('',#266,#885);
#885 = DEFINITIONAL_REPRESENTATION('',(#886),#889);
#886 = B_SPLINE_CURVE_WITH_KNOTS('',1,(#887,#888),.UNSPECIFIED.,.F.,.F.,
  (2,2),(1.3999994,1.5000006),.PIECEWISE_BEZIER_KNOTS.);
#887 = CARTESIAN_POINT('',(0.895664793858,1.3999994));
#888 = CARTESIAN_POINT('',(0.895664793858,1.5000006));
#889 = ( GEOMETRIC_REPRESENTATION_CONTEXT(2) 
PARAMETRIC_REPRESENTATION_CONTEXT() REPRESENTATION_CONTEXT('2D SPACE',''
  ) );
#890 = PCURVE('',#235,#891);
#891 = DEFINITIONAL_REPRESENTATION('',(#892),#895);
#892 = B_SPLINE_CURVE_WITH_KNOTS('',1,(#893,#894),.UNSPECIFIED.,.F.,.F.,
  (2,2),(1.4,1.5),.PIECEWISE_BEZIER_KNOTS.);
#893 = CARTESIAN_POINT('',(8.529113166912,1.4));
#894 = CARTESIAN_POINT('',(8.529113166912,1.5));
#895 = ( GEOMETRIC_REPRESENTATION_CONTEXT(2) 
PARAMETRIC_REPRESENTATION_CONTEXT() REPRESENTATION_CONTEXT('2D SPACE',''
  ) );
#896 = ORIENTED_EDGE('',*,*,#897,.T.);
#897 = EDGE_CURVE('',#877,#898,#900,.T.);
#898 = VERTEX_POINT('',#899);
#899 = CARTESIAN_POINT('',(-141.25,-36.74899959968,-0.65));
#900 = SURFACE_CURVE('',#901,(#906,#913),.PCURVE_S1.);
#901 = CIRCLE('',#902,1.6);
#902 = AXIS2_PLACEMENT_3D('',#903,#904,#905);
#903 = CARTESIAN_POINT('',(-140.25,-35.5,-0.65));
#904 = DIRECTION('',(0.,0.,-1.));
#905 = DIRECTION('',(0.,1.,0.));
#906 = PCURVE('',#266,#907);
#907 = DEFINITIONAL_REPRESENTATION('',(#908),#912);
#908 = LINE('',#909,#910);
#909 = CARTESIAN_POINT('',(-4.712388980385,1.4));
#910 = VECTOR('',#911,1.);
#911 = DIRECTION('',(1.,0.));
#912 = ( GEOMETRIC_REPRESENTATION_CONTEXT(2) 
PARAMETRIC_REPRESENTATION_CONTEXT() REPRESENTATION_CONTEXT('2D SPACE',''
  ) );
#913 = PCURVE('',#914,#919);
#914 = CONICAL_SURFACE('',#915,3.,0.785398163397);
#915 = AXIS2_PLACEMENT_3D('',#916,#917,#918);
#916 = CARTESIAN_POINT('',(-140.25,-35.5,0.75));
#917 = DIRECTION('',(0.,0.,1.));
#918 = DIRECTION('',(-1.,0.,0.));
#919 = DEFINITIONAL_REPRESENTATION('',(#920),#924);
#920 = LINE('',#921,#922);
#921 = CARTESIAN_POINT('',(4.712388980385,-1.4));
#922 = VECTOR('',#923,1.);
#923 = DIRECTION('',(-1.,-0.));
#924 = ( GEOMETRIC_REPRESENTATION_CONTEXT(2) 
PARAMETRIC_REPRESENTATION_CONTEXT() REPRESENTATION_CONTEXT('2D SPACE',''
  ) );
#925 = ORIENTED_EDGE('',*,*,#926,.T.);
#926 = EDGE_CURVE('',#898,#219,#927,.T.);
#927 = SURFACE_CURVE('',#928,(#932,#938),.PCURVE_S1.);
#928 = LINE('',#929,#930);
#929 = CARTESIAN_POINT('',(-141.25,-36.74899959968,0.75));
#930 = VECTOR('',#931,1.);
#931 = DIRECTION('',(0.,0.,-1.));
#932 = PCURVE('',#266,#933);
#933 = DEFINITIONAL_REPRESENTATION('',(#934),#937);
#934 = B_SPLINE_CURVE_WITH_KNOTS('',1,(#935,#936),.UNSPECIFIED.,.F.,.F.,
  (2,2),(1.3999994,1.5000006),.PIECEWISE_BEZIER_KNOTS.);
#935 = CARTESIAN_POINT('',(5.387520513322,1.3999994));
#936 = CARTESIAN_POINT('',(5.387520513322,1.5000006));
#937 = ( GEOMETRIC_REPRESENTATION_CONTEXT(2) 
PARAMETRIC_REPRESENTATION_CONTEXT() REPRESENTATION_CONTEXT('2D SPACE',''
  ) );
#938 = PCURVE('',#235,#939);
#939 = DEFINITIONAL_REPRESENTATION('',(#940),#943);
#940 = B_SPLINE_CURVE_WITH_KNOTS('',1,(#941,#942),.UNSPECIFIED.,.F.,.F.,
  (2,2),(1.4,1.5),.PIECEWISE_BEZIER_KNOTS.);
#941 = CARTESIAN_POINT('',(4.037257447448,1.4));
#942 = CARTESIAN_POINT('',(4.037257447448,1.5));
#943 = ( GEOMETRIC_REPRESENTATION_CONTEXT(2) 
PARAMETRIC_REPRESENTATION_CONTEXT() REPRESENTATION_CONTEXT('2D SPACE',''
  ) );
#944 = ORIENTED_EDGE('',*,*,#247,.F.);
#945 = ADVANCED_FACE('',(#946),#914,.F.);
#946 = FACE_BOUND('',#947,.F.);
#947 = EDGE_LOOP('',(#948,#949,#986,#1014));
#948 = ORIENTED_EDGE('',*,*,#897,.F.);
#949 = ORIENTED_EDGE('',*,*,#950,.F.);
#950 = EDGE_CURVE('',#951,#877,#953,.T.);
#951 = VERTEX_POINT('',#952);
#952 = CARTESIAN_POINT('',(-141.25,-32.67157287525,0.75));
#953 = SURFACE_CURVE('',#954,(#959,#970),.PCURVE_S1.);
#954 = HYPERBOLA('',#955,1.,1.);
#955 = AXIS2_PLACEMENT_3D('',#956,#957,#958);
#956 = CARTESIAN_POINT('',(-141.25,-35.5,-2.25));
#957 = DIRECTION('',(1.,0.,0.));
#958 = DIRECTION('',(0.,-0.,1.));
#959 = PCURVE('',#914,#960);
#960 = DEFINITIONAL_REPRESENTATION('',(#961),#969);
#961 = B_SPLINE_CURVE_WITH_KNOTS('',6,(#962,#963,#964,#965,#966,#967,
    #968),.UNSPECIFIED.,.F.,.F.,(7,7),(-1.762747174039,-1.046967915003),
  .PIECEWISE_BEZIER_KNOTS.);
#962 = CARTESIAN_POINT('',(-1.230959417341,1.831867990632E-15));
#963 = CARTESIAN_POINT('',(-1.19119390295,-0.337421578598));
#964 = CARTESIAN_POINT('',(-1.14606161066,-0.623609383444));
#965 = CARTESIAN_POINT('',(-1.094767823099,-0.867205501513));
#966 = CARTESIAN_POINT('',(-1.036453053785,-1.074672328082));
#967 = CARTESIAN_POINT('',(-0.970225133341,-1.250998665335));
#968 = CARTESIAN_POINT('',(-0.895664793858,-1.4));
#969 = ( GEOMETRIC_REPRESENTATION_CONTEXT(2) 
PARAMETRIC_REPRESENTATION_CONTEXT() REPRESENTATION_CONTEXT('2D SPACE',''
  ) );
#970 = PCURVE('',#971,#976);
#971 = CONICAL_SURFACE('',#972,3.,0.785398163397);
#972 = AXIS2_PLACEMENT_3D('',#973,#974,#975);
#973 = CARTESIAN_POINT('',(-142.25,-35.5,0.75));
#974 = DIRECTION('',(-0.,-0.,1.));
#975 = DIRECTION('',(-1.,0.,0.));
#976 = DEFINITIONAL_REPRESENTATION('',(#977),#985);
#977 = B_SPLINE_CURVE_WITH_KNOTS('',6,(#978,#979,#980,#981,#982,#983,
    #984),.UNSPECIFIED.,.F.,.F.,(7,7),(-1.762747174039,-1.046967915003),
  .PIECEWISE_BEZIER_KNOTS.);
#978 = CARTESIAN_POINT('',(-8.193818543429,1.554312234475E-15));
#979 = CARTESIAN_POINT('',(-8.23358405782,-0.337421578598));
#980 = CARTESIAN_POINT('',(-8.27871635011,-0.623609383444));
#981 = CARTESIAN_POINT('',(-8.33001013767,-0.867205501513));
#982 = CARTESIAN_POINT('',(-8.388324906985,-1.074672328082));
#983 = CARTESIAN_POINT('',(-8.454552827429,-1.250998665335));
#984 = CARTESIAN_POINT('',(-8.529113166912,-1.4));
#985 = ( GEOMETRIC_REPRESENTATION_CONTEXT(2) 
PARAMETRIC_REPRESENTATION_CONTEXT() REPRESENTATION_CONTEXT('2D SPACE',''
  ) );
#986 = ORIENTED_EDGE('',*,*,#987,.T.);
#987 = EDGE_CURVE('',#951,#988,#990,.T.);
#988 = VERTEX_POINT('',#989);
#989 = CARTESIAN_POINT('',(-141.25,-38.32842712474,0.75));
#990 = SURFACE_CURVE('',#991,(#996,#1003),.PCURVE_S1.);
#991 = CIRCLE('',#992,3.);
#992 = AXIS2_PLACEMENT_3D('',#993,#994,#995);
#993 = CARTESIAN_POINT('',(-140.25,-35.5,0.75));
#994 = DIRECTION('',(0.,0.,-1.));
#995 = DIRECTION('',(-1.,0.,0.));
#996 = PCURVE('',#914,#997);
#997 = DEFINITIONAL_REPRESENTATION('',(#998),#1002);
#998 = LINE('',#999,#1000);
#999 = CARTESIAN_POINT('',(-0.,-0.));
#1000 = VECTOR('',#1001,1.);
#1001 = DIRECTION('',(-1.,-0.));
#1002 = ( GEOMETRIC_REPRESENTATION_CONTEXT(2) 
PARAMETRIC_REPRESENTATION_CONTEXT() REPRESENTATION_CONTEXT('2D SPACE',''
  ) );
#1003 = PCURVE('',#126,#1004);
#1004 = DEFINITIONAL_REPRESENTATION('',(#1005),#1013);
#1005 = ( BOUNDED_CURVE() B_SPLINE_CURVE(2,(#1006,#1007,#1008,#1009,
#1010,#1011,#1012),.UNSPECIFIED.,.T.,.F.) B_SPLINE_CURVE_WITH_KNOTS((1,2
    ,2,2,2,1),(-2.094395102393,0.,2.094395102393,4.188790204786,
6.28318530718,8.377580409573),.UNSPECIFIED.) CURVE() 
GEOMETRIC_REPRESENTATION_ITEM() RATIONAL_B_SPLINE_CURVE((1.,0.5,1.,0.5,
1.,0.5,1.)) REPRESENTATION_ITEM('') );
#1006 = CARTESIAN_POINT('',(27.,6.));
#1007 = CARTESIAN_POINT('',(27.,11.196152422707));
#1008 = CARTESIAN_POINT('',(31.5,8.598076211353));
#1009 = CARTESIAN_POINT('',(36.,6.));
#1010 = CARTESIAN_POINT('',(31.5,3.401923788647));
#1011 = CARTESIAN_POINT('',(27.,0.803847577293));
#1012 = CARTESIAN_POINT('',(27.,6.));
#1013 = ( GEOMETRIC_REPRESENTATION_CONTEXT(2) 
PARAMETRIC_REPRESENTATION_CONTEXT() REPRESENTATION_CONTEXT('2D SPACE',''
  ) );
#1014 = ORIENTED_EDGE('',*,*,#1015,.F.);
#1015 = EDGE_CURVE('',#898,#988,#1016,.T.);
#1016 = SURFACE_CURVE('',#1017,(#1022,#1033),.PCURVE_S1.);
#1017 = HYPERBOLA('',#1018,1.,1.);
#1018 = AXIS2_PLACEMENT_3D('',#1019,#1020,#1021);
#1019 = CARTESIAN_POINT('',(-141.25,-35.5,-2.25));
#1020 = DIRECTION('',(1.,0.,0.));
#1021 = DIRECTION('',(0.,-0.,1.));
#1022 = PCURVE('',#914,#1023);
#1023 = DEFINITIONAL_REPRESENTATION('',(#1024),#1032);
#1024 = B_SPLINE_CURVE_WITH_KNOTS('',6,(#1025,#1026,#1027,#1028,#1029,
    #1030,#1031),.UNSPECIFIED.,.F.,.F.,(7,7),(1.046967915003,
    1.762747174039),.PIECEWISE_BEZIER_KNOTS.);
#1025 = CARTESIAN_POINT('',(-5.387520513322,-1.4));
#1026 = CARTESIAN_POINT('',(-5.312960173839,-1.250998665335));
#1027 = CARTESIAN_POINT('',(-5.246732253395,-1.074672328082));
#1028 = CARTESIAN_POINT('',(-5.18841748408,-0.867205501513));
#1029 = CARTESIAN_POINT('',(-5.13712369652,-0.623609383444));
#1030 = CARTESIAN_POINT('',(-5.09199140423,-0.337421578598));
#1031 = CARTESIAN_POINT('',(-5.052225889839,1.609823385706E-15));
#1032 = ( GEOMETRIC_REPRESENTATION_CONTEXT(2) 
PARAMETRIC_REPRESENTATION_CONTEXT() REPRESENTATION_CONTEXT('2D SPACE',''
  ) );
#1033 = PCURVE('',#971,#1034);
#1034 = DEFINITIONAL_REPRESENTATION('',(#1035),#1043);
#1035 = B_SPLINE_CURVE_WITH_KNOTS('',6,(#1036,#1037,#1038,#1039,#1040,
    #1041,#1042),.UNSPECIFIED.,.F.,.F.,(7,7),(1.046967915003,
    1.762747174039),.PIECEWISE_BEZIER_KNOTS.);
#1036 = CARTESIAN_POINT('',(-4.037257447447,-1.4));
#1037 = CARTESIAN_POINT('',(-4.11181778693,-1.250998665335));
#1038 = CARTESIAN_POINT('',(-4.178045707375,-1.074672328082));
#1039 = CARTESIAN_POINT('',(-4.236360476689,-0.867205501513));
#1040 = CARTESIAN_POINT('',(-4.287654264249,-0.623609383444));
#1041 = CARTESIAN_POINT('',(-4.33278655654,-0.337421578598));
#1042 = CARTESIAN_POINT('',(-4.372552070931,1.7763568394E-15));
#1043 = ( GEOMETRIC_REPRESENTATION_CONTEXT(2) 
PARAMETRIC_REPRESENTATION_CONTEXT() REPRESENTATION_CONTEXT('2D SPACE',''
  ) );
#1044 = ADVANCED_FACE('',(#1045),#971,.F.);
#1045 = FACE_BOUND('',#1046,.F.);
#1046 = EDGE_LOOP('',(#1047,#1069,#1070,#1096));
#1047 = ORIENTED_EDGE('',*,*,#1048,.F.);
#1048 = EDGE_CURVE('',#898,#877,#1049,.T.);
#1049 = SURFACE_CURVE('',#1050,(#1055,#1062),.PCURVE_S1.);
#1050 = CIRCLE('',#1051,1.6);
#1051 = AXIS2_PLACEMENT_3D('',#1052,#1053,#1054);
#1052 = CARTESIAN_POINT('',(-142.25,-35.5,-0.65));
#1053 = DIRECTION('',(0.,-0.,-1.));
#1054 = DIRECTION('',(0.625,-0.7806247498,0.));
#1055 = PCURVE('',#971,#1056);
#1056 = DEFINITIONAL_REPRESENTATION('',(#1057),#1061);
#1057 = LINE('',#1058,#1059);
#1058 = CARTESIAN_POINT('',(-4.037257447448,-1.4));
#1059 = VECTOR('',#1060,1.);
#1060 = DIRECTION('',(-1.,-0.));
#1061 = ( GEOMETRIC_REPRESENTATION_CONTEXT(2) 
PARAMETRIC_REPRESENTATION_CONTEXT() REPRESENTATION_CONTEXT('2D SPACE',''
  ) );
#1062 = PCURVE('',#235,#1063);
#1063 = DEFINITIONAL_REPRESENTATION('',(#1064),#1068);
#1064 = LINE('',#1065,#1066);
#1065 = CARTESIAN_POINT('',(4.037257447448,1.4));
#1066 = VECTOR('',#1067,1.);
#1067 = DIRECTION('',(1.,0.));
#1068 = ( GEOMETRIC_REPRESENTATION_CONTEXT(2) 
PARAMETRIC_REPRESENTATION_CONTEXT() REPRESENTATION_CONTEXT('2D SPACE',''
  ) );
#1069 = ORIENTED_EDGE('',*,*,#1015,.T.);
#1070 = ORIENTED_EDGE('',*,*,#1071,.T.);
#1071 = EDGE_CURVE('',#988,#951,#1072,.T.);
#1072 = SURFACE_CURVE('',#1073,(#1078,#1085),.PCURVE_S1.);
#1073 = CIRCLE('',#1074,3.);
#1074 = AXIS2_PLACEMENT_3D('',#1075,#1076,#1077);
#1075 = CARTESIAN_POINT('',(-142.25,-35.5,0.75));
#1076 = DIRECTION('',(0.,-0.,-1.));
#1077 = DIRECTION('',(0.333333333333,-0.942809041582,0.));
#1078 = PCURVE('',#971,#1079);
#1079 = DEFINITIONAL_REPRESENTATION('',(#1080),#1084);
#1080 = LINE('',#1081,#1082);
#1081 = CARTESIAN_POINT('',(-4.372552070931,-0.));
#1082 = VECTOR('',#1083,1.);
#1083 = DIRECTION('',(-1.,-0.));
#1084 = ( GEOMETRIC_REPRESENTATION_CONTEXT(2) 
PARAMETRIC_REPRESENTATION_CONTEXT() REPRESENTATION_CONTEXT('2D SPACE',''
  ) );
#1085 = PCURVE('',#126,#1086);
#1086 = DEFINITIONAL_REPRESENTATION('',(#1087),#1095);
#1087 = ( BOUNDED_CURVE() B_SPLINE_CURVE(2,(#1088,#1089,#1090,#1091,
#1092,#1093,#1094),.UNSPECIFIED.,.T.,.F.) B_SPLINE_CURVE_WITH_KNOTS((1,2
    ,2,2,2,1),(-2.094395102393,0.,2.094395102393,4.188790204786,
6.28318530718,8.377580409573),.UNSPECIFIED.) CURVE() 
GEOMETRIC_REPRESENTATION_ITEM() RATIONAL_B_SPLINE_CURVE((1.,0.5,1.,0.5,
1.,0.5,1.)) REPRESENTATION_ITEM('') );
#1088 = CARTESIAN_POINT('',(29.,3.171572875254));
#1089 = CARTESIAN_POINT('',(24.101020514433,1.439522067685));
#1090 = CARTESIAN_POINT('',(25.050510257217,6.548188158589));
#1091 = CARTESIAN_POINT('',(26.,11.656854249492));
#1092 = CARTESIAN_POINT('',(29.949489742783,8.280238966157));
#1093 = CARTESIAN_POINT('',(33.898979485566,4.903623682822));
#1094 = CARTESIAN_POINT('',(29.,3.171572875254));
#1095 = ( GEOMETRIC_REPRESENTATION_CONTEXT(2) 
PARAMETRIC_REPRESENTATION_CONTEXT() REPRESENTATION_CONTEXT('2D SPACE',''
  ) );
#1096 = ORIENTED_EDGE('',*,*,#950,.T.);
#1097 = ADVANCED_FACE('',(#1098),#235,.F.);
#1098 = FACE_BOUND('',#1099,.F.);
#1099 = EDGE_LOOP('',(#1100,#1101,#1102,#1103));
#1100 = ORIENTED_EDGE('',*,*,#216,.T.);
#1101 = ORIENTED_EDGE('',*,*,#926,.F.);
#1102 = ORIENTED_EDGE('',*,*,#1048,.T.);
#1103 = ORIENTED_EDGE('',*,*,#876,.T.);
#1104 = ADVANCED_FACE('',(#1105),#181,.T.);
#1105 = FACE_BOUND('',#1106,.T.);
#1106 = EDGE_LOOP('',(#1107,#1130,#1131,#1154));
#1107 = ORIENTED_EDGE('',*,*,#1108,.F.);
#1108 = EDGE_CURVE('',#143,#1109,#1111,.T.);
#1109 = VERTEX_POINT('',#1110);
#1110 = CARTESIAN_POINT('',(170.25,-41.5,0.75));
#1111 = SURFACE_CURVE('',#1112,(#1116,#1123),.PCURVE_S1.);
#1112 = LINE('',#1113,#1114);
#1113 = CARTESIAN_POINT('',(170.25,-41.5,-0.75));
#1114 = VECTOR('',#1115,1.);
#1115 = DIRECTION('',(0.,0.,1.));
#1116 = PCURVE('',#181,#1117);
#1117 = DEFINITIONAL_REPRESENTATION('',(#1118),#1122);
#1118 = LINE('',#1119,#1120);
#1119 = CARTESIAN_POINT('',(0.,0.));
#1120 = VECTOR('',#1121,1.);
#1121 = DIRECTION('',(1.,0.));
#1122 = ( GEOMETRIC_REPRESENTATION_CONTEXT(2) 
PARAMETRIC_REPRESENTATION_CONTEXT() REPRESENTATION_CONTEXT('2D SPACE',''
  ) );
#1123 = PCURVE('',#44,#1124);
#1124 = DEFINITIONAL_REPRESENTATION('',(#1125),#1129);
#1125 = LINE('',#1126,#1127);
#1126 = CARTESIAN_POINT('',(0.,340.5));
#1127 = VECTOR('',#1128,1.);
#1128 = DIRECTION('',(1.,0.));
#1129 = ( GEOMETRIC_REPRESENTATION_CONTEXT(2) 
PARAMETRIC_REPRESENTATION_CONTEXT() REPRESENTATION_CONTEXT('2D SPACE',''
  ) );
#1130 = ORIENTED_EDGE('',*,*,#165,.T.);
#1131 = ORIENTED_EDGE('',*,*,#1132,.T.);
#1132 = EDGE_CURVE('',#166,#1133,#1135,.T.);
#1133 = VERTEX_POINT('',#1134);
#1134 = CARTESIAN_POINT('',(170.25,41.5,0.75));
#1135 = SURFACE_CURVE('',#1136,(#1140,#1147),.PCURVE_S1.);
#1136 = LINE('',#1137,#1138);
#1137 = CARTESIAN_POINT('',(170.25,41.5,-0.75));
#1138 = VECTOR('',#1139,1.);
#1139 = DIRECTION('',(0.,0.,1.));
#1140 = PCURVE('',#181,#1141);
#1141 = DEFINITIONAL_REPRESENTATION('',(#1142),#1146);
#1142 = LINE('',#1143,#1144);
#1143 = CARTESIAN_POINT('',(0.,-83.));
#1144 = VECTOR('',#1145,1.);
#1145 = DIRECTION('',(1.,0.));
#1146 = ( GEOMETRIC_REPRESENTATION_CONTEXT(2) 
PARAMETRIC_REPRESENTATION_CONTEXT() REPRESENTATION_CONTEXT('2D SPACE',''
  ) );
#1147 = PCURVE('',#100,#1148);
#1148 = DEFINITIONAL_REPRESENTATION('',(#1149),#1153);
#1149 = LINE('',#1150,#1151);
#1150 = CARTESIAN_POINT('',(0.,340.5));
#1151 = VECTOR('',#1152,1.);
#1152 = DIRECTION('',(1.,0.));
#1153 = ( GEOMETRIC_REPRESENTATION_CONTEXT(2) 
PARAMETRIC_REPRESENTATION_CONTEXT() REPRESENTATION_CONTEXT('2D SPACE',''
  ) );
#1154 = ORIENTED_EDGE('',*,*,#1155,.F.);
#1155 = EDGE_CURVE('',#1109,#1133,#1156,.T.);
#1156 = SURFACE_CURVE('',#1157,(#1161,#1168),.PCURVE_S1.);
#1157 = LINE('',#1158,#1159);
#1158 = CARTESIAN_POINT('',(170.25,-41.5,0.75));
#1159 = VECTOR('',#1160,1.);
#1160 = DIRECTION('',(0.,1.,0.));
#1161 = PCURVE('',#181,#1162);
#1162 = DEFINITIONAL_REPRESENTATION('',(#1163),#1167);
#1163 = LINE('',#1164,#1165);
#1164 = CARTESIAN_POINT('',(1.5,0.));
#1165 = VECTOR('',#1166,1.);
#1166 = DIRECTION('',(0.,-1.));
#1167 = ( GEOMETRIC_REPRESENTATION_CONTEXT(2) 
PARAMETRIC_REPRESENTATION_CONTEXT() REPRESENTATION_CONTEXT('2D SPACE',''
  ) );
#1168 = PCURVE('',#126,#1169);
#1169 = DEFINITIONAL_REPRESENTATION('',(#1170),#1174);
#1170 = LINE('',#1171,#1172);
#1171 = CARTESIAN_POINT('',(340.5,0.));
#1172 = VECTOR('',#1173,1.);
#1173 = DIRECTION('',(0.,1.));
#1174 = ( GEOMETRIC_REPRESENTATION_CONTEXT(2) 
PARAMETRIC_REPRESENTATION_CONTEXT() REPRESENTATION_CONTEXT('2D SPACE',''
  ) );
#1175 = ADVANCED_FACE('',(#1176),#100,.T.);
#1176 = FACE_BOUND('',#1177,.T.);
#1177 = EDGE_LOOP('',(#1178,#1179,#1180,#1201));
#1178 = ORIENTED_EDGE('',*,*,#193,.F.);
#1179 = ORIENTED_EDGE('',*,*,#84,.T.);
#1180 = ORIENTED_EDGE('',*,*,#1181,.T.);
#1181 = EDGE_CURVE('',#85,#1133,#1182,.T.);
#1182 = SURFACE_CURVE('',#1183,(#1187,#1194),.PCURVE_S1.);
#1183 = LINE('',#1184,#1185);
#1184 = CARTESIAN_POINT('',(-170.25,41.5,0.75));
#1185 = VECTOR('',#1186,1.);
#1186 = DIRECTION('',(1.,0.,0.));
#1187 = PCURVE('',#100,#1188);
#1188 = DEFINITIONAL_REPRESENTATION('',(#1189),#1193);
#1189 = LINE('',#1190,#1191);
#1190 = CARTESIAN_POINT('',(1.5,0.));
#1191 = VECTOR('',#1192,1.);
#1192 = DIRECTION('',(0.,1.));
#1193 = ( GEOMETRIC_REPRESENTATION_CONTEXT(2) 
PARAMETRIC_REPRESENTATION_CONTEXT() REPRESENTATION_CONTEXT('2D SPACE',''
  ) );
#1194 = PCURVE('',#126,#1195);
#1195 = DEFINITIONAL_REPRESENTATION('',(#1196),#1200);
#1196 = LINE('',#1197,#1198);
#1197 = CARTESIAN_POINT('',(0.,83.));
#1198 = VECTOR('',#1199,1.);
#1199 = DIRECTION('',(1.,0.));
#1200 = ( GEOMETRIC_REPRESENTATION_CONTEXT(2) 
PARAMETRIC_REPRESENTATION_CONTEXT() REPRESENTATION_CONTEXT('2D SPACE',''
  ) );
#1201 = ORIENTED_EDGE('',*,*,#1132,.F.);
#1202 = ADVANCED_FACE('',(#1203,#1229,#1233,#1236),#126,.T.);
#1203 = FACE_BOUND('',#1204,.T.);
#1204 = EDGE_LOOP('',(#1205,#1206,#1227,#1228));
#1205 = ORIENTED_EDGE('',*,*,#112,.F.);
#1206 = ORIENTED_EDGE('',*,*,#1207,.T.);
#1207 = EDGE_CURVE('',#24,#1109,#1208,.T.);
#1208 = SURFACE_CURVE('',#1209,(#1213,#1220),.PCURVE_S1.);
#1209 = LINE('',#1210,#1211);
#1210 = CARTESIAN_POINT('',(-170.25,-41.5,0.75));
#1211 = VECTOR('',#1212,1.);
#1212 = DIRECTION('',(1.,0.,0.));
#1213 = PCURVE('',#126,#1214);
#1214 = DEFINITIONAL_REPRESENTATION('',(#1215),#1219);
#1215 = LINE('',#1216,#1217);
#1216 = CARTESIAN_POINT('',(0.,0.));
#1217 = VECTOR('',#1218,1.);
#1218 = DIRECTION('',(1.,0.));
#1219 = ( GEOMETRIC_REPRESENTATION_CONTEXT(2) 
PARAMETRIC_REPRESENTATION_CONTEXT() REPRESENTATION_CONTEXT('2D SPACE',''
  ) );
#1220 = PCURVE('',#44,#1221);
#1221 = DEFINITIONAL_REPRESENTATION('',(#1222),#1226);
#1222 = LINE('',#1223,#1224);
#1223 = CARTESIAN_POINT('',(1.5,0.));
#1224 = VECTOR('',#1225,1.);
#1225 = DIRECTION('',(0.,1.));
#1226 = ( GEOMETRIC_REPRESENTATION_CONTEXT(2) 
PARAMETRIC_REPRESENTATION_CONTEXT() REPRESENTATION_CONTEXT('2D SPACE',''
  ) );
#1227 = ORIENTED_EDGE('',*,*,#1155,.T.);
#1228 = ORIENTED_EDGE('',*,*,#1181,.F.);
#1229 = FACE_BOUND('',#1230,.T.);
#1230 = EDGE_LOOP('',(#1231,#1232));
#1231 = ORIENTED_EDGE('',*,*,#1071,.T.);
#1232 = ORIENTED_EDGE('',*,*,#987,.T.);
#1233 = FACE_BOUND('',#1234,.T.);
#1234 = EDGE_LOOP('',(#1235));
#1235 = ORIENTED_EDGE('',*,*,#846,.T.);
#1236 = FACE_BOUND('',#1237,.T.);
#1237 = EDGE_LOOP('',(#1238,#1239,#1240,#1241));
#1238 = ORIENTED_EDGE('',*,*,#463,.T.);
#1239 = ORIENTED_EDGE('',*,*,#759,.T.);
#1240 = ORIENTED_EDGE('',*,*,#791,.T.);
#1241 = ORIENTED_EDGE('',*,*,#661,.T.);
#1242 = ADVANCED_FACE('',(#1243),#44,.F.);
#1243 = FACE_BOUND('',#1244,.F.);
#1244 = EDGE_LOOP('',(#1245,#1246,#1247,#1248));
#1245 = ORIENTED_EDGE('',*,*,#142,.F.);
#1246 = ORIENTED_EDGE('',*,*,#21,.T.);
#1247 = ORIENTED_EDGE('',*,*,#1207,.T.);
#1248 = ORIENTED_EDGE('',*,*,#1108,.F.);
#1249 = ( GEOMETRIC_REPRESENTATION_CONTEXT(3) 
GLOBAL_UNCERTAINTY_ASSIGNED_CONTEXT((#1253)) 
GLOBAL_UNIT_ASSIGNED_CONTEXT((#1250,#1251,#1252)) REPRESENTATION_CONTEXT
('Context #1','3D Context with UNIT and UNCERTAINTY') );
#1250 = ( LENGTH_UNIT() NAMED_UNIT(*) SI_UNIT(.MILLI.,.METRE.) );
#1251 = ( NAMED_UNIT(*) PLANE_ANGLE_UNIT() SI_UNIT($,.RADIAN.) );
#1252 = ( NAMED_UNIT(*) SI_UNIT($,.STERADIAN.) SOLID_ANGLE_UNIT() );
#1253 = UNCERTAINTY_MEASURE_WITH_UNIT(LENGTH_MEASURE(1.E-07),#1250,
  'distance_accuracy_value','confusion accuracy');
#1254 = PRODUCT_RELATED_PRODUCT_CATEGORY('part',$,(#7));
ENDSEC;
END-ISO-10303-21;
