<svg xmlns="http://www.w3.org/2000/svg" width="420.0mm" height="297.0mm" viewBox="0 0 420.0 297.0">
<rect width="420.0" height="297.0" fill="#ffffff"/>
<rect x="8" y="8" width="404.0" height="281.0" fill="none" stroke="#000" stroke-width="0.5"/>
<rect x="12" y="12" width="396.0" height="273.0" fill="none" stroke="#000" stroke-width="0.9"/>
<rect x="202.0" y="245.0" width="206.0" height="40.0" fill="#fff" stroke="#000" stroke-width="0.9"/>
<line x1="326.0" y1="245.0" x2="326.0" y2="285.0" stroke="#000" stroke-width="0.5"/>
<line x1="362.0" y1="245.0" x2="362.0" y2="285.0" stroke="#000" stroke-width="0.5"/>
<line x1="386.0" y1="245.0" x2="386.0" y2="285.0" stroke="#000" stroke-width="0.5"/>
<line x1="202.0" y1="258.3" x2="408.0" y2="258.3" stroke="#000" stroke-width="0.5"/>
<line x1="202.0" y1="271.6" x2="408.0" y2="271.6" stroke="#000" stroke-width="0.5"/>
<text x="205.0" y="253.5" font-family="'Segoe UI','Microsoft YaHei','SimHei',sans-serif" font-size="4.4" text-anchor="start" font-weight="bold" fill="#000">PANO-3U 双鱼眼全景立方星</text>
<text x="205.0" y="257.5" font-family="'Segoe UI','Microsoft YaHei','SimHei',sans-serif" font-size="2.8" text-anchor="start" font-weight="normal" fill="#000">(3U CubeSat · 500km SSO 全景成像)</text>
<text x="344.0" y="249.5" font-family="'Segoe UI','Microsoft YaHei','SimHei',sans-serif" font-size="2.6" text-anchor="middle" fill="#444">图号</text>
<text x="344.0" y="256.5" font-family="'Segoe UI','Microsoft YaHei','SimHei',sans-serif" font-size="4.0" text-anchor="middle" font-weight="bold" fill="#000">ASM-102</text>
<text x="374.0" y="249.5" font-family="'Segoe UI','Microsoft YaHei','SimHei',sans-serif" font-size="2.6" text-anchor="middle" fill="#444">比例</text>
<text x="374.0" y="256.5" font-family="'Segoe UI','Microsoft YaHei','SimHei',sans-serif" font-size="3.2" text-anchor="middle" font-weight="normal" fill="#000">1:1</text>
<text x="397.0" y="249.5" font-family="'Segoe UI','Microsoft YaHei','SimHei',sans-serif" font-size="2.6" text-anchor="middle" fill="#444">版本</text>
<text x="397.0" y="256.5" font-family="'Segoe UI','Microsoft YaHei','SimHei',sans-serif" font-size="2.9" text-anchor="middle" font-weight="normal" fill="#000">B (v4评审版)</text>
<text x="205.0" y="264.5" font-family="'Segoe UI','Microsoft YaHei','SimHei',sans-serif" font-size="4.6" text-anchor="start" font-weight="bold" fill="#000">−Z 端板  MEC-102</text>
<text x="205.0" y="269.5" font-family="'Segoe UI','Microsoft YaHei','SimHei',sans-serif" font-size="2.9" text-anchor="start" font-weight="normal" fill="#000">分离开关×3 + RBF 界面 · CDS 界面孔位公差 ±0.05</text>
<text x="344.0" y="262.5" font-family="'Segoe UI','Microsoft YaHei','SimHei',sans-serif" font-size="2.6" text-anchor="middle" fill="#444">材料</text>
<text x="344.0" y="269.8" font-family="'Segoe UI','Microsoft YaHei','SimHei',sans-serif" font-size="3.0" text-anchor="middle" font-weight="normal" fill="#000">6061-T6 t=2.0</text>
<text x="374.0" y="262.5" font-family="'Segoe UI','Microsoft YaHei','SimHei',sans-serif" font-size="2.6" text-anchor="middle" fill="#444">数量</text>
<text x="374.0" y="269.8" font-family="'Segoe UI','Microsoft YaHei','SimHei',sans-serif" font-size="3.2" text-anchor="middle" font-weight="normal" fill="#000">1</text>
<text x="397.0" y="262.5" font-family="'Segoe UI','Microsoft YaHei','SimHei',sans-serif" font-size="2.6" text-anchor="middle" fill="#444">页次</text>
<text x="397.0" y="269.8" font-family="'Segoe UI','Microsoft YaHei','SimHei',sans-serif" font-size="3.2" text-anchor="middle" font-weight="normal" fill="#000">6/22</text>
<text x="344.0" y="275.8" font-family="'Segoe UI','Microsoft YaHei','SimHei',sans-serif" font-size="2.6" text-anchor="middle" fill="#444">设计规范</text>
<text x="344.0" y="283.0" font-family="'Segoe UI','Microsoft YaHei','SimHei',sans-serif" font-size="2.9" text-anchor="middle" font-weight="normal" fill="#000">CDS Rev.14</text>
<text x="374.0" y="275.8" font-family="'Segoe UI','Microsoft YaHei','SimHei',sans-serif" font-size="2.6" text-anchor="middle" fill="#444">日期</text>
<text x="374.0" y="283.0" font-family="'Segoe UI','Microsoft YaHei','SimHei',sans-serif" font-size="2.9" text-anchor="middle" font-weight="normal" fill="#000">2026-09</text>
<text x="397.0" y="275.8" font-family="'Segoe UI','Microsoft YaHei','SimHei',sans-serif" font-size="2.6" text-anchor="middle" fill="#444">图幅</text>
<text x="397.0" y="283.0" font-family="'Segoe UI','Microsoft YaHei','SimHei',sans-serif" font-size="2.9" text-anchor="middle" font-weight="normal" fill="#000">A3</text>
<text x="16" y="22" font-family="'Segoe UI','Microsoft YaHei','SimHei',sans-serif" font-size="6" font-weight="bold" fill="#000">ASM-102　−Z 端板  MEC-102</text>
<text x="16" y="28.5" font-family="'Segoe UI','Microsoft YaHei','SimHei',sans-serif" font-size="3.6" fill="#000">分离开关×3 + RBF 界面 · CDS 界面孔位公差 ±0.05</text>
<polyline points="46.000,163.000 141.000,163.000 141.000,68.000 46.000,68.000 46.000,163.000" fill="none" stroke="#000" stroke-width="0.7" stroke-linejoin="round"/>
<circle cx="50.038" cy="158.963" r="1.615" fill="none" stroke="#000" stroke-width="0.45"/>
<line x1="45.922" y1="158.963" x2="54.153" y2="158.963" stroke="#000055" stroke-width="0.16" stroke-dasharray="3,1,0.8,1" stroke-linecap="butt"/>
<line x1="50.038" y1="154.847" x2="50.038" y2="163.078" stroke="#000055" stroke-width="0.16" stroke-dasharray="3,1,0.8,1" stroke-linecap="butt"/>
<circle cx="136.963" cy="158.963" r="1.615" fill="none" stroke="#000" stroke-width="0.45"/>
<line x1="132.847" y1="158.963" x2="141.078" y2="158.963" stroke="#000055" stroke-width="0.16" stroke-dasharray="3,1,0.8,1" stroke-linecap="butt"/>
<line x1="136.963" y1="154.847" x2="136.963" y2="163.078" stroke="#000055" stroke-width="0.16" stroke-dasharray="3,1,0.8,1" stroke-linecap="butt"/>
<circle cx="50.038" cy="72.037" r="1.615" fill="none" stroke="#000" stroke-width="0.45"/>
<line x1="45.922" y1="72.037" x2="54.153" y2="72.037" stroke="#000055" stroke-width="0.16" stroke-dasharray="3,1,0.8,1" stroke-linecap="butt"/>
<line x1="50.038" y1="67.922" x2="50.038" y2="76.152" stroke="#000055" stroke-width="0.16" stroke-dasharray="3,1,0.8,1" stroke-linecap="butt"/>
<circle cx="136.963" cy="72.037" r="1.615" fill="none" stroke="#000" stroke-width="0.45"/>
<line x1="132.847" y1="72.037" x2="141.078" y2="72.037" stroke="#000055" stroke-width="0.16" stroke-dasharray="3,1,0.8,1" stroke-linecap="butt"/>
<line x1="136.963" y1="67.922" x2="136.963" y2="76.152" stroke="#000055" stroke-width="0.16" stroke-dasharray="3,1,0.8,1" stroke-linecap="butt"/>
<circle cx="69.750" cy="157.300" r="1.520" fill="none" stroke="#000" stroke-width="0.45"/>
<line x1="65.730" y1="157.300" x2="73.770" y2="157.300" stroke="#000055" stroke-width="0.16" stroke-dasharray="3,1,0.8,1" stroke-linecap="butt"/>
<line x1="69.750" y1="153.280" x2="69.750" y2="161.320" stroke="#000055" stroke-width="0.16" stroke-dasharray="3,1,0.8,1" stroke-linecap="butt"/>
<circle cx="117.250" cy="157.300" r="1.520" fill="none" stroke="#000" stroke-width="0.45"/>
<line x1="113.230" y1="157.300" x2="121.270" y2="157.300" stroke="#000055" stroke-width="0.16" stroke-dasharray="3,1,0.8,1" stroke-linecap="butt"/>
<line x1="117.250" y1="153.280" x2="117.250" y2="161.320" stroke="#000055" stroke-width="0.16" stroke-dasharray="3,1,0.8,1" stroke-linecap="butt"/>
<circle cx="69.750" cy="73.700" r="1.520" fill="none" stroke="#000" stroke-width="0.45"/>
<line x1="65.730" y1="73.700" x2="73.770" y2="73.700" stroke="#000055" stroke-width="0.16" stroke-dasharray="3,1,0.8,1" stroke-linecap="butt"/>
<line x1="69.750" y1="69.680" x2="69.750" y2="77.720" stroke="#000055" stroke-width="0.16" stroke-dasharray="3,1,0.8,1" stroke-linecap="butt"/>
<circle cx="117.250" cy="73.700" r="1.520" fill="none" stroke="#000" stroke-width="0.45"/>
<line x1="113.230" y1="73.700" x2="121.270" y2="73.700" stroke="#000055" stroke-width="0.16" stroke-dasharray="3,1,0.8,1" stroke-linecap="butt"/>
<line x1="117.250" y1="69.680" x2="117.250" y2="77.720" stroke="#000055" stroke-width="0.16" stroke-dasharray="3,1,0.8,1" stroke-linecap="butt"/>
<circle cx="51.700" cy="139.250" r="1.520" fill="none" stroke="#000" stroke-width="0.45"/>
<line x1="47.680" y1="139.250" x2="55.720" y2="139.250" stroke="#000055" stroke-width="0.16" stroke-dasharray="3,1,0.8,1" stroke-linecap="butt"/>
<line x1="51.700" y1="135.230" x2="51.700" y2="143.270" stroke="#000055" stroke-width="0.16" stroke-dasharray="3,1,0.8,1" stroke-linecap="butt"/>
<circle cx="135.300" cy="139.250" r="1.520" fill="none" stroke="#000" stroke-width="0.45"/>
<line x1="131.280" y1="139.250" x2="139.320" y2="139.250" stroke="#000055" stroke-width="0.16" stroke-dasharray="3,1,0.8,1" stroke-linecap="butt"/>
<line x1="135.300" y1="135.230" x2="135.300" y2="143.270" stroke="#000055" stroke-width="0.16" stroke-dasharray="3,1,0.8,1" stroke-linecap="butt"/>
<circle cx="51.700" cy="91.750" r="1.520" fill="none" stroke="#000" stroke-width="0.45"/>
<line x1="47.680" y1="91.750" x2="55.720" y2="91.750" stroke="#000055" stroke-width="0.16" stroke-dasharray="3,1,0.8,1" stroke-linecap="butt"/>
<line x1="51.700" y1="87.730" x2="51.700" y2="95.770" stroke="#000055" stroke-width="0.16" stroke-dasharray="3,1,0.8,1" stroke-linecap="butt"/>
<circle cx="135.300" cy="91.750" r="1.520" fill="none" stroke="#000" stroke-width="0.45"/>
<line x1="131.280" y1="91.750" x2="139.320" y2="91.750" stroke="#000055" stroke-width="0.16" stroke-dasharray="3,1,0.8,1" stroke-linecap="butt"/>
<line x1="135.300" y1="87.730" x2="135.300" y2="95.770" stroke="#000055" stroke-width="0.16" stroke-dasharray="3,1,0.8,1" stroke-linecap="butt"/>
<circle cx="57.400" cy="151.600" r="1.520" fill="none" stroke="#000" stroke-width="0.45"/>
<line x1="53.380" y1="151.600" x2="61.420" y2="151.600" stroke="#000055" stroke-width="0.16" stroke-dasharray="3,1,0.8,1" stroke-linecap="butt"/>
<line x1="57.400" y1="147.580" x2="57.400" y2="155.620" stroke="#000055" stroke-width="0.16" stroke-dasharray="3,1,0.8,1" stroke-linecap="butt"/>
<circle cx="129.600" cy="151.600" r="1.520" fill="none" stroke="#000" stroke-width="0.45"/>
<line x1="125.580" y1="151.600" x2="133.620" y2="151.600" stroke="#000055" stroke-width="0.16" stroke-dasharray="3,1,0.8,1" stroke-linecap="butt"/>
<line x1="129.600" y1="147.580" x2="129.600" y2="155.620" stroke="#000055" stroke-width="0.16" stroke-dasharray="3,1,0.8,1" stroke-linecap="butt"/>
<circle cx="57.400" cy="79.400" r="1.520" fill="none" stroke="#000" stroke-width="0.45"/>
<line x1="53.380" y1="79.400" x2="61.420" y2="79.400" stroke="#000055" stroke-width="0.16" stroke-dasharray="3,1,0.8,1" stroke-linecap="butt"/>
<line x1="57.400" y1="75.380" x2="57.400" y2="83.420" stroke="#000055" stroke-width="0.16" stroke-dasharray="3,1,0.8,1" stroke-linecap="butt"/>
<circle cx="129.600" cy="79.400" r="1.520" fill="none" stroke="#000" stroke-width="0.45"/>
<line x1="125.580" y1="79.400" x2="133.620" y2="79.400" stroke="#000055" stroke-width="0.16" stroke-dasharray="3,1,0.8,1" stroke-linecap="butt"/>
<line x1="129.600" y1="75.380" x2="129.600" y2="83.420" stroke="#000055" stroke-width="0.16" stroke-dasharray="3,1,0.8,1" stroke-linecap="butt"/>
<circle cx="80.200" cy="128.800" r="0.855" fill="none" stroke="#000" stroke-width="0.45"/>
<line x1="76.845" y1="128.800" x2="83.555" y2="128.800" stroke="#000055" stroke-width="0.16" stroke-dasharray="3,1,0.8,1" stroke-linecap="butt"/>
<line x1="80.200" y1="125.445" x2="80.200" y2="132.155" stroke="#000055" stroke-width="0.16" stroke-dasharray="3,1,0.8,1" stroke-linecap="butt"/>
<circle cx="106.800" cy="128.800" r="0.855" fill="none" stroke="#000" stroke-width="0.45"/>
<line x1="103.445" y1="128.800" x2="110.155" y2="128.800" stroke="#000055" stroke-width="0.16" stroke-dasharray="3,1,0.8,1" stroke-linecap="butt"/>
<line x1="106.800" y1="125.445" x2="106.800" y2="132.155" stroke="#000055" stroke-width="0.16" stroke-dasharray="3,1,0.8,1" stroke-linecap="butt"/>
<circle cx="80.200" cy="102.200" r="0.855" fill="none" stroke="#000" stroke-width="0.45"/>
<line x1="76.845" y1="102.200" x2="83.555" y2="102.200" stroke="#000055" stroke-width="0.16" stroke-dasharray="3,1,0.8,1" stroke-linecap="butt"/>
<line x1="80.200" y1="98.845" x2="80.200" y2="105.555" stroke="#000055" stroke-width="0.16" stroke-dasharray="3,1,0.8,1" stroke-linecap="butt"/>
<circle cx="106.800" cy="102.200" r="0.855" fill="none" stroke="#000" stroke-width="0.45"/>
<line x1="103.445" y1="102.200" x2="110.155" y2="102.200" stroke="#000055" stroke-width="0.16" stroke-dasharray="3,1,0.8,1" stroke-linecap="butt"/>
<line x1="106.800" y1="98.845" x2="106.800" y2="105.555" stroke="#000055" stroke-width="0.16" stroke-dasharray="3,1,0.8,1" stroke-linecap="butt"/>
<circle cx="122.000" cy="158.963" r="2.090" fill="none" stroke="#000" stroke-width="0.45"/>
<line x1="117.410" y1="158.963" x2="126.590" y2="158.963" stroke="#000055" stroke-width="0.16" stroke-dasharray="3,1,0.8,1" stroke-linecap="butt"/>
<line x1="122.000" y1="154.373" x2="122.000" y2="163.553" stroke="#000055" stroke-width="0.16" stroke-dasharray="3,1,0.8,1" stroke-linecap="butt"/>
<circle cx="65.000" cy="158.963" r="2.090" fill="none" stroke="#000" stroke-width="0.45"/>
<line x1="60.410" y1="158.963" x2="69.590" y2="158.963" stroke="#000055" stroke-width="0.16" stroke-dasharray="3,1,0.8,1" stroke-linecap="butt"/>
<line x1="65.000" y1="154.373" x2="65.000" y2="163.553" stroke="#000055" stroke-width="0.16" stroke-dasharray="3,1,0.8,1" stroke-linecap="butt"/>
<circle cx="136.963" cy="115.500" r="2.090" fill="none" stroke="#000" stroke-width="0.45"/>
<line x1="132.373" y1="115.500" x2="141.553" y2="115.500" stroke="#000055" stroke-width="0.16" stroke-dasharray="3,1,0.8,1" stroke-linecap="butt"/>
<line x1="136.963" y1="110.910" x2="136.963" y2="120.090" stroke="#000055" stroke-width="0.16" stroke-dasharray="3,1,0.8,1" stroke-linecap="butt"/>
<circle cx="50.038" cy="87.000" r="2.992" fill="none" stroke="#000" stroke-width="0.45"/>
<line x1="44.545" y1="87.000" x2="55.530" y2="87.000" stroke="#000055" stroke-width="0.16" stroke-dasharray="3,1,0.8,1" stroke-linecap="butt"/>
<line x1="50.038" y1="81.507" x2="50.038" y2="92.493" stroke="#000055" stroke-width="0.16" stroke-dasharray="3,1,0.8,1" stroke-linecap="butt"/>
<rect x="65.00" y="101.25" width="57.00" height="28.50" rx="3.80" fill="#fff" stroke="#000" stroke-width="0.5"/>
<circle cx="93.500" cy="115.500" r="10.450" fill="none" stroke="#000" stroke-width="0.4" stroke-dasharray="6,1.5,1.5,1.5"/>
<polyline points="93.500,169.650 93.500,61.350" fill="none" stroke="#000055" stroke-width="0.2" stroke-dasharray="8,1.5,1.5,1.5" stroke-linejoin="round"/>
<polyline points="39.350,115.500 147.650,115.500" fill="none" stroke="#000055" stroke-width="0.2" stroke-dasharray="8,1.5,1.5,1.5" stroke-linejoin="round"/>
<text x="93.50" y="172.00" font-family="'Segoe UI','Microsoft YaHei','SimHei',sans-serif" font-size="3.8" text-anchor="middle" font-weight="bold" fill="#000">主视图(从 −Z 看)</text>
<line x1="46.000" y1="64.000" x2="141.000" y2="64.000" stroke="#000" stroke-width="0.22" stroke-linecap="butt"/>
<path d="M 46.00 64.00 L 48.20 63.30 L 48.20 64.70 Z" fill="#000"/>
<path d="M 141.00 64.00 L 138.80 63.30 L 138.80 64.70 Z" fill="#000"/>
<text x="93.50" y="62.90" font-family="'Segoe UI','Microsoft YaHei','SimHei',sans-serif" font-size="3.2" text-anchor="middle" font-weight="normal" fill="#000">100±0.1</text>
<line x1="38.000" y1="68.000" x2="38.000" y2="163.000" stroke="#000" stroke-width="0.22" stroke-linecap="butt"/>
<path d="M 38.00 68.00 L 37.30 70.20 L 38.70 70.20 Z" fill="#000"/>
<path d="M 38.00 163.00 L 37.30 160.80 L 38.70 160.80 Z" fill="#000"/>
<text x="36.90" y="115.50" font-family="'Segoe UI','Microsoft YaHei','SimHei',sans-serif" font-size="3.2" text-anchor="middle" font-weight="normal" fill="#000" transform="rotate(-90 36.90 115.50)">100±0.1</text>
<line x1="50.038" y1="56.000" x2="136.963" y2="56.000" stroke="#000" stroke-width="0.22" stroke-linecap="butt"/>
<path d="M 50.04 56.00 L 52.24 55.30 L 52.24 56.70 Z" fill="#000"/>
<path d="M 136.96 56.00 L 134.76 55.30 L 134.76 56.70 Z" fill="#000"/>
<text x="93.50" y="54.90" font-family="'Segoe UI','Microsoft YaHei','SimHei',sans-serif" font-size="2.7" text-anchor="middle" font-weight="normal" fill="#000">91.5±0.1 (H1-H4: 4×Ø3.4)</text>
<line x1="192.000" y1="79.400" x2="192.000" y2="151.600" stroke="#000" stroke-width="0.22" stroke-linecap="butt"/>
<path d="M 192.00 79.40 L 191.30 81.60 L 192.70 81.60 Z" fill="#000"/>
<path d="M 192.00 151.60 L 191.30 149.40 L 192.70 149.40 Z" fill="#000"/>
<text x="190.90" y="115.50" font-family="'Segoe UI','Microsoft YaHei','SimHei',sans-serif" font-size="2.7" text-anchor="middle" font-weight="normal" fill="#000" transform="rotate(-90 190.90 115.50)">76 (H13-16)</text>
<line x1="65.000" y1="145.750" x2="122.000" y2="145.750" stroke="#000" stroke-width="0.22" stroke-linecap="butt"/>
<path d="M 65.00 145.75 L 67.20 145.05 L 67.20 146.45 Z" fill="#000"/>
<path d="M 122.00 145.75 L 119.80 145.05 L 119.80 146.45 Z" fill="#000"/>
<text x="93.50" y="144.65" font-family="'Segoe UI','Microsoft YaHei','SimHei',sans-serif" font-size="2.7" text-anchor="middle" font-weight="normal" fill="#000">60 (C1,R4)</text>
<line x1="132.000" y1="101.250" x2="132.000" y2="129.750" stroke="#000" stroke-width="0.22" stroke-linecap="butt"/>
<path d="M 132.00 101.25 L 131.30 103.45 L 132.70 103.45 Z" fill="#000"/>
<path d="M 132.00 129.75 L 131.30 127.55 L 132.70 127.55 Z" fill="#000"/>
<text x="130.90" y="115.50" font-family="'Segoe UI','Microsoft YaHei','SimHei',sans-serif" font-size="2.5" text-anchor="middle" font-weight="normal" fill="#000" transform="rotate(-90 130.90 115.50)">30</text>
<line x1="83.050" y1="115.500" x2="33.000" y2="96.000" stroke="#000" stroke-width="0.22" stroke-linecap="butt"/>
<line x1="33.000" y1="96.000" x2="36.000" y2="96.000" stroke="#000" stroke-width="0.22" stroke-linecap="butt"/>
<circle cx="83.05" cy="115.50" r="0.5" fill="#000"/>
<text x="36.00" y="97.00" font-family="'Segoe UI','Microsoft YaHei','SimHei',sans-serif" font-size="2.6" text-anchor="start" font-weight="normal" fill="#000">Ø22 让位孔(点划)
相机基准,同轴≤0.05</text>
<line x1="64.050" y1="115.500" x2="49.000" y2="132.000" stroke="#000" stroke-width="0.22" stroke-linecap="butt"/>
<line x1="49.000" y1="132.000" x2="46.000" y2="132.000" stroke="#000" stroke-width="0.22" stroke-linecap="butt"/>
<circle cx="64.05" cy="115.50" r="0.5" fill="#000"/>
<text x="46.00" y="133.00" font-family="'Segoe UI','Microsoft YaHei','SimHei',sans-serif" font-size="2.6" text-anchor="end" font-weight="normal" fill="#000">C1:60×30
走线减重孔 R4</text>
<line x1="136.963" y1="72.037" x2="177.000" y2="84.000" stroke="#000" stroke-width="0.22" stroke-linecap="butt"/>
<line x1="177.000" y1="84.000" x2="180.000" y2="84.000" stroke="#000" stroke-width="0.22" stroke-linecap="butt"/>
<circle cx="136.96" cy="72.04" r="0.5" fill="#000"/>
<text x="180.00" y="85.00" font-family="'Segoe UI','Microsoft YaHei','SimHei',sans-serif" font-size="2.6" text-anchor="start" font-weight="normal" fill="#000">H1–H4:4×Ø3.4 通孔
导轨端面螺钉 F1 穿入</text>
<line x1="135.300" y1="91.750" x2="185.000" y2="114.000" stroke="#000" stroke-width="0.22" stroke-linecap="butt"/>
<line x1="185.000" y1="114.000" x2="188.000" y2="114.000" stroke="#000" stroke-width="0.22" stroke-linecap="butt"/>
<circle cx="135.30" cy="91.75" r="0.5" fill="#000"/>
<text x="188.00" y="115.00" font-family="'Segoe UI','Microsoft YaHei','SimHei',sans-serif" font-size="2.6" text-anchor="start" font-weight="normal" fill="#000">H5–H12:8×Ø3.2 通孔
辅助/扎线/内部支架</text>
<line x1="129.600" y1="151.600" x2="185.000" y2="142.000" stroke="#000" stroke-width="0.22" stroke-linecap="butt"/>
<line x1="185.000" y1="142.000" x2="188.000" y2="142.000" stroke="#000" stroke-width="0.22" stroke-linecap="butt"/>
<circle cx="129.60" cy="151.60" r="0.5" fill="#000"/>
<text x="188.00" y="143.00" font-family="'Segoe UI','Microsoft YaHei','SimHei',sans-serif" font-size="2.6" text-anchor="start" font-weight="normal" fill="#000">H13–H16:4×Ø3.2 通孔
堆栈铜柱 F6</text>
<line x1="106.800" y1="128.800" x2="181.000" y2="162.000" stroke="#000" stroke-width="0.22" stroke-linecap="butt"/>
<line x1="181.000" y1="162.000" x2="184.000" y2="162.000" stroke="#000" stroke-width="0.22" stroke-linecap="butt"/>
<circle cx="106.80" cy="128.80" r="0.5" fill="#000"/>
<text x="184.00" y="163.00" font-family="'Segoe UI','Microsoft YaHei','SimHei',sans-serif" font-size="2.6" text-anchor="start" font-weight="normal" fill="#000">4×Ø1.8(相机走线/辅助)</text>
<polyline points="62.000,186.000 104.000,186.000 104.000,185.160 62.000,185.160 62.000,186.000" fill="none" stroke="#000" stroke-width="0.55" stroke-linejoin="round"/>
<clipPath id="g1"><polygon points="62.000,186.000 104.000,186.000 104.000,185.160 62.000,185.160"/></clipPath>
<g clip-path="url(#g1)" stroke="#000" stroke-width="0.14">
<line x1="46.51" y1="185.87" x2="83.29" y2="149.09"/>
<line x1="47.64" y1="187.00" x2="84.42" y2="150.22"/>
<line x1="48.77" y1="188.13" x2="85.55" y2="151.35"/>
<line x1="49.90" y1="189.26" x2="86.68" y2="152.48"/>
<line x1="51.04" y1="190.39" x2="87.81" y2="153.62"/>
<line x1="52.17" y1="191.52" x2="88.94" y2="154.75"/>
<line x1="53.30" y1="192.65" x2="90.07" y2="155.88"/>
<line x1="54.43" y1="193.79" x2="91.21" y2="157.01"/>
<line x1="55.56" y1="194.92" x2="92.34" y2="158.14"/>
<line x1="56.69" y1="196.05" x2="93.47" y2="159.27"/>
<line x1="57.82" y1="197.18" x2="94.60" y2="160.40"/>
<line x1="58.96" y1="198.31" x2="95.73" y2="161.54"/>
<line x1="60.09" y1="199.44" x2="96.86" y2="162.67"/>
<line x1="61.22" y1="200.57" x2="97.99" y2="163.80"/>
<line x1="62.35" y1="201.71" x2="99.13" y2="164.93"/>
<line x1="63.48" y1="202.84" x2="100.26" y2="166.06"/>
<line x1="64.61" y1="203.97" x2="101.39" y2="167.19"/>
<line x1="65.74" y1="205.10" x2="102.52" y2="168.32"/>
<line x1="66.87" y1="206.23" x2="103.65" y2="169.45"/>
<line x1="68.01" y1="207.36" x2="104.78" y2="170.59"/>
<line x1="69.14" y1="208.49" x2="105.91" y2="171.72"/>
<line x1="70.27" y1="209.62" x2="107.04" y2="172.85"/>
<line x1="71.40" y1="210.76" x2="108.18" y2="173.98"/>
<line x1="72.53" y1="211.89" x2="109.31" y2="175.11"/>
<line x1="73.66" y1="213.02" x2="110.44" y2="176.24"/>
<line x1="74.79" y1="214.15" x2="111.57" y2="177.37"/>
<line x1="75.93" y1="215.28" x2="112.70" y2="178.51"/>
<line x1="77.06" y1="216.41" x2="113.83" y2="179.64"/>
<line x1="78.19" y1="217.54" x2="114.96" y2="180.77"/>
<line x1="79.32" y1="218.68" x2="116.10" y2="181.90"/>
<line x1="80.45" y1="219.81" x2="117.23" y2="183.03"/>
<line x1="81.58" y1="220.94" x2="118.36" y2="184.16"/>
<line x1="82.71" y1="222.07" x2="119.49" y2="185.29"/>
</g>
<line x1="62.000" y1="190.000" x2="62.000" y2="190.000" stroke="#000" stroke-width="0.22" stroke-linecap="butt"/>
<path d="M 62.00 190.00 L 64.20 189.30 L 64.20 190.70 Z" fill="#000"/>
<path d="M 62.00 190.00 L 59.80 189.30 L 59.80 190.70 Z" fill="#000"/>
<text x="62.00" y="188.90" font-family="'Segoe UI','Microsoft YaHei','SimHei',sans-serif" font-size="2.6" text-anchor="middle" font-weight="normal" fill="#000">2.0</text>
<line x1="55.000" y1="186.000" x2="55.000" y2="186.000" stroke="#000" stroke-width="0.22" stroke-linecap="butt"/>
<path d="M 55.00 186.00 L 54.30 188.20 L 55.70 188.20 Z" fill="#000"/>
<path d="M 55.00 186.00 L 54.30 183.80 L 55.70 183.80 Z" fill="#000"/>
<text x="53.90" y="186.00" font-family="'Segoe UI','Microsoft YaHei','SimHei',sans-serif" font-size="2.6" text-anchor="middle" font-weight="normal" fill="#000" transform="rotate(-90 53.90 186.00)">100</text>
<text x="83.00" y="240.00" font-family="'Segoe UI','Microsoft YaHei','SimHei',sans-serif" font-size="3.2" text-anchor="middle" font-weight="bold" fill="#000">侧视图</text>
<text x="246.00" y="196.00" font-family="'Segoe UI','Microsoft YaHei','SimHei',sans-serif" font-size="3.3" text-anchor="start" font-weight="bold" fill="#000">孔位坐标表(基准:板中心)</text>
<text x="247.00" y="201.50" font-family="'Segoe UI','Microsoft YaHei','SimHei',sans-serif" font-size="2.55" text-anchor="start" font-weight="bold" fill="#000">编号</text>
<text x="262.00" y="201.50" font-family="'Segoe UI','Microsoft YaHei','SimHei',sans-serif" font-size="2.55" text-anchor="start" font-weight="bold" fill="#000">X (mm)</text>
<text x="284.00" y="201.50" font-family="'Segoe UI','Microsoft YaHei','SimHei',sans-serif" font-size="2.55" text-anchor="start" font-weight="bold" fill="#000">Y (mm)</text>
<text x="308.00" y="201.50" font-family="'Segoe UI','Microsoft YaHei','SimHei',sans-serif" font-size="2.55" text-anchor="start" font-weight="bold" fill="#000">规格</text>
<line x1="246.000" y1="202.900" x2="325.000" y2="202.900" stroke="#000" stroke-width="0.35" stroke-linecap="butt"/>
<text x="247.00" y="206.10" font-family="'Segoe UI','Microsoft YaHei','SimHei',sans-serif" font-size="2.55" text-anchor="start" font-weight="normal" fill="#000">H1–H4</text>
<text x="262.00" y="206.10" font-family="'Segoe UI','Microsoft YaHei','SimHei',sans-serif" font-size="2.55" text-anchor="start" font-weight="normal" fill="#000">±45.75</text>
<text x="284.00" y="206.10" font-family="'Segoe UI','Microsoft YaHei','SimHei',sans-serif" font-size="2.55" text-anchor="start" font-weight="normal" fill="#000">±45.75</text>
<text x="308.00" y="206.10" font-family="'Segoe UI','Microsoft YaHei','SimHei',sans-serif" font-size="2.55" text-anchor="start" font-weight="normal" fill="#000">4×Ø3.4</text>
<text x="247.00" y="210.30" font-family="'Segoe UI','Microsoft YaHei','SimHei',sans-serif" font-size="2.55" text-anchor="start" font-weight="normal" fill="#000">H5–H12</text>
<text x="262.00" y="210.30" font-family="'Segoe UI','Microsoft YaHei','SimHei',sans-serif" font-size="2.55" text-anchor="start" font-weight="normal" fill="#000">±25/±44</text>
<text x="284.00" y="210.30" font-family="'Segoe UI','Microsoft YaHei','SimHei',sans-serif" font-size="2.55" text-anchor="start" font-weight="normal" fill="#000">±44/±25</text>
<text x="308.00" y="210.30" font-family="'Segoe UI','Microsoft YaHei','SimHei',sans-serif" font-size="2.55" text-anchor="start" font-weight="normal" fill="#000">8×Ø3.2</text>
<text x="247.00" y="214.50" font-family="'Segoe UI','Microsoft YaHei','SimHei',sans-serif" font-size="2.55" text-anchor="start" font-weight="normal" fill="#000">H13–H16</text>
<text x="262.00" y="214.50" font-family="'Segoe UI','Microsoft YaHei','SimHei',sans-serif" font-size="2.55" text-anchor="start" font-weight="normal" fill="#000">±38</text>
<text x="284.00" y="214.50" font-family="'Segoe UI','Microsoft YaHei','SimHei',sans-serif" font-size="2.55" text-anchor="start" font-weight="normal" fill="#000">±38</text>
<text x="308.00" y="214.50" font-family="'Segoe UI','Microsoft YaHei','SimHei',sans-serif" font-size="2.55" text-anchor="start" font-weight="normal" fill="#000">4×Ø3.2</text>
<text x="247.00" y="218.70" font-family="'Segoe UI','Microsoft YaHei','SimHei',sans-serif" font-size="2.55" text-anchor="start" font-weight="normal" fill="#000">S1</text>
<text x="262.00" y="218.70" font-family="'Segoe UI','Microsoft YaHei','SimHei',sans-serif" font-size="2.55" text-anchor="start" font-weight="normal" fill="#000">+30.00</text>
<text x="284.00" y="218.70" font-family="'Segoe UI','Microsoft YaHei','SimHei',sans-serif" font-size="2.55" text-anchor="start" font-weight="normal" fill="#000">−45.75</text>
<text x="308.00" y="218.70" font-family="'Segoe UI','Microsoft YaHei','SimHei',sans-serif" font-size="2.55" text-anchor="start" font-weight="normal" fill="#000">Ø4.4 开关1</text>
<text x="247.00" y="222.90" font-family="'Segoe UI','Microsoft YaHei','SimHei',sans-serif" font-size="2.55" text-anchor="start" font-weight="normal" fill="#000">S2</text>
<text x="262.00" y="222.90" font-family="'Segoe UI','Microsoft YaHei','SimHei',sans-serif" font-size="2.55" text-anchor="start" font-weight="normal" fill="#000">−30.00</text>
<text x="284.00" y="222.90" font-family="'Segoe UI','Microsoft YaHei','SimHei',sans-serif" font-size="2.55" text-anchor="start" font-weight="normal" fill="#000">−45.75</text>
<text x="308.00" y="222.90" font-family="'Segoe UI','Microsoft YaHei','SimHei',sans-serif" font-size="2.55" text-anchor="start" font-weight="normal" fill="#000">Ø4.4 开关2</text>
<text x="247.00" y="227.10" font-family="'Segoe UI','Microsoft YaHei','SimHei',sans-serif" font-size="2.55" text-anchor="start" font-weight="normal" fill="#000">S3</text>
<text x="262.00" y="227.10" font-family="'Segoe UI','Microsoft YaHei','SimHei',sans-serif" font-size="2.55" text-anchor="start" font-weight="normal" fill="#000">+45.75</text>
<text x="284.00" y="227.10" font-family="'Segoe UI','Microsoft YaHei','SimHei',sans-serif" font-size="2.55" text-anchor="start" font-weight="normal" fill="#000">0.00</text>
<text x="308.00" y="227.10" font-family="'Segoe UI','Microsoft YaHei','SimHei',sans-serif" font-size="2.55" text-anchor="start" font-weight="normal" fill="#000">Ø4.4 开关3</text>
<text x="247.00" y="231.30" font-family="'Segoe UI','Microsoft YaHei','SimHei',sans-serif" font-size="2.55" text-anchor="start" font-weight="normal" fill="#000">R1</text>
<text x="262.00" y="231.30" font-family="'Segoe UI','Microsoft YaHei','SimHei',sans-serif" font-size="2.55" text-anchor="start" font-weight="normal" fill="#000">−45.75</text>
<text x="284.00" y="231.30" font-family="'Segoe UI','Microsoft YaHei','SimHei',sans-serif" font-size="2.55" text-anchor="start" font-weight="normal" fill="#000">+30.00</text>
<text x="308.00" y="231.30" font-family="'Segoe UI','Microsoft YaHei','SimHei',sans-serif" font-size="2.55" text-anchor="start" font-weight="normal" fill="#000">Ø6.3 RBF</text>
<text x="247.00" y="235.50" font-family="'Segoe UI','Microsoft YaHei','SimHei',sans-serif" font-size="2.55" text-anchor="start" font-weight="normal" fill="#000">C1</text>
<text x="262.00" y="235.50" font-family="'Segoe UI','Microsoft YaHei','SimHei',sans-serif" font-size="2.55" text-anchor="start" font-weight="normal" fill="#000">0</text>
<text x="284.00" y="235.50" font-family="'Segoe UI','Microsoft YaHei','SimHei',sans-serif" font-size="2.55" text-anchor="start" font-weight="normal" fill="#000">0</text>
<text x="308.00" y="235.50" font-family="'Segoe UI','Microsoft YaHei','SimHei',sans-serif" font-size="2.55" text-anchor="start" font-weight="normal" fill="#000">60×30 R4</text>
<line x1="246.000" y1="203.700" x2="325.000" y2="203.700" stroke="#000" stroke-width="0.2" stroke-linecap="butt"/>
<text x="246.00" y="126.00" font-family="'Segoe UI','Microsoft YaHei','SimHei',sans-serif" font-size="3.3" text-anchor="start" font-weight="bold" fill="#000">技术要求</text>
<line x1="246.000" y1="127.600" x2="404.000" y2="127.600" stroke="#000" stroke-width="0.4" stroke-linecap="butt"/>
<text x="246.00" y="132.20" font-family="'Segoe UI','Microsoft YaHei','SimHei',sans-serif" font-size="2.75" text-anchor="start" font-weight="normal" fill="#000">1. 材料 6061-T6 t=2.0;黑色硬质阳极氧化≥25μm;</text>
<text x="246.00" y="136.70" font-family="'Segoe UI','Microsoft YaHei','SimHei',sans-serif" font-size="2.75" text-anchor="start" font-weight="normal" fill="#000">2. S1-S3 开关孔位公差 ±0.05(CDS 强制界面);</text>
<text x="246.00" y="141.20" font-family="'Segoe UI','Microsoft YaHei','SimHei',sans-serif" font-size="2.75" text-anchor="start" font-weight="normal" fill="#000">   滚轮压入量由 MEC-108 支架调垫片保证;</text>
<text x="246.00" y="145.70" font-family="'Segoe UI','Microsoft YaHei','SimHei',sans-serif" font-size="2.75" text-anchor="start" font-weight="normal" fill="#000">3. R1 与 RBF 销 Ø6.35 间隙 0.05-0.15;</text>
<text x="246.00" y="150.20" font-family="'Segoe UI','Microsoft YaHei','SimHei',sans-serif" font-size="2.75" text-anchor="start" font-weight="normal" fill="#000">4. 其余要求同 ASM-101 第 3-7 条;</text>
<text x="246.00" y="154.70" font-family="'Segoe UI','Microsoft YaHei','SimHei',sans-serif" font-size="2.75" text-anchor="start" font-weight="normal" fill="#000">5. 质量目标 ≤48g。</text>
<circle cx="302.000" cy="180.000" r="3.300" fill="none" stroke="#000" stroke-width="0.55"/>
<line x1="295.000" y1="180.000" x2="309.000" y2="180.000" stroke="#000055" stroke-width="0.15" stroke-dasharray="3,1,0.8,1" stroke-linecap="butt"/>
<line x1="302.000" y1="173.000" x2="302.000" y2="187.000" stroke="#000055" stroke-width="0.15" stroke-dasharray="3,1,0.8,1" stroke-linecap="butt"/>
<circle cx="266.000" cy="180.000" r="4.725" fill="none" stroke="#000" stroke-width="0.55"/>
<line x1="257.000" y1="180.000" x2="275.000" y2="180.000" stroke="#000055" stroke-width="0.15" stroke-dasharray="3,1,0.8,1" stroke-linecap="butt"/>
<line x1="266.000" y1="171.000" x2="266.000" y2="189.000" stroke="#000055" stroke-width="0.15" stroke-dasharray="3,1,0.8,1" stroke-linecap="butt"/>
<line x1="259.000" y1="190.000" x2="273.000" y2="190.000" stroke="#000" stroke-width="0.22" stroke-linecap="butt"/>
<path d="M 259.00 190.00 L 261.20 189.30 L 261.20 190.70 Z" fill="#000"/>
<path d="M 273.00 190.00 L 270.80 189.30 L 270.80 190.70 Z" fill="#000"/>
<text x="266.00" y="188.90" font-family="'Segoe UI','Microsoft YaHei','SimHei',sans-serif" font-size="2.3" text-anchor="middle" font-weight="normal" fill="#000">Ø6.3(+0.15/0)</text>
<line x1="296.500" y1="170.000" x2="307.500" y2="170.000" stroke="#000" stroke-width="0.22" stroke-linecap="butt"/>
<path d="M 296.50 170.00 L 298.70 169.30 L 298.70 170.70 Z" fill="#000"/>
<path d="M 307.50 170.00 L 305.30 169.30 L 305.30 170.70 Z" fill="#000"/>
<text x="302.00" y="168.90" font-family="'Segoe UI','Microsoft YaHei','SimHei',sans-serif" font-size="2.3" text-anchor="middle" font-weight="normal" fill="#000">Ø4.4(+0.3/0)</text>
<text x="278.00" y="162.00" font-family="'Segoe UI','Microsoft YaHei','SimHei',sans-serif" font-size="3.0" text-anchor="middle" font-weight="bold" fill="#000">S3 / R1 局部放大 1.5:1</text>
</svg>